<svg width="106" height="106" viewbox="0 0 106 106" xmlns="http://www.w3.org/2000/svg" xmlns:xlink="http://www.w3.org/1999/xlink"><defs><circle id="b" cx="50" cy="50" r="50"/><filter x="-5.5%" y="-3.5%" width="111%" height="111%" filterUnits="objectBoundingBox" id="a"><feOffset dy="2" in="SourceAlpha" result="shadowOffsetOuter1"/><feGaussianBlur stdDeviation="1.5" in="shadowOffsetOuter1" result="shadowBlurOuter1"/><feComposite in="shadowBlurOuter1" in2="SourceAlpha" operator="out" result="shadowBlurOuter1"/><feColorMatrix values="0 0 0 0 0.807843137 0 0 0 0 0.807843137 0 0 0 0 0.807843137 0 0 0 1 0" in="shadowBlurOuter1"/></filter></defs><g fill="none" fill-rule="evenodd"><g transform="translate(3 1)"><use fill="#000" filter="url(#a)" xlink:href="#b"/><use fill="#FFF" xlink:href="#b"/><circle cx="50" cy="50" r="24"/></g><path d="M27.746 47.898L37.848 58l-8.688 8.687a2 2 0 0 1-2.828 0l-7.273-7.273a2 2 0 0 1 0-2.828l8.687-8.688z" fill="#4F4F4F"/><path d="M40.373 35.272L63.102 58l-8.688 8.687a2 2 0 0 1-2.828 0L30.272 45.373l10.101-10.101z" fill="#31A217" opacity=".9"/><path d="M54.414 24.059l32.527 32.527a2 2 0 0 1 0 2.828l-7.273 7.273a2 2 0 0 1-2.828 0l-33.942-33.94 8.688-8.688a2 2 0 0 1 2.828 0z" fill="#31A217"/></g></svg>
