<?xml version="1.0" encoding="UTF-8"?>
<svg width="749px" height="208px" viewBox="0 0 749 208" version="1.1" xmlns="http://www.w3.org/2000/svg" xmlns:xlink="http://www.w3.org/1999/xlink">
    <!-- Generator: Sketch 43.2 (39069) - http://www.bohemiancoding.com/sketch -->
    <title>Lock Pattern</title>
    <desc>Created with Sketch.</desc>
    <defs></defs>
    <g id="Extension" stroke="none" stroke-width="1" fill="none" fill-rule="evenodd" opacity="0.049999997">
        <g id="Lock-Pattern" fill="#000000">
            <g transform="translate(-205.000000, -170.000000)">
                <g transform="translate(119.816181, 119.825421)">
                    <path d="M133.033684,67.1603806 L132.49245,67.1603806 L132.490259,64.6267453 C132.488067,61.8667087 130.097436,59.6212204 127.158996,59.6232786 C124.220557,59.6253368 121.829925,61.8708251 121.832117,64.6308617 L121.836499,67.164497 L121.643671,67.164497 C120.633514,67.1665552 119.813994,67.9363193 119.816185,68.8851462 L119.816185,76.4284228 C119.816185,77.3772497 120.637896,78.1470138 121.648053,78.1470138 L133.038066,78.1408392 C134.048223,78.1408392 134.867743,77.3710751 134.865552,76.4222482 L134.865552,68.8769134 C134.865552,67.9280865 134.043841,67.1603806 133.033684,67.1603806 Z M124.001938,67.2841096 L123.997556,64.7504743 C123.997556,63.007185 125.505122,61.5890901 127.361094,61.587032 C129.217065,61.587032 130.726823,63.0051268 130.726823,64.7463579 L130.731205,67.2799932 L124.001938,67.2841096 Z" id="Shape" fill-rule="nonzero"></path>
                    <rect id="Rectangle" transform="translate(97.538882, 39.694454) rotate(45.000000) translate(-97.538882, -39.694454) " x="73.4295224" y="38.5952234" width="48.2187197" height="2.19846209" rx="1.09923104"></rect>
                    <g id="Group" transform="translate(97.370606, 98.452010) rotate(-270.000000) translate(-97.370606, -98.452010) translate(79.370606, 80.452010)">
                        <rect id="Rectangle" transform="translate(17.990233, 17.954107) rotate(45.000000) translate(-17.990233, -17.954107) " x="-6.11912687" y="16.854876" width="48.2187197" height="2.19846209" rx="1.09923104"></rect>
                    </g>
                </g>
                <g transform="translate(239.632362, 119.825421)">
                    <path d="M73.4150043,127.362525 L72.8737705,127.362525 L72.8715793,124.828889 C72.8693881,122.068853 70.4787563,119.823364 67.5403171,119.825423 C64.6018779,119.827481 62.2112461,122.072969 62.2134373,124.833006 L62.2178198,127.366641 L62.0249916,127.366641 C61.0148346,127.368699 60.1953146,128.138463 60.1975059,129.08729 L60.1975059,136.630567 C60.1975059,137.579394 61.0192171,138.349158 62.029374,138.349158 L73.4193868,138.342983 C74.4295437,138.342983 75.2490637,137.573219 75.2468725,136.624392 L75.2468725,129.079057 C75.2468725,128.13023 74.4251613,127.362525 73.4150043,127.362525 Z M64.3832591,127.486254 L64.3788766,124.952618 C64.3788766,123.209329 65.8864427,121.791234 67.7424144,121.789176 C69.5983861,121.789176 71.1081435,123.207271 71.1081435,124.948502 L71.1125259,127.482137 L64.3832591,127.486254 Z" id="Shape" fill-rule="nonzero"></path>
                    <path d="M133.033684,67.1603806 L132.49245,67.1603806 L132.490259,64.6267453 C132.488067,61.8667087 130.097436,59.6212204 127.158996,59.6232786 C124.220557,59.6253368 121.829925,61.8708251 121.832117,64.6308617 L121.836499,67.164497 L121.643671,67.164497 C120.633514,67.1665552 119.813994,67.9363193 119.816185,68.8851462 L119.816185,76.4284228 C119.816185,77.3772497 120.637896,78.1470138 121.648053,78.1470138 L133.038066,78.1408392 C134.048223,78.1408392 134.867743,77.3710751 134.865552,76.4222482 L134.865552,68.8769134 C134.865552,67.9280865 134.043841,67.1603806 133.033684,67.1603806 Z M124.001938,67.2841096 L123.997556,64.7504743 C123.997556,63.007185 125.505122,61.5890901 127.361094,61.587032 C129.217065,61.587032 130.726823,63.0051268 130.726823,64.7463579 L130.731205,67.2799932 L124.001938,67.2841096 Z" id="Shape" fill-rule="nonzero"></path>
                    <path d="M13.2175028,67.1603806 L12.6762691,67.1603806 L12.6740778,64.6267453 C12.6718866,61.8667087 10.2812548,59.6212204 7.34281561,59.6232786 C4.40437638,59.6253368 2.01374462,61.8708251 2.01593585,64.6308617 L2.0203183,67.164497 L1.82749008,67.164497 C0.817333118,67.1665552 -0.00218684589,67.9363193 4.38395673e-06,68.8851462 L4.38395673e-06,76.4284228 C4.38395673e-06,77.3772497 0.821715577,78.1470138 1.83187254,78.1470138 L13.2218853,78.1408392 C14.2320423,78.1408392 15.0515622,77.3710751 15.049371,76.4222482 L15.049371,68.8769134 C15.049371,67.9280865 14.2276598,67.1603806 13.2175028,67.1603806 Z M4.18575757,67.2841096 L4.18137511,64.7504743 C4.18137511,63.007185 5.68894125,61.5890901 7.54491293,61.587032 C9.40088461,61.587032 10.910642,63.0051268 10.910642,64.7463579 L10.9150244,67.2799932 L4.18575757,67.2841096 Z" id="Shape" fill-rule="nonzero"></path>
                    <rect id="Rectangle" transform="translate(97.538882, 39.694454) rotate(45.000000) translate(-97.538882, -39.694454) " x="73.4295224" y="38.5952234" width="48.2187197" height="2.19846209" rx="1.09923104"></rect>
                    <rect id="Rectangle" transform="translate(36.184110, 39.775553) scale(1, -1) rotate(45.000000) translate(-36.184110, -39.775553) " x="12.0747503" y="38.6763218" width="48.2187197" height="2.19846209" rx="1.09923104"></rect>
                    <g id="Group" transform="translate(97.370606, 98.452010) rotate(-270.000000) translate(-97.370606, -98.452010) translate(79.370606, 80.452010)">
                        <rect id="Rectangle" transform="translate(17.990233, 17.954107) rotate(45.000000) translate(-17.990233, -17.954107) " x="-6.11912687" y="16.854876" width="48.2187197" height="2.19846209" rx="1.09923104"></rect>
                    </g>
                    <g id="Group" transform="translate(36.179337, 98.432484) scale(1, -1) rotate(-270.000000) translate(-36.179337, -98.432484) translate(18.179337, 80.432484)">
                        <rect id="Rectangle" transform="translate(17.990233, 17.954107) rotate(45.000000) translate(-17.990233, -17.954107) " x="-6.11912687" y="16.854876" width="48.2187197" height="2.19846209" rx="1.09923104"></rect>
                    </g>
                </g>
                <g transform="translate(359.448543, 119.825421)">
                    <path d="M73.4150043,127.362525 L72.8737705,127.362525 L72.8715793,124.828889 C72.8693881,122.068853 70.4787563,119.823364 67.5403171,119.825423 C64.6018779,119.827481 62.2112461,122.072969 62.2134373,124.833006 L62.2178198,127.366641 L62.0249916,127.366641 C61.0148346,127.368699 60.1953146,128.138463 60.1975059,129.08729 L60.1975059,136.630567 C60.1975059,137.579394 61.0192171,138.349158 62.029374,138.349158 L73.4193868,138.342983 C74.4295437,138.342983 75.2490637,137.573219 75.2468725,136.624392 L75.2468725,129.079057 C75.2468725,128.13023 74.4251613,127.362525 73.4150043,127.362525 Z M64.3832591,127.486254 L64.3788766,124.952618 C64.3788766,123.209329 65.8864427,121.791234 67.7424144,121.789176 C69.5983861,121.789176 71.1081435,123.207271 71.1081435,124.948502 L71.1125259,127.482137 L64.3832591,127.486254 Z" id="Shape" fill-rule="nonzero"></path>
                    <path d="M133.033684,67.1603806 L132.49245,67.1603806 L132.490259,64.6267453 C132.488067,61.8667087 130.097436,59.6212204 127.158996,59.6232786 C124.220557,59.6253368 121.829925,61.8708251 121.832117,64.6308617 L121.836499,67.164497 L121.643671,67.164497 C120.633514,67.1665552 119.813994,67.9363193 119.816185,68.8851462 L119.816185,76.4284228 C119.816185,77.3772497 120.637896,78.1470138 121.648053,78.1470138 L133.038066,78.1408392 C134.048223,78.1408392 134.867743,77.3710751 134.865552,76.4222482 L134.865552,68.8769134 C134.865552,67.9280865 134.043841,67.1603806 133.033684,67.1603806 Z M124.001938,67.2841096 L123.997556,64.7504743 C123.997556,63.007185 125.505122,61.5890901 127.361094,61.587032 C129.217065,61.587032 130.726823,63.0051268 130.726823,64.7463579 L130.731205,67.2799932 L124.001938,67.2841096 Z" id="Shape" fill-rule="nonzero"></path>
                    <path d="M13.2175028,67.1603806 L12.6762691,67.1603806 L12.6740778,64.6267453 C12.6718866,61.8667087 10.2812548,59.6212204 7.34281561,59.6232786 C4.40437638,59.6253368 2.01374462,61.8708251 2.01593585,64.6308617 L2.0203183,67.164497 L1.82749008,67.164497 C0.817333118,67.1665552 -0.00218684589,67.9363193 4.38395673e-06,68.8851462 L4.38395673e-06,76.4284228 C4.38395673e-06,77.3772497 0.821715577,78.1470138 1.83187254,78.1470138 L13.2218853,78.1408392 C14.2320423,78.1408392 15.0515622,77.3710751 15.049371,76.4222482 L15.049371,68.8769134 C15.049371,67.9280865 14.2276598,67.1603806 13.2175028,67.1603806 Z M4.18575757,67.2841096 L4.18137511,64.7504743 C4.18137511,63.007185 5.68894125,61.5890901 7.54491293,61.587032 C9.40088461,61.587032 10.910642,63.0051268 10.910642,64.7463579 L10.9150244,67.2799932 L4.18575757,67.2841096 Z" id="Shape" fill-rule="nonzero"></path>
                    <rect id="Rectangle" transform="translate(97.538882, 39.694454) rotate(45.000000) translate(-97.538882, -39.694454) " x="73.4295224" y="38.5952234" width="48.2187197" height="2.19846209" rx="1.09923104"></rect>
                    <rect id="Rectangle" transform="translate(36.184110, 39.775553) scale(1, -1) rotate(45.000000) translate(-36.184110, -39.775553) " x="12.0747503" y="38.6763218" width="48.2187197" height="2.19846209" rx="1.09923104"></rect>
                    <g id="Group" transform="translate(97.370606, 98.452010) rotate(-270.000000) translate(-97.370606, -98.452010) translate(79.370606, 80.452010)">
                        <rect id="Rectangle" transform="translate(17.990233, 17.954107) rotate(45.000000) translate(-17.990233, -17.954107) " x="-6.11912687" y="16.854876" width="48.2187197" height="2.19846209" rx="1.09923104"></rect>
                    </g>
                    <g id="Group" transform="translate(36.179337, 98.432484) scale(1, -1) rotate(-270.000000) translate(-36.179337, -98.432484) translate(18.179337, 80.432484)">
                        <rect id="Rectangle" transform="translate(17.990233, 17.954107) rotate(45.000000) translate(-17.990233, -17.954107) " x="-6.11912687" y="16.854876" width="48.2187197" height="2.19846209" rx="1.09923104"></rect>
                    </g>
                </g>
                <g transform="translate(478.685901, 119.825421)">
                    <path d="M73.4150043,127.362525 L72.8737705,127.362525 L72.8715793,124.828889 C72.8693881,122.068853 70.4787563,119.823364 67.5403171,119.825423 C64.6018779,119.827481 62.2112461,122.072969 62.2134373,124.833006 L62.2178198,127.366641 L62.0249916,127.366641 C61.0148346,127.368699 60.1953146,128.138463 60.1975059,129.08729 L60.1975059,136.630567 C60.1975059,137.579394 61.0192171,138.349158 62.029374,138.349158 L73.4193868,138.342983 C74.4295437,138.342983 75.2490637,137.573219 75.2468725,136.624392 L75.2468725,129.079057 C75.2468725,128.13023 74.4251613,127.362525 73.4150043,127.362525 Z M64.3832591,127.486254 L64.3788766,124.952618 C64.3788766,123.209329 65.8864427,121.791234 67.7424144,121.789176 C69.5983861,121.789176 71.1081435,123.207271 71.1081435,124.948502 L71.1125259,127.482137 L64.3832591,127.486254 Z" id="Shape" fill-rule="nonzero"></path>
                    <path d="M133.033684,67.1603806 L132.49245,67.1603806 L132.490259,64.6267453 C132.488067,61.8667087 130.097436,59.6212204 127.158996,59.6232786 C124.220557,59.6253368 121.829925,61.8708251 121.832117,64.6308617 L121.836499,67.164497 L121.643671,67.164497 C120.633514,67.1665552 119.813994,67.9363193 119.816185,68.8851462 L119.816185,76.4284228 C119.816185,77.3772497 120.637896,78.1470138 121.648053,78.1470138 L133.038066,78.1408392 C134.048223,78.1408392 134.867743,77.3710751 134.865552,76.4222482 L134.865552,68.8769134 C134.865552,67.9280865 134.043841,67.1603806 133.033684,67.1603806 Z M124.001938,67.2841096 L123.997556,64.7504743 C123.997556,63.007185 125.505122,61.5890901 127.361094,61.587032 C129.217065,61.587032 130.726823,63.0051268 130.726823,64.7463579 L130.731205,67.2799932 L124.001938,67.2841096 Z" id="Shape" fill-rule="nonzero"></path>
                    <path d="M13.2175028,67.1603806 L12.6762691,67.1603806 L12.6740778,64.6267453 C12.6718866,61.8667087 10.2812548,59.6212204 7.34281561,59.6232786 C4.40437638,59.6253368 2.01374462,61.8708251 2.01593585,64.6308617 L2.0203183,67.164497 L1.82749008,67.164497 C0.817333118,67.1665552 -0.00218684589,67.9363193 4.38395673e-06,68.8851462 L4.38395673e-06,76.4284228 C4.38395673e-06,77.3772497 0.821715577,78.1470138 1.83187254,78.1470138 L13.2218853,78.1408392 C14.2320423,78.1408392 15.0515622,77.3710751 15.049371,76.4222482 L15.049371,68.8769134 C15.049371,67.9280865 14.2276598,67.1603806 13.2175028,67.1603806 Z M4.18575757,67.2841096 L4.18137511,64.7504743 C4.18137511,63.007185 5.68894125,61.5890901 7.54491293,61.587032 C9.40088461,61.587032 10.910642,63.0051268 10.910642,64.7463579 L10.9150244,67.2799932 L4.18575757,67.2841096 Z" id="Shape" fill-rule="nonzero"></path>
                    <rect id="Rectangle" transform="translate(97.538882, 39.694454) rotate(45.000000) translate(-97.538882, -39.694454) " x="73.4295224" y="38.5952234" width="48.2187197" height="2.19846209" rx="1.09923104"></rect>
                    <rect id="Rectangle" transform="translate(36.184110, 39.775553) scale(1, -1) rotate(45.000000) translate(-36.184110, -39.775553) " x="12.0747503" y="38.6763218" width="48.2187197" height="2.19846209" rx="1.09923104"></rect>
                    <g id="Group" transform="translate(97.370606, 98.452010) rotate(-270.000000) translate(-97.370606, -98.452010) translate(79.370606, 80.452010)">
                        <rect id="Rectangle" transform="translate(17.990233, 17.954107) rotate(45.000000) translate(-17.990233, -17.954107) " x="-6.11912687" y="16.854876" width="48.2187197" height="2.19846209" rx="1.09923104"></rect>
                    </g>
                    <g id="Group" transform="translate(36.179337, 98.432484) scale(1, -1) rotate(-270.000000) translate(-36.179337, -98.432484) translate(18.179337, 80.432484)">
                        <rect id="Rectangle" transform="translate(17.990233, 17.954107) rotate(45.000000) translate(-17.990233, -17.954107) " x="-6.11912687" y="16.854876" width="48.2187197" height="2.19846209" rx="1.09923104"></rect>
                    </g>
                </g>
                <g transform="translate(598.502082, 119.825421)">
                    <path d="M73.4150043,127.362525 L72.8737705,127.362525 L72.8715793,124.828889 C72.8693881,122.068853 70.4787563,119.823364 67.5403171,119.825423 C64.6018779,119.827481 62.2112461,122.072969 62.2134373,124.833006 L62.2178198,127.366641 L62.0249916,127.366641 C61.0148346,127.368699 60.1953146,128.138463 60.1975059,129.08729 L60.1975059,136.630567 C60.1975059,137.579394 61.0192171,138.349158 62.029374,138.349158 L73.4193868,138.342983 C74.4295437,138.342983 75.2490637,137.573219 75.2468725,136.624392 L75.2468725,129.079057 C75.2468725,128.13023 74.4251613,127.362525 73.4150043,127.362525 Z M64.3832591,127.486254 L64.3788766,124.952618 C64.3788766,123.209329 65.8864427,121.791234 67.7424144,121.789176 C69.5983861,121.789176 71.1081435,123.207271 71.1081435,124.948502 L71.1125259,127.482137 L64.3832591,127.486254 Z" id="Shape" fill-rule="nonzero"></path>
                    <path d="M133.033684,67.1603806 L132.49245,67.1603806 L132.490259,64.6267453 C132.488067,61.8667087 130.097436,59.6212204 127.158996,59.6232786 C124.220557,59.6253368 121.829925,61.8708251 121.832117,64.6308617 L121.836499,67.164497 L121.643671,67.164497 C120.633514,67.1665552 119.813994,67.9363193 119.816185,68.8851462 L119.816185,76.4284228 C119.816185,77.3772497 120.637896,78.1470138 121.648053,78.1470138 L133.038066,78.1408392 C134.048223,78.1408392 134.867743,77.3710751 134.865552,76.4222482 L134.865552,68.8769134 C134.865552,67.9280865 134.043841,67.1603806 133.033684,67.1603806 Z M124.001938,67.2841096 L123.997556,64.7504743 C123.997556,63.007185 125.505122,61.5890901 127.361094,61.587032 C129.217065,61.587032 130.726823,63.0051268 130.726823,64.7463579 L130.731205,67.2799932 L124.001938,67.2841096 Z" id="Shape" fill-rule="nonzero"></path>
                    <path d="M13.2175028,67.1603806 L12.6762691,67.1603806 L12.6740778,64.6267453 C12.6718866,61.8667087 10.2812548,59.6212204 7.34281561,59.6232786 C4.40437638,59.6253368 2.01374462,61.8708251 2.01593585,64.6308617 L2.0203183,67.164497 L1.82749008,67.164497 C0.817333118,67.1665552 -0.00218684589,67.9363193 4.38395673e-06,68.8851462 L4.38395673e-06,76.4284228 C4.38395673e-06,77.3772497 0.821715577,78.1470138 1.83187254,78.1470138 L13.2218853,78.1408392 C14.2320423,78.1408392 15.0515622,77.3710751 15.049371,76.4222482 L15.049371,68.8769134 C15.049371,67.9280865 14.2276598,67.1603806 13.2175028,67.1603806 Z M4.18575757,67.2841096 L4.18137511,64.7504743 C4.18137511,63.007185 5.68894125,61.5890901 7.54491293,61.587032 C9.40088461,61.587032 10.910642,63.0051268 10.910642,64.7463579 L10.9150244,67.2799932 L4.18575757,67.2841096 Z" id="Shape" fill-rule="nonzero"></path>
                    <rect id="Rectangle" transform="translate(97.538882, 39.694454) rotate(45.000000) translate(-97.538882, -39.694454) " x="73.4295224" y="38.5952234" width="48.2187197" height="2.19846209" rx="1.09923104"></rect>
                    <rect id="Rectangle" transform="translate(36.184110, 39.775553) scale(1, -1) rotate(45.000000) translate(-36.184110, -39.775553) " x="12.0747503" y="38.6763218" width="48.2187197" height="2.19846209" rx="1.09923104"></rect>
                    <g id="Group" transform="translate(97.370606, 98.452010) rotate(-270.000000) translate(-97.370606, -98.452010) translate(79.370606, 80.452010)">
                        <rect id="Rectangle" transform="translate(17.990233, 17.954107) rotate(45.000000) translate(-17.990233, -17.954107) " x="-6.11912687" y="16.854876" width="48.2187197" height="2.19846209" rx="1.09923104"></rect>
                    </g>
                    <g id="Group" transform="translate(36.179337, 98.432484) scale(1, -1) rotate(-270.000000) translate(-36.179337, -98.432484) translate(18.179337, 80.432484)">
                        <rect id="Rectangle" transform="translate(17.990233, 17.954107) rotate(45.000000) translate(-17.990233, -17.954107) " x="-6.11912687" y="16.854876" width="48.2187197" height="2.19846209" rx="1.09923104"></rect>
                    </g>
                </g>
                <g transform="translate(718.318263, 119.825421)">
                    <path d="M73.4150043,127.362525 L72.8737705,127.362525 L72.8715793,124.828889 C72.8693881,122.068853 70.4787563,119.823364 67.5403171,119.825423 C64.6018779,119.827481 62.2112461,122.072969 62.2134373,124.833006 L62.2178198,127.366641 L62.0249916,127.366641 C61.0148346,127.368699 60.1953146,128.138463 60.1975059,129.08729 L60.1975059,136.630567 C60.1975059,137.579394 61.0192171,138.349158 62.029374,138.349158 L73.4193868,138.342983 C74.4295437,138.342983 75.2490637,137.573219 75.2468725,136.624392 L75.2468725,129.079057 C75.2468725,128.13023 74.4251613,127.362525 73.4150043,127.362525 Z M64.3832591,127.486254 L64.3788766,124.952618 C64.3788766,123.209329 65.8864427,121.791234 67.7424144,121.789176 C69.5983861,121.789176 71.1081435,123.207271 71.1081435,124.948502 L71.1125259,127.482137 L64.3832591,127.486254 Z" id="Shape" fill-rule="nonzero"></path>
                    <path d="M133.033684,67.1603806 L132.49245,67.1603806 L132.490259,64.6267453 C132.488067,61.8667087 130.097436,59.6212204 127.158996,59.6232786 C124.220557,59.6253368 121.829925,61.8708251 121.832117,64.6308617 L121.836499,67.164497 L121.643671,67.164497 C120.633514,67.1665552 119.813994,67.9363193 119.816185,68.8851462 L119.816185,76.4284228 C119.816185,77.3772497 120.637896,78.1470138 121.648053,78.1470138 L133.038066,78.1408392 C134.048223,78.1408392 134.867743,77.3710751 134.865552,76.4222482 L134.865552,68.8769134 C134.865552,67.9280865 134.043841,67.1603806 133.033684,67.1603806 Z M124.001938,67.2841096 L123.997556,64.7504743 C123.997556,63.007185 125.505122,61.5890901 127.361094,61.587032 C129.217065,61.587032 130.726823,63.0051268 130.726823,64.7463579 L130.731205,67.2799932 L124.001938,67.2841096 Z" id="Shape" fill-rule="nonzero"></path>
                    <path d="M13.2175028,67.1603806 L12.6762691,67.1603806 L12.6740778,64.6267453 C12.6718866,61.8667087 10.2812548,59.6212204 7.34281561,59.6232786 C4.40437638,59.6253368 2.01374462,61.8708251 2.01593585,64.6308617 L2.0203183,67.164497 L1.82749008,67.164497 C0.817333118,67.1665552 -0.00218684589,67.9363193 4.38395673e-06,68.8851462 L4.38395673e-06,76.4284228 C4.38395673e-06,77.3772497 0.821715577,78.1470138 1.83187254,78.1470138 L13.2218853,78.1408392 C14.2320423,78.1408392 15.0515622,77.3710751 15.049371,76.4222482 L15.049371,68.8769134 C15.049371,67.9280865 14.2276598,67.1603806 13.2175028,67.1603806 Z M4.18575757,67.2841096 L4.18137511,64.7504743 C4.18137511,63.007185 5.68894125,61.5890901 7.54491293,61.587032 C9.40088461,61.587032 10.910642,63.0051268 10.910642,64.7463579 L10.9150244,67.2799932 L4.18575757,67.2841096 Z" id="Shape" fill-rule="nonzero"></path>
                    <rect id="Rectangle" transform="translate(97.538882, 39.694454) rotate(45.000000) translate(-97.538882, -39.694454) " x="73.4295224" y="38.5952234" width="48.2187197" height="2.19846209" rx="1.09923104"></rect>
                    <rect id="Rectangle" transform="translate(36.184110, 39.775553) scale(1, -1) rotate(45.000000) translate(-36.184110, -39.775553) " x="12.0747503" y="38.6763218" width="48.2187197" height="2.19846209" rx="1.09923104"></rect>
                    <g id="Group" transform="translate(97.370606, 98.452010) rotate(-270.000000) translate(-97.370606, -98.452010) translate(79.370606, 80.452010)">
                        <rect id="Rectangle" transform="translate(17.990233, 17.954107) rotate(45.000000) translate(-17.990233, -17.954107) " x="-6.11912687" y="16.854876" width="48.2187197" height="2.19846209" rx="1.09923104"></rect>
                    </g>
                    <g id="Group" transform="translate(36.179337, 98.432484) scale(1, -1) rotate(-270.000000) translate(-36.179337, -98.432484) translate(18.179337, 80.432484)">
                        <rect id="Rectangle" transform="translate(17.990233, 17.954107) rotate(45.000000) translate(-17.990233, -17.954107) " x="-6.11912687" y="16.854876" width="48.2187197" height="2.19846209" rx="1.09923104"></rect>
                    </g>
                </g>
                <g transform="translate(838.134444, 119.825421)">
                    <path d="M73.4150043,127.362525 L72.8737705,127.362525 L72.8715793,124.828889 C72.8693881,122.068853 70.4787563,119.823364 67.5403171,119.825423 C64.6018779,119.827481 62.2112461,122.072969 62.2134373,124.833006 L62.2178198,127.366641 L62.0249916,127.366641 C61.0148346,127.368699 60.1953146,128.138463 60.1975059,129.08729 L60.1975059,136.630567 C60.1975059,137.579394 61.0192171,138.349158 62.029374,138.349158 L73.4193868,138.342983 C74.4295437,138.342983 75.2490637,137.573219 75.2468725,136.624392 L75.2468725,129.079057 C75.2468725,128.13023 74.4251613,127.362525 73.4150043,127.362525 Z M64.3832591,127.486254 L64.3788766,124.952618 C64.3788766,123.209329 65.8864427,121.791234 67.7424144,121.789176 C69.5983861,121.789176 71.1081435,123.207271 71.1081435,124.948502 L71.1125259,127.482137 L64.3832591,127.486254 Z" id="Shape" fill-rule="nonzero"></path>
                    <path d="M13.2175028,67.1603806 L12.6762691,67.1603806 L12.6740778,64.6267453 C12.6718866,61.8667087 10.2812548,59.6212204 7.34281561,59.6232786 C4.40437638,59.6253368 2.01374462,61.8708251 2.01593585,64.6308617 L2.0203183,67.164497 L1.82749008,67.164497 C0.817333118,67.1665552 -0.00218684589,67.9363193 4.38395673e-06,68.8851462 L4.38395673e-06,76.4284228 C4.38395673e-06,77.3772497 0.821715577,78.1470138 1.83187254,78.1470138 L13.2218853,78.1408392 C14.2320423,78.1408392 15.0515622,77.3710751 15.049371,76.4222482 L15.049371,68.8769134 C15.049371,67.9280865 14.2276598,67.1603806 13.2175028,67.1603806 Z M4.18575757,67.2841096 L4.18137511,64.7504743 C4.18137511,63.007185 5.68894125,61.5890901 7.54491293,61.587032 C9.40088461,61.587032 10.910642,63.0051268 10.910642,64.7463579 L10.9150244,67.2799932 L4.18575757,67.2841096 Z" id="Shape" fill-rule="nonzero"></path>
                    <rect id="Rectangle" transform="translate(97.538882, 39.694454) rotate(45.000000) translate(-97.538882, -39.694454) " x="73.4295224" y="38.5952234" width="48.2187197" height="2.19846209" rx="1.09923104"></rect>
                    <rect id="Rectangle" transform="translate(36.184110, 39.775553) scale(1, -1) rotate(45.000000) translate(-36.184110, -39.775553) " x="12.0747503" y="38.6763218" width="48.2187197" height="2.19846209" rx="1.09923104"></rect>
                    <g id="Group" transform="translate(97.370606, 98.452010) rotate(-270.000000) translate(-97.370606, -98.452010) translate(79.370606, 80.452010)">
                        <rect id="Rectangle" transform="translate(17.990233, 17.954107) rotate(45.000000) translate(-17.990233, -17.954107) " x="-6.11912687" y="16.854876" width="48.2187197" height="2.19846209" rx="1.09923104"></rect>
                    </g>
                    <g id="Group" transform="translate(36.179337, 98.432484) scale(1, -1) rotate(-270.000000) translate(-36.179337, -98.432484) translate(18.179337, 80.432484)">
                        <rect id="Rectangle" transform="translate(17.990233, 17.954107) rotate(45.000000) translate(-17.990233, -17.954107) " x="-6.11912687" y="16.854876" width="48.2187197" height="2.19846209" rx="1.09923104"></rect>
                    </g>
                </g>
                <g transform="translate(119.816181, 239.650842)">
                    <path d="M133.033684,67.1603806 L132.49245,67.1603806 L132.490259,64.6267453 C132.488067,61.8667087 130.097436,59.6212204 127.158996,59.6232786 C124.220557,59.6253368 121.829925,61.8708251 121.832117,64.6308617 L121.836499,67.164497 L121.643671,67.164497 C120.633514,67.1665552 119.813994,67.9363193 119.816185,68.8851462 L119.816185,76.4284228 C119.816185,77.3772497 120.637896,78.1470138 121.648053,78.1470138 L133.038066,78.1408392 C134.048223,78.1408392 134.867743,77.3710751 134.865552,76.4222482 L134.865552,68.8769134 C134.865552,67.9280865 134.043841,67.1603806 133.033684,67.1603806 Z M124.001938,67.2841096 L123.997556,64.7504743 C123.997556,63.007185 125.505122,61.5890901 127.361094,61.587032 C129.217065,61.587032 130.726823,63.0051268 130.726823,64.7463579 L130.731205,67.2799932 L124.001938,67.2841096 Z" id="Shape" fill-rule="nonzero"></path>
                    <rect id="Rectangle" transform="translate(97.538882, 39.694454) rotate(45.000000) translate(-97.538882, -39.694454) " x="73.4295224" y="38.5952234" width="48.2187197" height="2.19846209" rx="1.09923104"></rect>
                    <g id="Group" transform="translate(97.370606, 98.452010) rotate(-270.000000) translate(-97.370606, -98.452010) translate(79.370606, 80.452010)">
                        <rect id="Rectangle" transform="translate(17.990233, 17.954107) rotate(45.000000) translate(-17.990233, -17.954107) " x="-6.11912687" y="16.854876" width="48.2187197" height="2.19846209" rx="1.09923104"></rect>
                    </g>
                </g>
                <g transform="translate(239.632362, 239.650842)">
                    <path d="M73.4150043,7.53710344 L72.8737705,7.53710344 L72.8715793,5.00346811 C72.8693881,2.24343156 70.4787563,-0.00205677904 67.5403171,1.41376035e-06 C64.6018779,0.00205960656 62.2112461,2.24754795 62.2134373,5.00758449 L62.2178198,7.54121983 L62.0249916,7.54121983 C61.0148346,7.54327802 60.1953146,8.31304213 60.1975059,9.26186901 L60.1975059,16.8051456 C60.1975059,17.7539725 61.0192171,18.5237366 62.029374,18.5237366 L73.4193868,18.517562 C74.4295437,18.517562 75.2490637,17.7477979 75.2468725,16.798971 L75.2468725,9.25363624 C75.2468725,8.30480936 74.4251613,7.53710344 73.4150043,7.53710344 Z M64.3832591,7.66083244 L64.3788766,5.1271971 C64.3788766,3.3839078 65.8864427,1.96581296 67.7424144,1.96375477 C69.5983861,1.96375477 71.1081435,3.38184961 71.1081435,5.12308072 L71.1125259,7.65671605 L64.3832591,7.66083244 Z" id="Shape" fill-rule="nonzero"></path>
                    <path d="M73.4150043,127.362525 L72.8737705,127.362525 L72.8715793,124.828889 C72.8693881,122.068853 70.4787563,119.823364 67.5403171,119.825423 C64.6018779,119.827481 62.2112461,122.072969 62.2134373,124.833006 L62.2178198,127.366641 L62.0249916,127.366641 C61.0148346,127.368699 60.1953146,128.138463 60.1975059,129.08729 L60.1975059,136.630567 C60.1975059,137.579394 61.0192171,138.349158 62.029374,138.349158 L73.4193868,138.342983 C74.4295437,138.342983 75.2490637,137.573219 75.2468725,136.624392 L75.2468725,129.079057 C75.2468725,128.13023 74.4251613,127.362525 73.4150043,127.362525 Z M64.3832591,127.486254 L64.3788766,124.952618 C64.3788766,123.209329 65.8864427,121.791234 67.7424144,121.789176 C69.5983861,121.789176 71.1081435,123.207271 71.1081435,124.948502 L71.1125259,127.482137 L64.3832591,127.486254 Z" id="Shape" fill-rule="nonzero"></path>
                    <path d="M133.033684,67.1603806 L132.49245,67.1603806 L132.490259,64.6267453 C132.488067,61.8667087 130.097436,59.6212204 127.158996,59.6232786 C124.220557,59.6253368 121.829925,61.8708251 121.832117,64.6308617 L121.836499,67.164497 L121.643671,67.164497 C120.633514,67.1665552 119.813994,67.9363193 119.816185,68.8851462 L119.816185,76.4284228 C119.816185,77.3772497 120.637896,78.1470138 121.648053,78.1470138 L133.038066,78.1408392 C134.048223,78.1408392 134.867743,77.3710751 134.865552,76.4222482 L134.865552,68.8769134 C134.865552,67.9280865 134.043841,67.1603806 133.033684,67.1603806 Z M124.001938,67.2841096 L123.997556,64.7504743 C123.997556,63.007185 125.505122,61.5890901 127.361094,61.587032 C129.217065,61.587032 130.726823,63.0051268 130.726823,64.7463579 L130.731205,67.2799932 L124.001938,67.2841096 Z" id="Shape" fill-rule="nonzero"></path>
                    <path d="M13.2175028,67.1603806 L12.6762691,67.1603806 L12.6740778,64.6267453 C12.6718866,61.8667087 10.2812548,59.6212204 7.34281561,59.6232786 C4.40437638,59.6253368 2.01374462,61.8708251 2.01593585,64.6308617 L2.0203183,67.164497 L1.82749008,67.164497 C0.817333118,67.1665552 -0.00218684589,67.9363193 4.38395673e-06,68.8851462 L4.38395673e-06,76.4284228 C4.38395673e-06,77.3772497 0.821715577,78.1470138 1.83187254,78.1470138 L13.2218853,78.1408392 C14.2320423,78.1408392 15.0515622,77.3710751 15.049371,76.4222482 L15.049371,68.8769134 C15.049371,67.9280865 14.2276598,67.1603806 13.2175028,67.1603806 Z M4.18575757,67.2841096 L4.18137511,64.7504743 C4.18137511,63.007185 5.68894125,61.5890901 7.54491293,61.587032 C9.40088461,61.587032 10.910642,63.0051268 10.910642,64.7463579 L10.9150244,67.2799932 L4.18575757,67.2841096 Z" id="Shape" fill-rule="nonzero"></path>
                    <rect id="Rectangle" transform="translate(97.538882, 39.694454) rotate(45.000000) translate(-97.538882, -39.694454) " x="73.4295224" y="38.5952234" width="48.2187197" height="2.19846209" rx="1.09923104"></rect>
                    <rect id="Rectangle" transform="translate(36.184110, 39.775553) scale(1, -1) rotate(45.000000) translate(-36.184110, -39.775553) " x="12.0747503" y="38.6763218" width="48.2187197" height="2.19846209" rx="1.09923104"></rect>
                    <g id="Group" transform="translate(97.370606, 98.452010) rotate(-270.000000) translate(-97.370606, -98.452010) translate(79.370606, 80.452010)">
                        <rect id="Rectangle" transform="translate(17.990233, 17.954107) rotate(45.000000) translate(-17.990233, -17.954107) " x="-6.11912687" y="16.854876" width="48.2187197" height="2.19846209" rx="1.09923104"></rect>
                    </g>
                    <g id="Group" transform="translate(36.179337, 98.432484) scale(1, -1) rotate(-270.000000) translate(-36.179337, -98.432484) translate(18.179337, 80.432484)">
                        <rect id="Rectangle" transform="translate(17.990233, 17.954107) rotate(45.000000) translate(-17.990233, -17.954107) " x="-6.11912687" y="16.854876" width="48.2187197" height="2.19846209" rx="1.09923104"></rect>
                    </g>
                </g>
                <g transform="translate(359.448543, 239.650842)">
                    <path d="M73.4150043,7.53710344 L72.8737705,7.53710344 L72.8715793,5.00346811 C72.8693881,2.24343156 70.4787563,-0.00205677904 67.5403171,1.41376035e-06 C64.6018779,0.00205960656 62.2112461,2.24754795 62.2134373,5.00758449 L62.2178198,7.54121983 L62.0249916,7.54121983 C61.0148346,7.54327802 60.1953146,8.31304213 60.1975059,9.26186901 L60.1975059,16.8051456 C60.1975059,17.7539725 61.0192171,18.5237366 62.029374,18.5237366 L73.4193868,18.517562 C74.4295437,18.517562 75.2490637,17.7477979 75.2468725,16.798971 L75.2468725,9.25363624 C75.2468725,8.30480936 74.4251613,7.53710344 73.4150043,7.53710344 Z M64.3832591,7.66083244 L64.3788766,5.1271971 C64.3788766,3.3839078 65.8864427,1.96581296 67.7424144,1.96375477 C69.5983861,1.96375477 71.1081435,3.38184961 71.1081435,5.12308072 L71.1125259,7.65671605 L64.3832591,7.66083244 Z" id="Shape" fill-rule="nonzero"></path>
                    <path d="M73.4150043,127.362525 L72.8737705,127.362525 L72.8715793,124.828889 C72.8693881,122.068853 70.4787563,119.823364 67.5403171,119.825423 C64.6018779,119.827481 62.2112461,122.072969 62.2134373,124.833006 L62.2178198,127.366641 L62.0249916,127.366641 C61.0148346,127.368699 60.1953146,128.138463 60.1975059,129.08729 L60.1975059,136.630567 C60.1975059,137.579394 61.0192171,138.349158 62.029374,138.349158 L73.4193868,138.342983 C74.4295437,138.342983 75.2490637,137.573219 75.2468725,136.624392 L75.2468725,129.079057 C75.2468725,128.13023 74.4251613,127.362525 73.4150043,127.362525 Z M64.3832591,127.486254 L64.3788766,124.952618 C64.3788766,123.209329 65.8864427,121.791234 67.7424144,121.789176 C69.5983861,121.789176 71.1081435,123.207271 71.1081435,124.948502 L71.1125259,127.482137 L64.3832591,127.486254 Z" id="Shape" fill-rule="nonzero"></path>
                    <path d="M133.033684,67.1603806 L132.49245,67.1603806 L132.490259,64.6267453 C132.488067,61.8667087 130.097436,59.6212204 127.158996,59.6232786 C124.220557,59.6253368 121.829925,61.8708251 121.832117,64.6308617 L121.836499,67.164497 L121.643671,67.164497 C120.633514,67.1665552 119.813994,67.9363193 119.816185,68.8851462 L119.816185,76.4284228 C119.816185,77.3772497 120.637896,78.1470138 121.648053,78.1470138 L133.038066,78.1408392 C134.048223,78.1408392 134.867743,77.3710751 134.865552,76.4222482 L134.865552,68.8769134 C134.865552,67.9280865 134.043841,67.1603806 133.033684,67.1603806 Z M124.001938,67.2841096 L123.997556,64.7504743 C123.997556,63.007185 125.505122,61.5890901 127.361094,61.587032 C129.217065,61.587032 130.726823,63.0051268 130.726823,64.7463579 L130.731205,67.2799932 L124.001938,67.2841096 Z" id="Shape" fill-rule="nonzero"></path>
                    <path d="M13.2175028,67.1603806 L12.6762691,67.1603806 L12.6740778,64.6267453 C12.6718866,61.8667087 10.2812548,59.6212204 7.34281561,59.6232786 C4.40437638,59.6253368 2.01374462,61.8708251 2.01593585,64.6308617 L2.0203183,67.164497 L1.82749008,67.164497 C0.817333118,67.1665552 -0.00218684589,67.9363193 4.38395673e-06,68.8851462 L4.38395673e-06,76.4284228 C4.38395673e-06,77.3772497 0.821715577,78.1470138 1.83187254,78.1470138 L13.2218853,78.1408392 C14.2320423,78.1408392 15.0515622,77.3710751 15.049371,76.4222482 L15.049371,68.8769134 C15.049371,67.9280865 14.2276598,67.1603806 13.2175028,67.1603806 Z M4.18575757,67.2841096 L4.18137511,64.7504743 C4.18137511,63.007185 5.68894125,61.5890901 7.54491293,61.587032 C9.40088461,61.587032 10.910642,63.0051268 10.910642,64.7463579 L10.9150244,67.2799932 L4.18575757,67.2841096 Z" id="Shape" fill-rule="nonzero"></path>
                    <rect id="Rectangle" transform="translate(97.538882, 39.694454) rotate(45.000000) translate(-97.538882, -39.694454) " x="73.4295224" y="38.5952234" width="48.2187197" height="2.19846209" rx="1.09923104"></rect>
                    <rect id="Rectangle" transform="translate(36.184110, 39.775553) scale(1, -1) rotate(45.000000) translate(-36.184110, -39.775553) " x="12.0747503" y="38.6763218" width="48.2187197" height="2.19846209" rx="1.09923104"></rect>
                    <g id="Group" transform="translate(97.370606, 98.452010) rotate(-270.000000) translate(-97.370606, -98.452010) translate(79.370606, 80.452010)">
                        <rect id="Rectangle" transform="translate(17.990233, 17.954107) rotate(45.000000) translate(-17.990233, -17.954107) " x="-6.11912687" y="16.854876" width="48.2187197" height="2.19846209" rx="1.09923104"></rect>
                    </g>
                    <g id="Group" transform="translate(36.179337, 98.432484) scale(1, -1) rotate(-270.000000) translate(-36.179337, -98.432484) translate(18.179337, 80.432484)">
                        <rect id="Rectangle" transform="translate(17.990233, 17.954107) rotate(45.000000) translate(-17.990233, -17.954107) " x="-6.11912687" y="16.854876" width="48.2187197" height="2.19846209" rx="1.09923104"></rect>
                    </g>
                </g>
                <g transform="translate(478.685901, 239.650842)">
                    <path d="M73.4150043,7.53710344 L72.8737705,7.53710344 L72.8715793,5.00346811 C72.8693881,2.24343156 70.4787563,-0.00205677904 67.5403171,1.41376035e-06 C64.6018779,0.00205960656 62.2112461,2.24754795 62.2134373,5.00758449 L62.2178198,7.54121983 L62.0249916,7.54121983 C61.0148346,7.54327802 60.1953146,8.31304213 60.1975059,9.26186901 L60.1975059,16.8051456 C60.1975059,17.7539725 61.0192171,18.5237366 62.029374,18.5237366 L73.4193868,18.517562 C74.4295437,18.517562 75.2490637,17.7477979 75.2468725,16.798971 L75.2468725,9.25363624 C75.2468725,8.30480936 74.4251613,7.53710344 73.4150043,7.53710344 Z M64.3832591,7.66083244 L64.3788766,5.1271971 C64.3788766,3.3839078 65.8864427,1.96581296 67.7424144,1.96375477 C69.5983861,1.96375477 71.1081435,3.38184961 71.1081435,5.12308072 L71.1125259,7.65671605 L64.3832591,7.66083244 Z" id="Shape" fill-rule="nonzero"></path>
                    <path d="M73.4150043,127.362525 L72.8737705,127.362525 L72.8715793,124.828889 C72.8693881,122.068853 70.4787563,119.823364 67.5403171,119.825423 C64.6018779,119.827481 62.2112461,122.072969 62.2134373,124.833006 L62.2178198,127.366641 L62.0249916,127.366641 C61.0148346,127.368699 60.1953146,128.138463 60.1975059,129.08729 L60.1975059,136.630567 C60.1975059,137.579394 61.0192171,138.349158 62.029374,138.349158 L73.4193868,138.342983 C74.4295437,138.342983 75.2490637,137.573219 75.2468725,136.624392 L75.2468725,129.079057 C75.2468725,128.13023 74.4251613,127.362525 73.4150043,127.362525 Z M64.3832591,127.486254 L64.3788766,124.952618 C64.3788766,123.209329 65.8864427,121.791234 67.7424144,121.789176 C69.5983861,121.789176 71.1081435,123.207271 71.1081435,124.948502 L71.1125259,127.482137 L64.3832591,127.486254 Z" id="Shape" fill-rule="nonzero"></path>
                    <path d="M133.033684,67.1603806 L132.49245,67.1603806 L132.490259,64.6267453 C132.488067,61.8667087 130.097436,59.6212204 127.158996,59.6232786 C124.220557,59.6253368 121.829925,61.8708251 121.832117,64.6308617 L121.836499,67.164497 L121.643671,67.164497 C120.633514,67.1665552 119.813994,67.9363193 119.816185,68.8851462 L119.816185,76.4284228 C119.816185,77.3772497 120.637896,78.1470138 121.648053,78.1470138 L133.038066,78.1408392 C134.048223,78.1408392 134.867743,77.3710751 134.865552,76.4222482 L134.865552,68.8769134 C134.865552,67.9280865 134.043841,67.1603806 133.033684,67.1603806 Z M124.001938,67.2841096 L123.997556,64.7504743 C123.997556,63.007185 125.505122,61.5890901 127.361094,61.587032 C129.217065,61.587032 130.726823,63.0051268 130.726823,64.7463579 L130.731205,67.2799932 L124.001938,67.2841096 Z" id="Shape" fill-rule="nonzero"></path>
                    <path d="M13.2175028,67.1603806 L12.6762691,67.1603806 L12.6740778,64.6267453 C12.6718866,61.8667087 10.2812548,59.6212204 7.34281561,59.6232786 C4.40437638,59.6253368 2.01374462,61.8708251 2.01593585,64.6308617 L2.0203183,67.164497 L1.82749008,67.164497 C0.817333118,67.1665552 -0.00218684589,67.9363193 4.38395673e-06,68.8851462 L4.38395673e-06,76.4284228 C4.38395673e-06,77.3772497 0.821715577,78.1470138 1.83187254,78.1470138 L13.2218853,78.1408392 C14.2320423,78.1408392 15.0515622,77.3710751 15.049371,76.4222482 L15.049371,68.8769134 C15.049371,67.9280865 14.2276598,67.1603806 13.2175028,67.1603806 Z M4.18575757,67.2841096 L4.18137511,64.7504743 C4.18137511,63.007185 5.68894125,61.5890901 7.54491293,61.587032 C9.40088461,61.587032 10.910642,63.0051268 10.910642,64.7463579 L10.9150244,67.2799932 L4.18575757,67.2841096 Z" id="Shape" fill-rule="nonzero"></path>
                    <rect id="Rectangle" transform="translate(97.538882, 39.694454) rotate(45.000000) translate(-97.538882, -39.694454) " x="73.4295224" y="38.5952234" width="48.2187197" height="2.19846209" rx="1.09923104"></rect>
                    <rect id="Rectangle" transform="translate(36.184110, 39.775553) scale(1, -1) rotate(45.000000) translate(-36.184110, -39.775553) " x="12.0747503" y="38.6763218" width="48.2187197" height="2.19846209" rx="1.09923104"></rect>
                    <g id="Group" transform="translate(97.370606, 98.452010) rotate(-270.000000) translate(-97.370606, -98.452010) translate(79.370606, 80.452010)">
                        <rect id="Rectangle" transform="translate(17.990233, 17.954107) rotate(45.000000) translate(-17.990233, -17.954107) " x="-6.11912687" y="16.854876" width="48.2187197" height="2.19846209" rx="1.09923104"></rect>
                    </g>
                    <g id="Group" transform="translate(36.179337, 98.432484) scale(1, -1) rotate(-270.000000) translate(-36.179337, -98.432484) translate(18.179337, 80.432484)">
                        <rect id="Rectangle" transform="translate(17.990233, 17.954107) rotate(45.000000) translate(-17.990233, -17.954107) " x="-6.11912687" y="16.854876" width="48.2187197" height="2.19846209" rx="1.09923104"></rect>
                    </g>
                </g>
                <g transform="translate(598.502082, 239.650842)">
                    <path d="M73.4150043,7.53710344 L72.8737705,7.53710344 L72.8715793,5.00346811 C72.8693881,2.24343156 70.4787563,-0.00205677904 67.5403171,1.41376035e-06 C64.6018779,0.00205960656 62.2112461,2.24754795 62.2134373,5.00758449 L62.2178198,7.54121983 L62.0249916,7.54121983 C61.0148346,7.54327802 60.1953146,8.31304213 60.1975059,9.26186901 L60.1975059,16.8051456 C60.1975059,17.7539725 61.0192171,18.5237366 62.029374,18.5237366 L73.4193868,18.517562 C74.4295437,18.517562 75.2490637,17.7477979 75.2468725,16.798971 L75.2468725,9.25363624 C75.2468725,8.30480936 74.4251613,7.53710344 73.4150043,7.53710344 Z M64.3832591,7.66083244 L64.3788766,5.1271971 C64.3788766,3.3839078 65.8864427,1.96581296 67.7424144,1.96375477 C69.5983861,1.96375477 71.1081435,3.38184961 71.1081435,5.12308072 L71.1125259,7.65671605 L64.3832591,7.66083244 Z" id="Shape" fill-rule="nonzero"></path>
                    <path d="M73.4150043,127.362525 L72.8737705,127.362525 L72.8715793,124.828889 C72.8693881,122.068853 70.4787563,119.823364 67.5403171,119.825423 C64.6018779,119.827481 62.2112461,122.072969 62.2134373,124.833006 L62.2178198,127.366641 L62.0249916,127.366641 C61.0148346,127.368699 60.1953146,128.138463 60.1975059,129.08729 L60.1975059,136.630567 C60.1975059,137.579394 61.0192171,138.349158 62.029374,138.349158 L73.4193868,138.342983 C74.4295437,138.342983 75.2490637,137.573219 75.2468725,136.624392 L75.2468725,129.079057 C75.2468725,128.13023 74.4251613,127.362525 73.4150043,127.362525 Z M64.3832591,127.486254 L64.3788766,124.952618 C64.3788766,123.209329 65.8864427,121.791234 67.7424144,121.789176 C69.5983861,121.789176 71.1081435,123.207271 71.1081435,124.948502 L71.1125259,127.482137 L64.3832591,127.486254 Z" id="Shape" fill-rule="nonzero"></path>
                    <path d="M133.033684,67.1603806 L132.49245,67.1603806 L132.490259,64.6267453 C132.488067,61.8667087 130.097436,59.6212204 127.158996,59.6232786 C124.220557,59.6253368 121.829925,61.8708251 121.832117,64.6308617 L121.836499,67.164497 L121.643671,67.164497 C120.633514,67.1665552 119.813994,67.9363193 119.816185,68.8851462 L119.816185,76.4284228 C119.816185,77.3772497 120.637896,78.1470138 121.648053,78.1470138 L133.038066,78.1408392 C134.048223,78.1408392 134.867743,77.3710751 134.865552,76.4222482 L134.865552,68.8769134 C134.865552,67.9280865 134.043841,67.1603806 133.033684,67.1603806 Z M124.001938,67.2841096 L123.997556,64.7504743 C123.997556,63.007185 125.505122,61.5890901 127.361094,61.587032 C129.217065,61.587032 130.726823,63.0051268 130.726823,64.7463579 L130.731205,67.2799932 L124.001938,67.2841096 Z" id="Shape" fill-rule="nonzero"></path>
                    <path d="M13.2175028,67.1603806 L12.6762691,67.1603806 L12.6740778,64.6267453 C12.6718866,61.8667087 10.2812548,59.6212204 7.34281561,59.6232786 C4.40437638,59.6253368 2.01374462,61.8708251 2.01593585,64.6308617 L2.0203183,67.164497 L1.82749008,67.164497 C0.817333118,67.1665552 -0.00218684589,67.9363193 4.38395673e-06,68.8851462 L4.38395673e-06,76.4284228 C4.38395673e-06,77.3772497 0.821715577,78.1470138 1.83187254,78.1470138 L13.2218853,78.1408392 C14.2320423,78.1408392 15.0515622,77.3710751 15.049371,76.4222482 L15.049371,68.8769134 C15.049371,67.9280865 14.2276598,67.1603806 13.2175028,67.1603806 Z M4.18575757,67.2841096 L4.18137511,64.7504743 C4.18137511,63.007185 5.68894125,61.5890901 7.54491293,61.587032 C9.40088461,61.587032 10.910642,63.0051268 10.910642,64.7463579 L10.9150244,67.2799932 L4.18575757,67.2841096 Z" id="Shape" fill-rule="nonzero"></path>
                    <rect id="Rectangle" transform="translate(97.538882, 39.694454) rotate(45.000000) translate(-97.538882, -39.694454) " x="73.4295224" y="38.5952234" width="48.2187197" height="2.19846209" rx="1.09923104"></rect>
                    <rect id="Rectangle" transform="translate(36.184110, 39.775553) scale(1, -1) rotate(45.000000) translate(-36.184110, -39.775553) " x="12.0747503" y="38.6763218" width="48.2187197" height="2.19846209" rx="1.09923104"></rect>
                    <g id="Group" transform="translate(97.370606, 98.452010) rotate(-270.000000) translate(-97.370606, -98.452010) translate(79.370606, 80.452010)">
                        <rect id="Rectangle" transform="translate(17.990233, 17.954107) rotate(45.000000) translate(-17.990233, -17.954107) " x="-6.11912687" y="16.854876" width="48.2187197" height="2.19846209" rx="1.09923104"></rect>
                    </g>
                    <g id="Group" transform="translate(36.179337, 98.432484) scale(1, -1) rotate(-270.000000) translate(-36.179337, -98.432484) translate(18.179337, 80.432484)">
                        <rect id="Rectangle" transform="translate(17.990233, 17.954107) rotate(45.000000) translate(-17.990233, -17.954107) " x="-6.11912687" y="16.854876" width="48.2187197" height="2.19846209" rx="1.09923104"></rect>
                    </g>
                </g>
                <g transform="translate(718.318263, 239.650842)">
                    <path d="M73.4150043,7.53710344 L72.8737705,7.53710344 L72.8715793,5.00346811 C72.8693881,2.24343156 70.4787563,-0.00205677904 67.5403171,1.41376035e-06 C64.6018779,0.00205960656 62.2112461,2.24754795 62.2134373,5.00758449 L62.2178198,7.54121983 L62.0249916,7.54121983 C61.0148346,7.54327802 60.1953146,8.31304213 60.1975059,9.26186901 L60.1975059,16.8051456 C60.1975059,17.7539725 61.0192171,18.5237366 62.029374,18.5237366 L73.4193868,18.517562 C74.4295437,18.517562 75.2490637,17.7477979 75.2468725,16.798971 L75.2468725,9.25363624 C75.2468725,8.30480936 74.4251613,7.53710344 73.4150043,7.53710344 Z M64.3832591,7.66083244 L64.3788766,5.1271971 C64.3788766,3.3839078 65.8864427,1.96581296 67.7424144,1.96375477 C69.5983861,1.96375477 71.1081435,3.38184961 71.1081435,5.12308072 L71.1125259,7.65671605 L64.3832591,7.66083244 Z" id="Shape" fill-rule="nonzero"></path>
                    <path d="M73.4150043,127.362525 L72.8737705,127.362525 L72.8715793,124.828889 C72.8693881,122.068853 70.4787563,119.823364 67.5403171,119.825423 C64.6018779,119.827481 62.2112461,122.072969 62.2134373,124.833006 L62.2178198,127.366641 L62.0249916,127.366641 C61.0148346,127.368699 60.1953146,128.138463 60.1975059,129.08729 L60.1975059,136.630567 C60.1975059,137.579394 61.0192171,138.349158 62.029374,138.349158 L73.4193868,138.342983 C74.4295437,138.342983 75.2490637,137.573219 75.2468725,136.624392 L75.2468725,129.079057 C75.2468725,128.13023 74.4251613,127.362525 73.4150043,127.362525 Z M64.3832591,127.486254 L64.3788766,124.952618 C64.3788766,123.209329 65.8864427,121.791234 67.7424144,121.789176 C69.5983861,121.789176 71.1081435,123.207271 71.1081435,124.948502 L71.1125259,127.482137 L64.3832591,127.486254 Z" id="Shape" fill-rule="nonzero"></path>
                    <path d="M133.033684,67.1603806 L132.49245,67.1603806 L132.490259,64.6267453 C132.488067,61.8667087 130.097436,59.6212204 127.158996,59.6232786 C124.220557,59.6253368 121.829925,61.8708251 121.832117,64.6308617 L121.836499,67.164497 L121.643671,67.164497 C120.633514,67.1665552 119.813994,67.9363193 119.816185,68.8851462 L119.816185,76.4284228 C119.816185,77.3772497 120.637896,78.1470138 121.648053,78.1470138 L133.038066,78.1408392 C134.048223,78.1408392 134.867743,77.3710751 134.865552,76.4222482 L134.865552,68.8769134 C134.865552,67.9280865 134.043841,67.1603806 133.033684,67.1603806 Z M124.001938,67.2841096 L123.997556,64.7504743 C123.997556,63.007185 125.505122,61.5890901 127.361094,61.587032 C129.217065,61.587032 130.726823,63.0051268 130.726823,64.7463579 L130.731205,67.2799932 L124.001938,67.2841096 Z" id="Shape" fill-rule="nonzero"></path>
                    <path d="M13.2175028,67.1603806 L12.6762691,67.1603806 L12.6740778,64.6267453 C12.6718866,61.8667087 10.2812548,59.6212204 7.34281561,59.6232786 C4.40437638,59.6253368 2.01374462,61.8708251 2.01593585,64.6308617 L2.0203183,67.164497 L1.82749008,67.164497 C0.817333118,67.1665552 -0.00218684589,67.9363193 4.38395673e-06,68.8851462 L4.38395673e-06,76.4284228 C4.38395673e-06,77.3772497 0.821715577,78.1470138 1.83187254,78.1470138 L13.2218853,78.1408392 C14.2320423,78.1408392 15.0515622,77.3710751 15.049371,76.4222482 L15.049371,68.8769134 C15.049371,67.9280865 14.2276598,67.1603806 13.2175028,67.1603806 Z M4.18575757,67.2841096 L4.18137511,64.7504743 C4.18137511,63.007185 5.68894125,61.5890901 7.54491293,61.587032 C9.40088461,61.587032 10.910642,63.0051268 10.910642,64.7463579 L10.9150244,67.2799932 L4.18575757,67.2841096 Z" id="Shape" fill-rule="nonzero"></path>
                    <rect id="Rectangle" transform="translate(97.538882, 39.694454) rotate(45.000000) translate(-97.538882, -39.694454) " x="73.4295224" y="38.5952234" width="48.2187197" height="2.19846209" rx="1.09923104"></rect>
                    <rect id="Rectangle" transform="translate(36.184110, 39.775553) scale(1, -1) rotate(45.000000) translate(-36.184110, -39.775553) " x="12.0747503" y="38.6763218" width="48.2187197" height="2.19846209" rx="1.09923104"></rect>
                    <g id="Group" transform="translate(97.370606, 98.452010) rotate(-270.000000) translate(-97.370606, -98.452010) translate(79.370606, 80.452010)">
                        <rect id="Rectangle" transform="translate(17.990233, 17.954107) rotate(45.000000) translate(-17.990233, -17.954107) " x="-6.11912687" y="16.854876" width="48.2187197" height="2.19846209" rx="1.09923104"></rect>
                    </g>
                    <g id="Group" transform="translate(36.179337, 98.432484) scale(1, -1) rotate(-270.000000) translate(-36.179337, -98.432484) translate(18.179337, 80.432484)">
                        <rect id="Rectangle" transform="translate(17.990233, 17.954107) rotate(45.000000) translate(-17.990233, -17.954107) " x="-6.11912687" y="16.854876" width="48.2187197" height="2.19846209" rx="1.09923104"></rect>
                    </g>
                </g>
                <g transform="translate(838.134444, 239.650842)">
                    <path d="M73.4150043,7.53710344 L72.8737705,7.53710344 L72.8715793,5.00346811 C72.8693881,2.24343156 70.4787563,-0.00205677904 67.5403171,1.41376035e-06 C64.6018779,0.00205960656 62.2112461,2.24754795 62.2134373,5.00758449 L62.2178198,7.54121983 L62.0249916,7.54121983 C61.0148346,7.54327802 60.1953146,8.31304213 60.1975059,9.26186901 L60.1975059,16.8051456 C60.1975059,17.7539725 61.0192171,18.5237366 62.029374,18.5237366 L73.4193868,18.517562 C74.4295437,18.517562 75.2490637,17.7477979 75.2468725,16.798971 L75.2468725,9.25363624 C75.2468725,8.30480936 74.4251613,7.53710344 73.4150043,7.53710344 Z M64.3832591,7.66083244 L64.3788766,5.1271971 C64.3788766,3.3839078 65.8864427,1.96581296 67.7424144,1.96375477 C69.5983861,1.96375477 71.1081435,3.38184961 71.1081435,5.12308072 L71.1125259,7.65671605 L64.3832591,7.66083244 Z" id="Shape" fill-rule="nonzero"></path>
                    <path d="M73.4150043,127.362525 L72.8737705,127.362525 L72.8715793,124.828889 C72.8693881,122.068853 70.4787563,119.823364 67.5403171,119.825423 C64.6018779,119.827481 62.2112461,122.072969 62.2134373,124.833006 L62.2178198,127.366641 L62.0249916,127.366641 C61.0148346,127.368699 60.1953146,128.138463 60.1975059,129.08729 L60.1975059,136.630567 C60.1975059,137.579394 61.0192171,138.349158 62.029374,138.349158 L73.4193868,138.342983 C74.4295437,138.342983 75.2490637,137.573219 75.2468725,136.624392 L75.2468725,129.079057 C75.2468725,128.13023 74.4251613,127.362525 73.4150043,127.362525 Z M64.3832591,127.486254 L64.3788766,124.952618 C64.3788766,123.209329 65.8864427,121.791234 67.7424144,121.789176 C69.5983861,121.789176 71.1081435,123.207271 71.1081435,124.948502 L71.1125259,127.482137 L64.3832591,127.486254 Z" id="Shape" fill-rule="nonzero"></path>
                    <path d="M13.2175028,67.1603806 L12.6762691,67.1603806 L12.6740778,64.6267453 C12.6718866,61.8667087 10.2812548,59.6212204 7.34281561,59.6232786 C4.40437638,59.6253368 2.01374462,61.8708251 2.01593585,64.6308617 L2.0203183,67.164497 L1.82749008,67.164497 C0.817333118,67.1665552 -0.00218684589,67.9363193 4.38395673e-06,68.8851462 L4.38395673e-06,76.4284228 C4.38395673e-06,77.3772497 0.821715577,78.1470138 1.83187254,78.1470138 L13.2218853,78.1408392 C14.2320423,78.1408392 15.0515622,77.3710751 15.049371,76.4222482 L15.049371,68.8769134 C15.049371,67.9280865 14.2276598,67.1603806 13.2175028,67.1603806 Z M4.18575757,67.2841096 L4.18137511,64.7504743 C4.18137511,63.007185 5.68894125,61.5890901 7.54491293,61.587032 C9.40088461,61.587032 10.910642,63.0051268 10.910642,64.7463579 L10.9150244,67.2799932 L4.18575757,67.2841096 Z" id="Shape" fill-rule="nonzero"></path>
                    <rect id="Rectangle" transform="translate(97.538882, 39.694454) rotate(45.000000) translate(-97.538882, -39.694454) " x="73.4295224" y="38.5952234" width="48.2187197" height="2.19846209" rx="1.09923104"></rect>
                    <rect id="Rectangle" transform="translate(36.184110, 39.775553) scale(1, -1) rotate(45.000000) translate(-36.184110, -39.775553) " x="12.0747503" y="38.6763218" width="48.2187197" height="2.19846209" rx="1.09923104"></rect>
                    <g id="Group" transform="translate(97.370606, 98.452010) rotate(-270.000000) translate(-97.370606, -98.452010) translate(79.370606, 80.452010)">
                        <rect id="Rectangle" transform="translate(17.990233, 17.954107) rotate(45.000000) translate(-17.990233, -17.954107) " x="-6.11912687" y="16.854876" width="48.2187197" height="2.19846209" rx="1.09923104"></rect>
                    </g>
                    <g id="Group" transform="translate(36.179337, 98.432484) scale(1, -1) rotate(-270.000000) translate(-36.179337, -98.432484) translate(18.179337, 80.432484)">
                        <rect id="Rectangle" transform="translate(17.990233, 17.954107) rotate(45.000000) translate(-17.990233, -17.954107) " x="-6.11912687" y="16.854876" width="48.2187197" height="2.19846209" rx="1.09923104"></rect>
                    </g>
                </g>
            </g>
        </g>
    </g>
</svg>