<svg width="21" height="21" xmlns="http://www.w3.org/2000/svg"><g fill="#0A9FD3" fill-rule="nonzero"><path d="M10.5 21C4.71 21 0 16.29 0 10.5S4.71 0 10.5 0 21 4.71 21 10.5 16.29 21 10.5 21zm0-19.06c-4.72 0-8.56 3.84-8.56 8.56 0 4.72 3.84 8.56 8.56 8.56 4.72 0 8.56-3.84 8.56-8.56 0-4.72-3.84-8.56-8.56-8.56z"/><path d="M15.466 9.466h-3.932V5.534a1.034 1.034 0 1 0-2.068 0v3.932H5.534a1.034 1.034 0 1 0 0 2.068h3.932v3.932a1.034 1.034 0 1 0 2.068 0v-3.932h3.932a1.034 1.034 0 0 0 0-2.068z"/></g></svg>
