<svg width="150" height="22" viewBox="0 0 150 22" xmlns="http://www.w3.org/2000/svg"><title>Group 5</title><g fill="#0A9FD3" fill-rule="evenodd"><path d="M11 0l3.694 6.816L22 8.403l-5.024 5.8.822 7.797L11 18.768 4.202 22l.822-7.797L0 8.403l7.306-1.587zM43 0l3.694 6.816L54 8.403l-5.024 5.8.822 7.797L43 18.768 36.202 22l.822-7.797L32 8.403l7.306-1.587zM75 0l3.694 6.816L86 8.403l-5.024 5.8.822 7.797L75 18.768 68.202 22l.822-7.797L64 8.403l7.306-1.587zM107 0l3.694 6.816L118 8.403l-5.024 5.8.822 7.797L107 18.768 100.202 22l.822-7.797L96 8.403l7.306-1.587zM139 0l3.694 6.816L150 8.403l-5.024 5.8.822 7.797L139 18.768 132.202 22l.822-7.797-5.024-5.8 7.306-1.587z"/></g></svg>