<svg width="33" height="30" viewBox="0 0 33 30" xmlns="http://www.w3.org/2000/svg"><title>Fill 1523</title><path d="M33 4.205a13 13 0 0 1-3.888 1.124c1.398-.884 2.47-2.284 2.976-3.951a13.08 13.08 0 0 1-4.3 1.732C26.555 1.724 24.795.857 22.849.857c-3.738 0-6.768 3.196-6.768 7.14 0 .56.058 1.104.174 1.628-5.626-.297-10.615-3.14-13.954-7.46a7.402 7.402 0 0 0-.916 3.59c0 2.477 1.194 4.662 3.01 5.941a6.453 6.453 0 0 1-3.066-.892v.091c0 3.46 2.333 6.344 5.43 7a6.53 6.53 0 0 1-3.06.125c.864 2.836 3.364 4.9 6.326 4.958-2.318 1.915-5.237 3.058-8.408 3.058C1.07 26.036.53 26 0 25.933c2.997 2.027 6.555 3.21 10.377 3.21 12.452 0 19.262-10.88 19.262-20.314 0-.31-.007-.617-.021-.924A14.213 14.213 0 0 0 33 4.205" fill="#FFF" fill-rule="evenodd"/></svg>