<?xml version="1.0" encoding="utf-8"?>
<!-- Designed by Vexels.com - 2016 All Rights Reserved - https://vexels.com/terms-and-conditions/  -->

<svg version="1.1" id="Layer_1" xmlns="http://www.w3.org/2000/svg" xmlns:xlink="http://www.w3.org/1999/xlink" x="0px" y="0px"
	 width="1200px" height="1200px" viewBox="0 0 1200 1200" enable-background="new 0 0 1200 1200" xml:space="preserve">
<path fill="#909090" d="M981.628,880.598c0,0-89.317-42.092-158.219-96.093c-2.01-36.627-31.417-39.553-84.525-57.256
	c-3.869-1.29-2.579-30.947-2.579-30.947c14.183-38.679,39.812-70.375,51.564-166.781c27.931-3.723,31.822-25.553,37.409-59.072
	c5.587-33.516-16.825-46.732-16.825-46.732s13.353-42.979,5.905-85.806c-7.449-42.829,7.182-179.643-215.272-192.731
	c0,0-114.992-9.935-178.551,89.14c-37.795,58.917-43.903,135.186-27.08,195.005c-14.897,1.865-20.534,20.674-13.085,48.605
	c7.45,27.932,16.823,44.865,16.823,44.865s1.137,20.927,17.895,15.339c5.58,18.138,5.855,48.486,31.987,102.116
	c19.685,45.521,30.069,63.74,30.069,68.898c2.577,11.607,1.584,20.475-1.29,20.678c-36.102,2.577-80.469,27.057-80.469,27.057
	l-1.862,27.932c-176.127,99.723-150.354,98.335-206.736,111.727c0,0-117.575,27.547-136.787,158.555h1100
	C1138.494,920.507,981.628,880.598,981.628,880.598z"/>
</svg>
