<svg xmlns="http://www.w3.org/2000/svg" data-name="Layer 1" viewBox="0 0 100 100" fill="#afafaf"><title>Artboard 42</title><path d="M50 2a48 48 0 1 0 48 48A48 48 0 0 0 50 2zM14.54 56H27a65.15 65.15 0 0 0 8.69 27 36.08 36.08 0 0 1-21.15-27zM27 44H14.54a36.08 36.08 0 0 1 21.15-27A65.15 65.15 0 0 0 27 44zm23 38.91A53.09 53.09 0 0 1 39 56h22a53.09 53.09 0 0 1-11 26.91zM39 44a53.09 53.09 0 0 1 11-26.91A53.09 53.09 0 0 1 61 44zm25.31 39A65.15 65.15 0 0 0 73 56h12.46a36.08 36.08 0 0 1-21.15 27zM73 44a65.15 65.15 0 0 0-8.69-27 36.08 36.08 0 0 1 21.15 27z"/></svg>