<svg xmlns="http://www.w3.org/2000/svg" xmlns:xlink="http://www.w3.org/1999/xlink" width="24" height="24" viewBox="0 0 24 24">
  <defs>
    <rect id="faithlife-a" width="24" height="24" rx="6"/>
  </defs>
  <g fill="none" fill-rule="evenodd">
    <mask id="faithlife-b" fill="#fff">
      <use xlink:href="#faithlife-a"/>
    </mask>
    <use fill="#D8D8D8" xlink:href="#faithlife-a"/>
    <rect width="24" height="8" fill="#8CD86C" mask="url(#faithlife-b)"/>
    <rect width="24" height="8" y="8" fill="#62B946" mask="url(#faithlife-b)"/>
    <rect width="24" height="8" y="16" fill="#42991D" mask="url(#faithlife-b)"/>
    <path fill="#FFF" d="M12.7322639,20.3790123 C12.7235998,20.4018855 12.6935644,20.4072572 12.6770449,20.3891782 C12.4460033,20.1359565 11.0994923,18.699397 9.08671491,17.3380994 C7.93121768,16.5244861 7.47883806,16.0210463 7.34783742,15.8577576 C7.32987393,15.8354043 7.3471443,15.8026542 7.37579347,15.8042137 C7.51020197,15.8117803 7.82164616,15.8231013 8.21638088,15.7972824 C8.24167994,15.7956074 8.25594677,15.7674203 8.24208427,15.7462222 C8.07273071,15.4873978 7.25853981,14.1987628 7.2000285,12.7556186 C7.19898882,12.7299153 7.2265983,12.7128759 7.2490671,12.7254099 C7.37255888,12.7944336 7.70941766,12.9707185 8.13840431,13.0974448 C8.16243265,13.1045493 8.18536353,13.083409 8.18022285,13.0589186 C8.11674415,12.7586222 7.8304835,11.2515373 8.12009426,9.72284995 C8.12517717,9.69610688 8.15890926,9.68634537 8.17733483,9.70638823 C8.26316682,9.79996012 8.47838215,10.0094572 8.85723275,10.2286002 C8.87502296,10.2388816 8.89812713,10.2307373 8.9048851,10.2113298 C8.99701297,9.94805784 9.58414766,8.34878729 10.5747389,7.39002205 C10.5941464,7.37124992 10.62655,7.38285976 10.630651,7.40960284 C11.0637964,10.2362246 13.5204626,10.88008 14.6820825,13.3699585 C15.4613283,15.0403321 14.4744337,15.9576831 14.1493003,16.202183 C14.122615,16.2222836 14.1391923,16.2645642 14.1724623,16.2618495 C16.0264563,16.1124233 16.7939767,14.4425695 16.9948675,13.9111736 C17.0077481,13.8771527 17.0580574,13.8858168 17.0592704,13.9220904 C17.1898089,17.8584631 13.9736509,18.0922773 13.4635108,18.1071217 C13.4205949,18.1083924 13.3780254,18.0986309 13.3400768,18.0784725 C10.4323017,16.5377133 10.4463375,13.4665917 10.4763729,12.8859839 C10.4772971,12.8679627 10.4521135,12.8625332 10.4451823,12.8792259 C8.98372808,16.3906552 11.5002919,18.3755344 12.3967336,19.2433847 C12.7560034,19.5912757 12.9151334,19.8996008 12.7322639,20.3790123 Z M13.2021449,3.61231721 C13.2255379,3.58574742 13.2694936,3.60538596 13.2651616,3.64056206 C13.1993147,4.17680981 13.051217,6.43691734 14.8719987,8.40106047 C16.9193169,10.5925486 16.6968237,12.2641352 15.9670785,13.8174862 C15.9504435,13.8529511 15.8967264,13.8404749 15.8979971,13.8013133 C15.911513,13.3831279 15.797725,12.5164905 14.37214,10.95049 C12.1159602,8.47216355 10.5341333,6.64739631 13.2021449,3.61231721 Z" mask="url(#faithlife-b)"/>
  </g>
</svg>
