<svg xmlns="http://www.w3.org/2000/svg" width="24" height="24" viewBox="0 0 24 24">
  <g fill="none" fill-rule="evenodd">
    <rect width="24" height="24" fill="#fff" rx="2"/>
    <path fill="#1da1f2" d="M12.1778292,9.3458906 L12.2131879,9.92893859 L11.6238766,9.85754496 C9.47878338,9.58386937 7.6047734,8.65575216 6.01363285,7.09699119 L5.23574192,6.32356018 L5.03537607,6.89470923 C4.61107192,8.16789567 4.88215513,9.51247574 5.7661221,10.4167951 C6.23757115,10.9165505 6.13149512,10.9879441 5.3182455,10.6904707 C5.03537607,10.5952792 4.78786532,10.5238855 4.76429286,10.5595823 C4.68178928,10.6428749 4.96465871,11.7256783 5.18859701,12.1540401 C5.4950389,12.7489871 6.11970889,13.3320351 6.80331001,13.6771043 L7.3808351,13.9507799 L6.69723398,13.9626788 C6.0372053,13.9626788 6.01363285,13.9745777 6.08435021,14.2244555 C6.32007474,14.9978865 7.25118661,15.8189132 8.28837453,16.1758814 L9.01912056,16.4257591 L8.38266434,16.8065251 C7.43976623,17.3538763 6.33186096,17.6632487 5.22395569,17.6870466 C4.69357551,17.6989455 4.25748513,17.7465413 4.25748513,17.7822381 C4.25748513,17.9012275 5.69540474,18.5675681 6.53222681,18.8293447 C9.04269301,19.6027757 12.0246083,19.2696054 14.2639913,17.9488233 C15.8551318,17.0088071 17.4462724,15.1406737 18.1888046,13.3320351 C18.5895363,12.368221 18.990268,10.6071781 18.990268,9.76235345 C18.990268,9.21500227 19.0256267,9.14360864 19.6856554,8.48916702 C20.0746008,8.10840098 20.4399738,7.69193813 20.5106912,7.57294874 C20.6285535,7.3468689 20.6167672,7.3468689 20.0156697,7.54915086 C19.0138405,7.90611902 18.8724057,7.85852327 19.3674272,7.32307103 C19.7328003,6.94230499 20.1688906,6.25216655 20.1688906,6.04988459 C20.1688906,6.01418777 19.9920972,6.07368247 19.7917314,6.18077292 C19.5795793,6.2997623 19.1081303,6.47824638 18.7545435,6.58533683 L18.1180873,6.78761879 L17.5405622,6.39495381 C17.2223341,6.18077292 16.7744575,5.94279414 16.5387329,5.87140051 C15.9376354,5.70481537 15.0183097,5.72861325 14.4761433,5.91899626 C13.002865,6.4544485 12.0717532,7.83472539 12.1778292,9.3458906 Z"/>
  </g>
</svg>
