<?xml version="1.0" encoding="utf-8"?>
<!-- Generator: Adobe Illustrator 21.0.2, SVG Export Plug-In . SVG Version: 6.00 Build 0)  -->
<svg version="1.1" id="Layer_1" xmlns="http://www.w3.org/2000/svg" xmlns:xlink="http://www.w3.org/1999/xlink" x="0px" y="0px"
	 viewBox="0 0 54 54" style="enable-background:new 0 0 54 54;" xml:space="preserve">
<style type="text/css">
	.st0{fill:#FFD03F;}
	.st1{fill:#F6809A;}
	.st2{fill:#664500;}
</style>
<g id="icon_1_">
	<path class="st0" d="M27,0C12.1,0,0,12.1,0,27s12.1,27,27,27s27-12.1,27-27S41.9,0,27,0z"/>
</g>
<circle class="st1" cx="10.8" cy="27" r="7.5"/>
<circle class="st1" cx="41.7" cy="27" r="7.5"/>
<g id="icon">
	<path class="st2" d="M10.9,33.5C11,33.7,15,42.1,27,42.1s16-8.4,16.1-8.6c0.1-0.3-0.1-0.6-0.5-0.8c-0.4-0.2-0.9-0.1-1.3,0.1
		c0,0-4.2,4.8-14.3,4.8s-14.3-4.8-14.3-4.8c-0.2-0.1-0.5-0.2-0.8-0.2c-0.2,0-0.4,0-0.5,0.1C11,32.8,10.7,33.1,10.9,33.5z"/>
</g>
<g>
	<path class="st2" d="M25.2,20.9c0-0.2-1.8-3.9-7.2-3.9s-7.1,3.8-7.2,3.9c-0.1,0.2,0,0.4,0.2,0.5c0.2,0.1,0.4,0.1,0.6-0.1
		c0,0,1.9-1.7,6.4-1.7s6.3,1.7,6.4,1.7c0.1,0.1,0.2,0.1,0.3,0.1c0.1,0,0.2,0,0.2-0.1C25.1,21.3,25.2,21.1,25.2,20.9z"/>
	<path class="st2" d="M43.2,20.9c0-0.2-1.8-3.9-7.2-3.9s-7.1,3.8-7.2,3.9c-0.1,0.2,0,0.4,0.2,0.5c0.2,0.1,0.4,0.1,0.6-0.1
		c0,0,1.9-1.7,6.4-1.7s6.3,1.7,6.4,1.7c0.1,0.1,0.2,0.1,0.3,0.1c0.1,0,0.2,0,0.2-0.1C43.1,21.3,43.2,21.1,43.2,20.9z"/>
</g>
</svg>
