<?xml version="1.0" encoding="utf-8"?>
<!-- Generator: Adobe Illustrator 21.0.2, SVG Export Plug-In . SVG Version: 6.00 Build 0)  -->
<svg version="1.1" id="Layer_1" xmlns="http://www.w3.org/2000/svg" xmlns:xlink="http://www.w3.org/1999/xlink" x="0px" y="0px"
	 viewBox="0 0 54 54" style="enable-background:new 0 0 54 54;" xml:space="preserve">
<style type="text/css">
	.st0{fill:#FFD03F;}
	.st1{fill:#664500;}
</style>
<g id="icon_1_">
	<path class="st0" d="M27,0C12.1,0,0,12.1,0,27s12.1,27,27,27s27-12.1,27-27S41.9,0,27,0z"/>
</g>
<g>
	<path class="st1" d="M10,29.3c0,0,2.6-2.8,6.4-3.8c3.8-1,7.4,0.3,7.5,0.3c0.2,0.1,0.4,0,0.5-0.2c0.1-0.2,0.1-0.4-0.1-0.6
		c-0.1-0.2-3.8-4.2-8.8-3c-4.9,1.3-6.2,6.6-6.3,6.8c-0.1,0.2,0,0.4,0.2,0.5C9.7,29.5,9.9,29.5,10,29.3z"/>
	<path class="st1" d="M44.5,29.4c0.2-0.1,0.3-0.3,0.2-0.5c-0.1-0.2-1.3-5.5-6.3-6.8c-4.9-1.3-8.6,2.8-8.8,3
		c-0.1,0.1-0.2,0.4-0.1,0.6c0.1,0.2,0.3,0.2,0.5,0.2c0,0,3.7-1.2,7.5-0.3c3.8,1,6.4,3.8,6.4,3.8C44.1,29.5,44.3,29.5,44.5,29.4z"/>
</g>
<path class="st1" d="M16.7,43.8c0,0,4.6-2.6,10.3-2.6c5.6,0,10.2,2.6,10.3,2.6c0.2,0.2,0.5,0.2,0.8,0c0.2-0.2,0.3-0.6,0.1-0.9
	c-0.2-0.3-3.8-8.6-11.1-8.6c-7.3,0-11,8.3-11.1,8.6c-0.1,0.3-0.1,0.7,0.1,0.9C16.2,44,16.5,44.1,16.7,43.8z"/>
</svg>
