<?xml version="1.0" encoding="utf-8"?>
<!-- Generator: Adobe Illustrator 21.0.2, SVG Export Plug-In . SVG Version: 6.00 Build 0)  -->
<svg version="1.1" id="Layer_1" xmlns="http://www.w3.org/2000/svg" xmlns:xlink="http://www.w3.org/1999/xlink" x="0px" y="0px"
	 viewBox="0 0 54 54" style="enable-background:new 0 0 54 54;" xml:space="preserve">
<style type="text/css">
	.st0{fill:#FFD03F;}
	.st1{fill:#664500;}
</style>
<g id="icon">
	<path class="st0" d="M27,0C12.1,0,0,12.1,0,27s12.1,27,27,27s27-12.1,27-27S41.9,0,27,0z"/>
</g>
<g>
	<path d="M50.8,13.2c-14.2-1.9-18,0.5-23.3,0.5c-0.2,0-0.4,0-0.5,0c-0.2,0-0.3,0-0.5,0c-5.3,0-9.1-2.4-23.3-0.5
		c-0.5,0.1-0.4,1.4-0.3,2c0.1,0.5,1.2,1,1.7,1.3c1.8,1.1,1.1,4.1,2.3,7.8s2.3,3.7,3.9,4c2.4,0.5,4.5,0.2,6.8,0.1
		c3.4-0.2,4.2-1.3,4.9-2.6c0.8-1.5,1.5-3.3,1.8-5.7c0.3-2.4,0.8-3.7,2.8-3.5c0,0,0,0,0.1,0c0,0,0,0,0.1,0c1.9-0.2,2.4,1.1,2.8,3.5
		c0.3,2.4,1.1,4.2,1.8,5.7c0.6,1.2,1.4,2.4,4.9,2.6c2.3,0.1,4.4,0.3,6.8-0.1c1.6-0.3,2.7-0.3,3.9-4s0.5-6.7,2.3-7.8
		c0.5-0.3,1.6-0.8,1.7-1.3C51.2,14.6,51.3,13.3,50.8,13.2z"/>
</g>
<path class="st1" d="M41.7,36.4C41.6,36.4,35,40,27,40s-14.7-3.6-14.7-3.6c-0.3-0.2-0.8-0.2-1.1,0s-0.3,0.6-0.1,0.9
	C11.2,37.7,16.5,46,27,46s15.8-8.3,15.9-8.6c0.2-0.3,0.1-0.7-0.1-0.9C42.5,36.2,42,36.2,41.7,36.4z"/>
</svg>
