<?xml version="1.0" encoding="utf-8"?>
<!-- Generator: Adobe Illustrator 21.1.0, SVG Export Plug-In . SVG Version: 6.00 Build 0)  -->
<svg version="1.1" xmlns="http://www.w3.org/2000/svg" xmlns:xlink="http://www.w3.org/1999/xlink" x="0px" y="0px"
	 viewBox="0 0 300 33" style="enable-background:new 0 0 300 33;" xml:space="preserve">
<style type="text/css">
	.st0{fill:#0CAFC7;}
	.st1{fill:url(#SVGID_1_);}
</style>
<g>
	<g>
		<path class="st0" d="M10.8,19.4L10.8,19.4c-2.8-0.9-5.5-1.7-5.5-3.6v-0.1c0-1.8,1.7-3,4-3c1.7,0,3.7,0.6,5.6,1.7
			c0.1,0.1,0.4,0.2,0.8,0.2c0.9,0,1.6-0.7,1.6-1.6c0-0.9-0.6-1.3-0.9-1.5c-2.2-1.2-4.8-1.9-7-1.9C5,9.7,1.8,12.3,1.8,16v0.1
			c0,4.2,4,5.4,7.3,6.3c2.9,0.8,5.3,1.6,5.3,3.7v0.1c0,2-1.7,3.3-4.3,3.3c-2.3,0-4.6-0.8-6.8-2.3c-0.2-0.2-0.6-0.3-0.9-0.3
			c-0.9,0-1.6,0.7-1.6,1.6c0,0.6,0.3,1.1,0.7,1.3c2.4,1.7,5.6,2.8,8.5,2.8c4.7,0,7.9-2.7,7.9-6.7v-0.1
			C17.8,21.8,14.3,20.4,10.8,19.4z"/>
		<path class="st0" d="M31.1,13.2c0.9,0,1.6-0.7,1.6-1.6c0-0.9-0.8-1.6-1.6-1.6h-5.5V5.1c0-1-0.8-1.8-1.8-1.8c-1,0-1.8,0.8-1.8,1.8
			V10h-1.6c-0.9,0-1.6,0.7-1.6,1.6c0,0.9,0.7,1.6,1.6,1.6h1.6v12.9c0,4.1,2.2,6.3,6.3,6.3c1.2,0,2.3-0.2,3.3-0.6
			c0.6-0.2,1-0.8,1-1.4c0-0.8-0.7-1.6-1.6-1.6c-0.1,0-0.2,0-0.4,0.1c-0.3,0.1-0.8,0.2-1.6,0.2c-2.3,0-3.5-1.1-3.5-3.4V13.2H31.1z"/>
		<path class="st0" d="M44.2,9.7c-2.6,0-4.8,0.5-7.2,1.5c-0.5,0.2-1,0.8-1,1.5c0,0.8,0.7,1.6,1.6,1.6c0.2,0,0.4,0,0.7-0.1
			c1.8-0.8,3.6-1.2,5.6-1.2c4.1,0,6.3,2,6.3,5.7v0.5c-1.6-0.5-3.6-0.9-6.5-0.9c-5.9,0-9.4,2.7-9.4,7.2v0.1c0,4.5,4.2,6.9,8.3,6.9
			c3.9,0,6.3-1.8,7.7-3.4v1.5c0,1,0.7,1.7,1.7,1.7c1,0,1.7-0.8,1.7-1.8V18.6c0-2.8-0.8-4.9-2.3-6.5C49.7,10.6,47.3,9.7,44.2,9.7z
			 M50.2,22v2c0,3.3-3,5.7-7.1,5.7c-3.1,0-5.3-1.7-5.3-4.2v-0.1c0-2.7,2.3-4.3,6.2-4.3C46.1,21.1,48.1,21.4,50.2,22z"/>
		<path class="st0" d="M75.1,26.3c-0.4,0-0.7,0.2-1,0.5c-1.8,1.7-3.8,2.6-5.9,2.6c-4.4,0-7.8-3.6-7.8-8.3V21c0-4.6,3.3-8.2,7.6-8.2
			c2.7,0,4.4,1.3,5.8,2.6c0.3,0.3,0.7,0.4,1.2,0.4c1,0,1.7-0.8,1.7-1.7c0-0.6-0.3-1-0.6-1.3c-2.4-2.2-5-3.2-8.1-3.2
			c-3.1,0-5.9,1.2-8.1,3.4c-2.1,2.2-3.2,5-3.2,8.1v0.1c0,3,1.1,5.9,3.2,8c2.1,2.2,5,3.4,8.1,3.4c3.3,0,5.9-1.1,8.3-3.5
			c0.3-0.3,0.5-0.7,0.5-1.1C76.8,27,76,26.3,75.1,26.3z"/>
		<path class="st0" d="M90.3,19.7l7-6.9c0.4-0.4,0.7-0.8,0.7-1.4c0-0.9-0.7-1.7-1.6-1.7c-0.5,0-1,0.2-1.4,0.7L83.5,22.2V2.7
			c0-1-0.8-1.8-1.8-1.8c-1,0-1.8,0.8-1.8,1.8v27.8c0,1,0.8,1.8,1.8,1.8c1,0,1.8-0.8,1.8-1.8v-4.1l4.3-4.3l7.4,9.3
			c0.5,0.6,0.9,0.8,1.5,0.8c1,0,1.7-0.7,1.7-1.7c0-0.4-0.1-0.8-0.5-1.2L90.3,19.7z"/>
	</g>
	<g>
		<path class="st0" d="M171.7,9.6c-3.2,0-5.7,1.4-7.6,4.2c-1.4-2.7-3.9-4.2-7-4.2c-3.6,0-5.6,1.9-6.8,3.7v-1.7c0-1-0.8-1.8-1.8-1.8
			c-1,0-1.8,0.8-1.8,1.8v18.8c0,1,0.8,1.8,1.8,1.8c1,0,1.8-0.8,1.8-1.8v-11c0-3.9,2.5-6.7,5.9-6.7c3.4,0,5.4,2.4,5.4,6.3v11.3
			c0,1,0.8,1.8,1.8,1.8c1,0,1.8-0.8,1.8-1.8V19.4c0-3.9,2.3-6.5,5.8-6.5c3.5,0,5.5,2.3,5.5,6.4v11.2c0,1,0.8,1.8,1.8,1.8
			c1,0,1.8-0.8,1.8-1.8v-12C179.9,13,176.7,9.6,171.7,9.6z"/>
		<path class="st0" d="M209.5,9.6c-3.2,0-5.7,1.4-7.6,4.2c-1.4-2.7-3.9-4.2-7-4.2c-3.6,0-5.6,1.9-6.8,3.7v-1.7c0-1-0.8-1.8-1.8-1.8
			c-1,0-1.8,0.8-1.8,1.8v18.8c0,1,0.8,1.8,1.8,1.8c1,0,1.8-0.8,1.8-1.8v-11c0-3.9,2.5-6.7,5.9-6.7c3.4,0,5.4,2.4,5.4,6.3v11.3
			c0,1,0.8,1.8,1.8,1.8c1,0,1.8-0.8,1.8-1.8V19.4c0-3.9,2.3-6.5,5.8-6.5c3.5,0,5.5,2.3,5.5,6.4v11.2c0,1,0.8,1.8,1.8,1.8
			c1,0,1.8-0.8,1.8-1.8v-12C217.7,13,214.6,9.6,209.5,9.6z"/>
		<path class="st0" d="M231.5,9.6c-2.9,0-5.6,1.2-7.6,3.4c-1.9,2.1-3,5-3,8.1v0.1c0,6.5,4.7,11.5,11,11.5c3.3,0,5.9-1,8.3-3.3
			c0.4-0.3,0.6-0.7,0.6-1.2c0-0.9-0.7-1.6-1.6-1.6c-0.4,0-0.7,0.1-1,0.4c-1.8,1.7-3.8,2.5-6.1,2.5c-4,0-7-2.8-7.4-7h15.5
			c0.9,0,1.7-0.8,1.7-1.7C241.8,15.2,238.2,9.6,231.5,9.6z M238.2,19.7h-13.6c0.5-4.2,3.3-7,6.9-7C234.4,12.6,237.7,14.5,238.2,19.7
			z"/>
		<path class="st0" d="M255.9,9.7c-2.8,0-5.7,2.1-7.3,5.2v-3.3c0-1-0.8-1.8-1.8-1.8c-1,0-1.8,0.8-1.8,1.8v18.8c0,1,0.8,1.8,1.8,1.8
			c1,0,1.8-0.8,1.8-1.8v-7.4c0-5.5,2.8-9.2,7.5-9.7c0.9-0.1,1.6-0.9,1.6-1.8C257.7,10.5,256.9,9.7,255.9,9.7z"/>
		<path class="st0" d="M276.1,26.3c-0.4,0-0.7,0.2-1,0.5c-1.8,1.7-3.8,2.6-5.9,2.6c-4.4,0-7.8-3.6-7.8-8.3V21c0-4.6,3.3-8.2,7.6-8.2
			c2.7,0,4.4,1.3,5.8,2.6c0.3,0.3,0.7,0.4,1.2,0.4c1,0,1.7-0.8,1.7-1.7c0-0.6-0.3-1-0.6-1.3c-2.4-2.2-5-3.2-8.1-3.2
			c-3.1,0-5.9,1.2-8.1,3.4c-2.1,2.2-3.2,5-3.2,8.1v0.1c0,3,1.1,5.9,3.2,8c2.1,2.2,5,3.4,8.1,3.4c3.3,0,5.9-1.1,8.3-3.5
			c0.3-0.3,0.5-0.7,0.5-1.1C277.7,27,277,26.3,276.1,26.3z"/>
		<path class="st0" d="M299.7,20.7c0-5.5-3.5-11.2-10.2-11.2c-2.9,0-5.6,1.2-7.6,3.4c-1.9,2.1-3,5-3,8.1v0.1c0,6.5,4.7,11.5,11,11.5
			c3.3,0,5.9-1,8.3-3.3c0.4-0.3,0.6-0.7,0.6-1.2c0-0.9-0.7-1.6-1.6-1.6c-0.4,0-0.7,0.1-1,0.4c-1.8,1.7-3.8,2.5-6.1,2.5
			c-4,0-7-2.8-7.4-7H298C299,22.4,299.7,21.7,299.7,20.7z M296.1,19.7h-13.6c0.5-4.2,3.3-7,6.9-7C292.3,12.6,295.6,14.5,296.1,19.7z
			"/>
	</g>
	<g>
		<linearGradient id="SVGID_1_" gradientUnits="userSpaceOnUse" x1="120.5941" y1="21.1172" x2="143.2124" y2="21.1172">
			<stop  offset="0" style="stop-color:#127187"/>
			<stop  offset="0.5983" style="stop-color:#0E9DB4"/>
			<stop  offset="0.83" style="stop-color:#0CAFC7"/>
		</linearGradient>
		<path class="st1" d="M131.9,9.8c-4.4,0-8,2.4-9.9,5.8c-0.5,0.8-0.8,1.7-1,2.7c-0.1,0.2-0.1,0.5-0.2,0.7c-0.1,0.7-0.2,1.3-0.2,2.1
			v0.1c0,1.7,0.4,3.2,1,4.7c1.1-1.7,2-3.9,2.5-6.6l0,0.1l0,0c0.7-3.8,3.7-6.8,7.8-6.8c4.6,0,8.1,3.8,8.1,8.5v0.1
			c0,4.6-3.3,8.4-8,8.4c-3.5,0-6.3-2.2-7.4-5.2c-0.5,1.3-1.1,2.4-1.9,3.4c2,2.8,5.3,4.7,9.2,4.7c6.5,0,11.4-5.2,11.4-11.3V21
			C143.2,14.9,138.4,9.8,131.9,9.8z"/>
		<path class="st0" d="M131.9,9.8c-5.8,0-10.2,4.1-11.1,9.3c-1.7,8.5-7.3,10.1-9.5,10.5c-0.2,0-0.4,0-0.7,0c-0.1,0-0.3,0-0.4,0
			c-0.1,0-0.1,0-0.2,0c-2.5-0.2-4.6-1.5-5.9-3.4c-1-1.4-1.5-3.1-1.5-5h0V21c0-4.7,3.4-8.4,7.8-8.4c2.6,0,4.4,1.2,5.9,2.6
			c0.3,0.2,0.6,0.4,1,0.4c0.8,0,1.6-0.7,1.6-1.6c0-0.5-0.3-0.9-0.5-1.1c-1.9-1.8-4.4-3.1-8-3.1c-6.3,0-11.1,5.2-11.1,11.3v0.1
			c0,6.1,4.8,11.3,11.1,11.3c0.1,0,0.1,0,0.2,0v0c4.7,0,8.8-2.6,10.9-6.5c1.1-1.7,2-3.9,2.5-6.6l0,0c0.7-3.8,3.7-6.6,7.8-6.6
			c4,0,7.1,2.9,7.9,6.6h3.4C142.3,14,137.8,9.8,131.9,9.8z"/>
	</g>
</g>
</svg>
