<svg width="300" height="110" viewBox="0 0 300 110" xmlns="http://www.w3.org/2000/svg" xmlns:xlink="http://www.w3.org/1999/xlink"><title>dnd_schedule</title><defs><linearGradient x1="50%" y1="0%" x2="50%" y2="100%" id="b"><stop stop-color="#FFF" stop-opacity=".5" offset="0%"/><stop stop-opacity=".5" offset="100%"/></linearGradient><circle id="a" cx="15" cy="19" r="15"/></defs><g fill="none" fill-rule="evenodd"><circle fill="#794987" cx="191" cy="15" r="2"/><path d="M207.238 33.147l-3.477-1.495a.5.5 0 0 1 0-.919l3.477-1.495 1.495-3.477a.5.5 0 0 1 .919 0l1.495 3.477 3.477 1.495a.5.5 0 0 1 0 .919l-3.477 1.495-1.495 3.477a.5.5 0 0 1-.919 0l-1.495-3.477z" fill="#794987"/><circle fill="#794987" cx="283" cy="65" r="2"/><circle fill="#794987" cx="172" cy="34" r="2"/><g transform="translate(242 17)"><use fill="#FFCB44" xlink:href="#a"/><use fill-opacity=".7" fill="url(#b)" style="mix-blend-mode:overlay" xlink:href="#a"/><path d="M30.414 7.736A2 2 0 0 1 31 9.15v1.2a2 2 0 0 1-.586 1.414l-.15.15a2 2 0 0 1-1.414.586h-3.7a2 2 0 0 1-1.414-.586l-.15-.15A2 2 0 0 1 23 10.35V9.5c0-.555.165-.991.414-1.39l.064-.096.148-.21-.04-.04A2 2 0 0 1 23 6.35v-1.2a2 2 0 0 1 .586-1.414l.15-.15A2 2 0 0 1 25.15 3h3.7a2 2 0 0 1 1.414.586l.15.15A2 2 0 0 1 31 5.15V6c0 .559-.194 1.142-.49 1.52l-.13.182.034.034z" fill="#1E242B" fill-rule="nonzero"/><path d="M37.24 3.69l.187.19A2 2 0 0 1 38 5.282v1.527a2 2 0 0 1-.573 1.402l-.188.19A2 2 0 0 1 35.813 9h-4.626a2 2 0 0 1-1.426-.599l-.188-.19A2 2 0 0 1 29 6.809V5.727c0-.578.172-1.04.433-1.466l.062-.095.47-.675a2 2 0 0 1-.204-.18l-.188-.191A2 2 0 0 1 29 1.718V.191a2 2 0 0 1 .573-1.402l.188-.19A2 2 0 0 1 31.188-2h4.625a2 2 0 0 1 1.426.599l.188.19A2 2 0 0 1 38 .191v1.082c0 .585-.203 1.203-.511 1.604l-.446.637a2 2 0 0 1 .196.175z" fill="#1E242B" fill-rule="nonzero"/><path d="M28.85 5l.15.15V6c0 .12-.05.27-.12.36L27 9h1.85l.15.15v1.2l-.15.15h-3.7l-.15-.15V9.5c0-.13.06-.25.11-.33L27 6.5h-1.85L25 6.35v-1.2l.15-.15h3.7zM35.813 0L36 .19v1.083a.833.833 0 0 1-.15.458L33.5 5.09h2.313l.187.19V6.81L35.812 7h-4.624L31 6.81V5.726c0-.165.075-.318.137-.42L33.5 1.91h-2.313L31 1.72V.19L31.188 0h4.625z" fill="#F9F9F9"/><circle stroke="#202833" stroke-width="2" stroke-linecap="round" stroke-linejoin="round" cx="15" cy="22" r="1"/><g stroke="#202833" stroke-linecap="round" stroke-linejoin="round" stroke-width="2"><path d="M11.486 16.247A2.765 2.765 0 0 0 9.173 15c-.979 0-1.839.508-2.331 1.274M23.486 16.247A2.765 2.765 0 0 0 21.173 15c-.979 0-1.839.508-2.331 1.274"/></g></g></g></svg>