<svg width="300" height="110" viewBox="0 0 300 110" xmlns="http://www.w3.org/2000/svg" xmlns:xlink="http://www.w3.org/1999/xlink"><title>dnd_snooze</title><defs><linearGradient x1="50%" y1="0%" x2="50%" y2="100%" id="b"><stop stop-color="#FFF" stop-opacity=".5" offset="0%"/><stop stop-opacity=".5" offset="100%"/></linearGradient><circle id="a" cx="22" cy="18" r="15"/><path d="M3.5 12H5a2 2 0 0 1 2 2v9a2 2 0 0 1-2 2H3.5A3.5 3.5 0 0 1 0 21.5v-6A3.5 3.5 0 0 1 3.5 12z" id="c"/><path d="M39 12h1.5a3.5 3.5 0 0 1 3.5 3.5v6a3.5 3.5 0 0 1-3.5 3.5H39a2 2 0 0 1-2-2v-9a2 2 0 0 1 2-2z" id="d"/></defs><g fill="none" fill-rule="evenodd"><circle fill="#79ACED" cx="191" cy="15" r="2"/><path d="M207.238 33.147l-3.477-1.495a.5.5 0 0 1 0-.919l3.477-1.495 1.495-3.477a.5.5 0 0 1 .919 0l1.495 3.477 3.477 1.495a.5.5 0 0 1 0 .919l-3.477 1.495-1.495 3.477a.5.5 0 0 1-.919 0l-1.495-3.477z" fill="#79ACED"/><circle fill="#79ACED" cx="283" cy="65" r="2"/><circle fill="#79ACED" cx="172" cy="34" r="2"/><g transform="translate(235 18)"><use fill="#FFCB44" xlink:href="#a"/><use fill-opacity=".7" fill="url(#b)" style="mix-blend-mode:overlay" xlink:href="#a"/></g><g stroke="#202833" stroke-linecap="round" stroke-linejoin="round" stroke-width="2"><path d="M253.486 33.247A2.765 2.765 0 0 0 251.173 32c-.979 0-1.839.508-2.331 1.274M265.486 33.247A2.765 2.765 0 0 0 263.173 32c-.979 0-1.839.508-2.331 1.274M253 38.048a4.935 4.935 0 0 0 4.128 2.226 4.936 4.936 0 0 0 4.16-2.274"/></g><path d="M275 36c0-9.941-8.059-18-18-18s-18 8.059-18 18" stroke="#E3E3E3" stroke-width="1.5"/><g transform="translate(235 18)"><use fill="#676562" xlink:href="#c"/><path stroke="#1D3655" stroke-width="1.5" d="M3.5 11.25H5A2.75 2.75 0 0 1 7.75 14v9A2.75 2.75 0 0 1 5 25.75H3.5A4.25 4.25 0 0 1-.75 21.5v-6a4.25 4.25 0 0 1 4.25-4.25z"/></g><g transform="translate(235 18)"><use fill="#676562" xlink:href="#d"/><path stroke="#1D3655" stroke-width="1.5" d="M39 11.25h1.5a4.25 4.25 0 0 1 4.25 4.25v6a4.25 4.25 0 0 1-4.25 4.25H39A2.75 2.75 0 0 1 36.25 23v-9A2.75 2.75 0 0 1 39 11.25z"/></g></g></svg>