<svg xmlns="http://www.w3.org/2000/svg" width="20" height="80" viewBox="0 0 20 80"><path fill="#F7F7F7" d="M5 78.2c-1.8 0-3.2-1.5-3.2-3.2V65c0-1.8 1.5-3.2 3.2-3.2h10c1.8 0 3.2 1.5 3.2 3.2v10c0 1.8-1.5 3.2-3.2 3.2H5z"/><path fill="#ACB0B5" d="M15 62.5c1.4 0 2.5 1.1 2.5 2.5v10c0 1.4-1.1 2.5-2.5 2.5H5c-1.4 0-2.5-1.1-2.5-2.5V65c0-1.4 1.1-2.5 2.5-2.5h10m0-1.5H5c-2.2 0-4 1.8-4 4v10c0 2.2 1.8 4 4 4h10c2.2 0 4-1.8 4-4V65c0-2.2-1.8-4-4-4z"/><path fill="#656C77" d="M15.9 67.1l-1.7-1.6-5.8 5.8-2.6-2.7-1.7 1.6 4.3 4.3z"/><path fill="#FFF" d="M5 58.2c-1.8 0-3.2-1.5-3.2-3.2V45c0-1.8 1.5-3.2 3.2-3.2h10c1.8 0 3.2 1.5 3.2 3.2v10c0 1.8-1.5 3.2-3.2 3.2H5z"/><path fill="#ACB0B5" d="M15 42.5c1.4 0 2.5 1.1 2.5 2.5v10c0 1.4-1.1 2.5-2.5 2.5H5c-1.4 0-2.5-1.1-2.5-2.5V45c0-1.4 1.1-2.5 2.5-2.5h10m0-1.5H5c-2.2 0-4 1.8-4 4v10c0 2.2 1.8 4 4 4h10c2.2 0 4-1.8 4-4V45c0-2.2-1.8-4-4-4z"/><path fill="#656C77" d="M15.9 47.1l-1.7-1.6-5.8 5.8-2.6-2.7-1.7 1.6 4.3 4.3z"/><g><path fill="#F7F7F7" d="M5 38.2c-1.8 0-3.2-1.5-3.2-3.2V25c0-1.8 1.5-3.2 3.2-3.2h10c1.8 0 3.2 1.5 3.2 3.2v10c0 1.8-1.5 3.2-3.2 3.2H5z"/><path fill="#ACB0B5" d="M15 22.5c1.4 0 2.5 1.1 2.5 2.5v10c0 1.4-1.1 2.5-2.5 2.5H5c-1.4 0-2.5-1.1-2.5-2.5V25c0-1.4 1.1-2.5 2.5-2.5h10m0-1.5H5c-2.2 0-4 1.8-4 4v10c0 2.2 1.8 4 4 4h10c2.2 0 4-1.8 4-4V25c0-2.2-1.8-4-4-4z"/></g><g><path fill="#FFF" d="M5 18.2c-1.8 0-3.2-1.5-3.2-3.2V5c0-1.8 1.5-3.2 3.2-3.2h10c1.8 0 3.2 1.5 3.2 3.2v10c0 1.8-1.5 3.2-3.2 3.2H5z"/><path fill="#ACB0B5" d="M15 2.5c1.4 0 2.5 1.1 2.5 2.5v10c0 1.4-1.1 2.5-2.5 2.5H5c-1.4 0-2.5-1.1-2.5-2.5V5c0-1.4 1.1-2.5 2.5-2.5h10M15 1H5C2.8 1 1 2.8 1 5v10c0 2.2 1.8 4 4 4h10c2.2 0 4-1.8 4-4V5c0-2.2-1.8-4-4-4z"/></g></svg>