<svg xmlns="http://www.w3.org/2000/svg" xmlns:xlink="http://www.w3.org/1999/xlink" viewBox="0 0 29 29"><defs><clipPath id="a" transform="translate(2.5 2.5)"><path d="M17.54,9.16c0,0.12,0,.25,0,0.37A8.13,8.13,0,0,1,5,16.38a6.1,6.1,0,0,0,.68,0A5.73,5.73,0,0,0,9.27,15.2a2.86,2.86,0,0,1-2.67-2,3,3,0,0,0,.54.05,2.87,2.87,0,0,0,.75-0.1,2.86,2.86,0,0,1-2.29-2.8v0a2.87,2.87,0,0,0,1.3.36A2.86,2.86,0,0,1,5.61,8.3,2.82,2.82,0,0,1,6,6.86a8.12,8.12,0,0,0,5.89,3,2.86,2.86,0,0,1,4.87-2.61,5.63,5.63,0,0,0,1.82-.69,2.87,2.87,0,0,1-1.26,1.58A5.62,5.62,0,0,0,19,7.68,5.76,5.76,0,0,1,17.54,9.16ZM0,12A12,12,0,1,0,12,0,12,12,0,0,0,0,12Z" fill="none" clip-rule="evenodd"/></clipPath><clipPath id="b" transform="translate(2.5 2.5)"><rect width="24" height="24" fill="none"/></clipPath></defs><title>twitter-icon</title><g clip-path="url(#a)"><g clip-path="url(#b)"><rect width="29" height="29" fill="#39a0cd"/></g></g></svg>