<svg xmlns="http://www.w3.org/2000/svg" viewBox="-101 103 196 196">
	<path fill="#ffffff" d="M-1.9 147a45.3 45.3 0 0 1 35.8 19.6l16.6-15.2a68.2 68.2 0 0 0-52-23.8c-34.3-1-52.8 20-53.4 41.3a33.5 33.5 0 0 0 11.3 26c8.1 7 18.5 9.8 28.7 12.5L4.6 212c9.3 2.1 24.8 5.7 24.4 19.6-.3 10.3-10.5 20.4-32.7 19.8-24.7-.7-34.3-14.1-38.8-21.6l-18.1 17.3a63.2 63.2 0 0 0 31.1 21 87.6 87.6 0 0 0 23.6 3.8c29.9.9 58.9-10.9 59.3-43.8a34.1 34.1 0 0 0-20.4-33 79 79 0 0 0-14-4.8l-5.9-1.4-19.3-4.2c-10-2.4-25.2-6-24.8-19.1.2-8.1 9.4-19.1 29.1-18.6z"/><path fill="#411a38" d="M-101 103H95v196h-196z"/><path fill="#ffffff" d="M-8 268.1c-6.2 0-12.5-1.4-18.8-4.2A73.9 73.9 0 0 1-46.1 251l-18.6 35c8 5.5 16.2 9.9 24.8 13h66c6-2.5 11.3-5.8 15.7-9.7a47.8 47.8 0 0 0 12.6-17.8 59.7 59.7 0 0 0 4.3-23.3c0-12.7-3.3-23-9.9-30.9a67.2 67.2 0 0 0-31.1-18.9c-3.5-1.2-7.1-2.3-10.7-3.3-3.6-1-6.9-2.3-9.7-3.7a23.7 23.7 0 0 1-7-5 10.3 10.3 0 0 1-2.7-7.3c0-4.3 1.8-7.8 5.3-10.4 3.5-2.7 8.1-4 13.7-4 4.4 0 9 .9 13.7 2.8 4.7 1.8 9.5 4.7 14.2 8.5l17.3-34a117 117 0 0 0-25.9-10.1c-9-2.3-17.7-3.4-25.9-3.4-8.9 0-16.9 1.3-24 4A49 49 0 0 0-53.7 161a59.7 59.7 0 0 0-.2 43c2.6 5.4 6 9.9 10.2 13.4 4.2 3.5 9 6.4 14.4 8.5 5.4 2.1 10.9 4.1 16.5 5.9 4.7 1.6 8.8 3.1 12.1 4.4 3.3 1.3 6 2.8 8.1 4.3 2.1 1.6 3.5 3.3 4.4 5.1.9 1.9 1.3 4 1.3 6.5 0 4.1-1.7 7.8-5.2 11.1s-8.8 4.9-15.9 4.9z"/>
</svg>
