<?xml version="1.0" standalone="no"?>
<!DOCTYPE svg PUBLIC "-//W3C//DTD SVG 20010904//EN"
 "http://www.w3.org/TR/2001/REC-SVG-20010904/DTD/svg10.dtd">
<svg version="1.0" xmlns="http://www.w3.org/2000/svg"
 width="400.000000pt" height="400.000000pt" viewBox="0 0 400.000000 400.000000"
 preserveAspectRatio="xMidYMid meet">
<metadata>
Created by potrace 1.11, written by Peter Selinger 2001-2013
</metadata>
<g transform="translate(0.000000,400.000000) scale(0.100000,-0.100000)"
fill="#000000" stroke="none">
<path d="M0 2000 l0 -2000 2000 0 2000 0 0 2000 0 2000 -2000 0 -2000 0 0
-2000z m2566 1011 c85 -16 163 -51 229 -102 35 -27 71 -49 79 -49 30 0 155 44
229 81 74 37 78 38 72 16 -18 -56 -65 -128 -127 -189 -37 -38 -64 -68 -59 -68
23 0 202 50 230 64 17 9 31 14 31 10 0 -23 -166 -203 -226 -244 -18 -13 -22
-29 -27 -130 -20 -376 -166 -720 -416 -983 -116 -121 -232 -207 -386 -282
-222 -110 -397 -149 -660 -149 -188 1 -300 19 -469 75 -87 29 -306 134 -306
147 0 4 60 7 133 8 205 1 372 50 538 160 l74 48 -51 7 c-117 15 -220 67 -302
153 -48 50 -122 166 -122 191 0 3 42 5 93 5 111 0 138 11 72 30 -100 28 -237
145 -288 247 -30 59 -57 157 -57 208 0 32 3 36 18 30 72 -30 113 -44 153 -50
l47 -7 -63 65 c-140 143 -188 340 -126 519 38 111 30 111 134 6 151 -153 306
-257 498 -335 116 -47 275 -87 391 -98 l73 -7 -3 95 c-6 158 42 280 152 385
78 74 134 107 227 132 83 21 143 24 215 11z"/>
</g>
</svg>
