<svg width="387" height="699" xmlns="http://www.w3.org/2000/svg"><g fill="#E8E8E8" fill-rule="evenodd"><g transform="translate(1 663)"><rect width="35" height="35" rx="3"/><rect x="45" y="6" width="78" height="7" rx="3"/><rect x="128" y="6" width="46" height="7" rx="3"/><rect x="45" y="24" width="100" height="7" rx="3"/></g><g transform="translate(1 612)"><rect width="35" height="35" rx="3"/><rect x="45" y="6" width="78" height="7" rx="3"/><rect x="128" y="6" width="46" height="7" rx="3"/><rect x="45" y="24" width="240" height="7" rx="3"/></g><g transform="translate(1 561)"><rect width="35" height="35" rx="3"/><rect x="45" y="6" width="78" height="7" rx="3"/><rect x="128" y="6" width="46" height="7" rx="3"/><rect x="45" y="24" width="60" height="7" rx="3"/></g><g transform="translate(1 510)"><rect width="35" height="35" rx="3"/><rect x="45" y="6" width="78" height="7" rx="3"/><rect x="128" y="6" width="46" height="7" rx="3"/><rect x="45" y="24" width="200" height="7" rx="3"/></g><g transform="translate(1 459)"><rect width="35" height="35" rx="3"/><rect x="45" y="6" width="78" height="7" rx="3"/><rect x="128" y="6" width="46" height="7" rx="3"/><rect x="45" y="24" width="60" height="7" rx="3"/></g><g transform="translate(1 408)"><rect width="35" height="35" rx="3"/><rect x="45" y="6" width="78" height="7" rx="3"/><rect x="128" y="6" width="46" height="7" rx="3"/><rect x="45" y="24" width="257" height="7" rx="3"/></g><g transform="translate(1 357)"><rect width="35" height="35" rx="3"/><rect x="45" y="6" width="78" height="7" rx="3"/><rect x="128" y="6" width="46" height="7" rx="3"/><rect x="45" y="24" width="160" height="7" rx="3"/></g><g transform="translate(1 117)"><rect width="35" height="35" rx="3"/><rect x="45" y="6" width="78" height="7" rx="3"/><rect x="128" y="6" width="46" height="7" rx="3"/><rect x="45" y="24" width="257" height="200" rx="3"/></g><g transform="translate(1 66)"><rect width="35" height="35" rx="3"/><rect x="45" y="6" width="78" height="7" rx="3"/><rect x="128" y="6" width="46" height="7" rx="3"/><rect x="45" y="24" width="180" height="7" rx="3"/></g><g transform="translate(1 15)"><rect width="35" height="35" rx="3"/><rect x="45" y="6" width="78" height="7" rx="3"/><rect x="128" y="6" width="46" height="7" rx="3"/><rect x="45" y="24" width="220" height="7" rx="3"/></g></g></svg>
