<?xml version="1.0" encoding="UTF-8"?>
<svg width="28px" height="28px" viewBox="0 0 28 28" version="1.1" xmlns="http://www.w3.org/2000/svg" xmlns:xlink="http://www.w3.org/1999/xlink">
    <!-- Generator: Sketch 54.1 (76490) - https://sketchapp.com -->
    <title>heart_28_hover</title>
    <desc>Created with Sketch.</desc>
    <g id="Style-Guide" stroke="none" stroke-width="1" fill="none" fill-rule="evenodd">
        <g id="Style-Guide-v1.0.1" transform="translate(-8004.000000, -1117.000000)">
            <g id="Icons" transform="translate(7916.000000, 300.000000)">
                <g id="heart28hover" transform="translate(88.000000, 817.000000)">
                    <rect id="Bounds" x="0" y="0" width="28" height="28"></rect>
                    <polygon id="Shape" points="2 2 26 2 26 26 2 26"></polygon>
                    <path d="M13.998723,22.6750105 L15.1141292,21.6596072 C20.0111708,17.2189889 21.5589757,15.6272924 22.6540403,13.5981044 C23.2212829,12.5469865 23.5,11.5389287 23.5,10.5 C23.5,7.69614237 21.3038576,5.5 18.5,5.5 C16.9344361,5.5 15.3942569,6.22390918 14.380676,7.41416939 L14,7.86120174 L13.619324,7.41416939 C12.6057431,6.22390918 11.0655639,5.5 9.5,5.5 C6.69614237,5.5 4.5,7.69614237 4.5,10.5 C4.5,11.5345078 4.77635097,12.538398 5.33872478,13.584953 C6.43069842,15.6170718 7.96766822,17.2002499 12.8851886,21.6689897 L13.998723,22.6750105 Z" id="Shape" stroke="#005BE2"></path>
                </g>
            </g>
        </g>
    </g>
</svg>
