<?xml version="1.0" encoding="UTF-8"?>
<svg width="28px" height="28px" viewBox="0 0 28 28" version="1.1" xmlns="http://www.w3.org/2000/svg" xmlns:xlink="http://www.w3.org/1999/xlink">
  <!-- Generator: Sketch 54.1 (76490) - https://sketchapp.com -->
  <title>heart_28_active_hover</title>
  <desc>Created with Sketch.</desc>
  <g id="Style-Guide" stroke="none" stroke-width="1" fill="none" fill-rule="evenodd">
    <g id="Style-Guide-v1.0.1" transform="translate(-8004.000000, -1157.000000)">
      <rect fill="#FFFFFF" x="0" y="0" width="9600" height="2900"></rect>
      <g id="Icons" transform="translate(7916.000000, 300.000000)">
        <g id="heart28activehover" transform="translate(88.000000, 857.000000)">
          <rect id="Bounds" x="0" y="0" width="28" height="28"></rect>
          <polygon id="Shape" points="2 2 26 2 26 26 2 26"></polygon>
          <path d="M18.5,5 C16.76,5 15.09,5.81 14,7.09 C12.91,5.81 11.24,5 9.5,5 C6.42,5 4,7.42 4,10.5 C4,14.28 7.4,17.36 12.55,22.04 L14,23.35 L15.45,22.03 C20.6,17.36 24,14.28 24,10.5 C24,7.42 21.58,5 18.5,5 L18.5,5 Z" id="Shape" fill="#005BE2"></path>
        </g>
      </g>
    </g>
  </g>
</svg>
