<?xml version="1.0" encoding="utf-8"?>
<!-- Generator: Adobe Illustrator 23.0.3, SVG Export Plug-In . SVG Version: 6.00 Build 0)  -->
<svg version="1.1" id="Layer_1" xmlns="http://www.w3.org/2000/svg" xmlns:xlink="http://www.w3.org/1999/xlink" x="0px" y="0px" viewBox="0 0 28 28" style="enable-background:new 0 0 28 28;" xml:space="preserve">
	<style type="text/css">
		.st0 {
			fill: #A2A1A1;
		}
	</style>
	<g id="twitter_icn" transform="translate(1.000000, 4.000000)">
		<path id="Shape" class="st0" d="M9.9,16.7c-1.9,0-3.8-0.3-5.4-1.3l-0.2,0.4l0,0.4l0.2,0l0.1,0c0.3,0,0.4,0.1,0.6,0.1
		c1.8,0,3.4-0.5,4.8-1.5l1.3-1.1l-1.2-0.1c-1.4,0-2.8-0.9-3.2-2.2l-0.6,0.2l0,0.4c0.2,0,0.5,0.3,0.8,0.3c0.4,0,0.6,0,1.1-0.1
		c0.8-0.1,1.5-0.3,2.2-0.6l-2-0.6C6.9,10.8,5.7,9.6,5.7,8c0,0-0.2,0-0.6,0L4.8,8.5c0.6,0.3,1.3,0.6,1.9,0.6l1.5,0L7.2,8.2
		C6.3,7.6,5.8,6.7,5.7,5.6c0-0.6,0-1,0.3-1.5L5.3,4.1c1.9,2.4,4.8,3.6,7.8,3.8l0.5,0l-0.1-0.5c0-0.4-0.1-0.6-0.1-0.8
		c0-1.3,0.8-2.4,2-2.9s2.6-0.2,3.5,0.8l0.2,0.2l0.2-0.1c0.9-0.2,1.6-0.7,2.3-1.1L21.2,3c-0.1,0.3-0.1,0.8,0,1.3
		c0.2,0.6,0.6,1.1,1.1,0.8l-0.2-0.5l-0.4-0.2C21.3,5.1,20.7,5.5,20,6l-0.2,0.2l0,0.2c0,0.2,0,0.3,0,0.5
		C19.8,12.1,15.8,16.7,9.9,16.7z M20.8,6.4l-0.4,0l0.3,0.4c0.8-0.5,1.4-1.1,1.9-1.9l0.9-1.4L22,4.2c0.2-0.1,0.3,0,0.3,0
		c-0.1-0.1-0.1-0.2-0.1-0.3c-0.1-0.3-0.1-0.6-0.1-0.7l0.3-1.1l-1,0.6c-0.6,0.4-1.3,0.7-2.1,0.9l0.4,0.1c-0.8-0.8-1.9-1.3-3-1.3
		c-2.3,0-4.1,1.8-4.1,4.1c0,0.3,0,0.5,0.1,0.9l0.5,0l0-0.4C10.3,6.8,7.7,5.4,6,3.2L5.5,2.7L5.2,3.3c-0.3,0.6-0.6,1.3-0.6,2
		c0,1.4,0.7,2.7,1.8,3.5L6.7,8c-0.5,0-1-0.2-1.4-0.4L4.8,7.3L4.7,7.8c0,0.1,0,0.2,0,0.3c0,1.9,1.4,3.6,3.3,4L8,11.6l-0.1-0.4
		c-0.3,0.1-0.6,0.1-0.9,0.1c-0.2,0-0.4,0-0.6-0.1l-0.7-0.1L6,11.8c0.5,1.6,2,2.8,3.8,2.9l-0.2-0.8c-1.2,0.9-2.8,1.5-4.3,1.5
		c-0.1,0-0.2,0-0.5,0l-0.2,0l-0.2,0l-1.8-0.1l1.5,1c1.7,1.1,3.8,1.7,5.9,1.7c6.4,0,10.8-5,10.8-10.8C20.8,6.9,20.8,6.7,20.8,6.4z" />
	</g>
</svg>
