<?xml version="1.0" standalone="no"?>
<!DOCTYPE svg PUBLIC "-//W3C//DTD SVG 1.1//EN" "http://www.w3.org/Graphics/SVG/1.1/DTD/svg11.dtd">
<svg xmlns="http://www.w3.org/2000/svg">
<metadata>Copyright (C) 2019 by original authors @ fontello.com</metadata>
<defs>
<font id="aboutme-glyphs" horiz-adv-x="1000" >
<font-face font-family="aboutme-glyphs" font-weight="400" font-stretch="normal" units-per-em="1000" ascent="850" descent="-150" />
<missing-glyph horiz-adv-x="1000" />
<glyph glyph-name="heart" unicode="&#xe800;" d="M896 495c0-13-1-26-3-39-15-99-85-201-191-305-42-40-86-78-131-112-15-12-30-22-43-32-8-5-13-9-16-11a21 21 0 0 0-22-1 683 683 0 0 0-17 10 1220 1220 0 0 0-174 130c-122 109-195 224-195 342 0 249 305 295 396 104 91 188 396 151 396-86z m-397-457l5 3a1416 1416 0 0 1 169 140c100 98 165 194 179 281a215 215 0 0 1 2 33c0 209-296 224-333 14-5-22-37-22-41 0-39 213-334 191-334-32 0-103 67-209 180-311a1156 1156 0 0 1 127-98c15-11 29-20 42-27l4-3z" horiz-adv-x="1000" />

<glyph glyph-name="lightning" unicode="&#xe801;" d="M382 52l269 404h-142a21 21 0 0 0-18 32l162 258h-236l-99-393h119a21 21 0 0 0 20-27l-75-274z m165 446h143a21 21 0 0 0 18-33l-363-543c-13-20-43-6-37 17l101 372h-117a21 21 0 0 0-20 26l108 435a21 21 0 0 0 20 16h290a21 21 0 0 0 18-32l-161-258z" horiz-adv-x="1000" />

<glyph glyph-name="home" unicode="&#xe802;" d="M808 314c-11 0-21-9-21-21v-339h-176v265h-222v-265h-176v358a21 21 0 0 1-42 0v-400h259v266h140v-266h259v381a21 21 0 0 1-21 21z m124 32l-417 435a21 21 0 0 1-30 0l-417-435a21 21 0 0 1 30-29l402 420 402-420a21 21 0 0 1 30 29z" horiz-adv-x="1000" />

<glyph glyph-name="workout" unicode="&#xe803;" d="M939 362h19a21 21 0 0 0 0-42h-19v-79c0-33-27-60-60-60h-59v-59c0-34-27-61-61-61h-119a61 61 0 0 0-61 61v178h-158v-178c0-34-27-61-60-61h-120a61 61 0 0 0-61 61v59h-59a61 61 0 0 0-60 60v79h-19a21 21 0 1 0 0 42h19v79c0 33 27 60 60 60h59v59c0 34 28 61 61 61h120c33 0 60-27 60-61v-218h158v218c0 34 27 61 61 61h119c34 0 61-27 61-61v-59h59c33 0 60-27 60-60v-79h0z m-119-140h59a19 19 0 0 1 19 19v200a19 19 0 0 1-19 19h-59v-238z m-42-100v438a19 19 0 0 1-19 19h-119a19 19 0 0 1-19-19v-438c0-11 8-19 19-19h119a19 19 0 0 1 19 19z m-598 100v238h-59a19 19 0 0 1-19-19v-200c0-10 9-19 19-19h59v0z m42-100c0-11 9-19 19-19h120a19 19 0 0 1 19 19v438a19 19 0 0 1-19 19h-120a19 19 0 0 1-19-19v-438z" horiz-adv-x="1000" />

<glyph glyph-name="visit" unicode="&#xe804;" d="M697 248a25 25 0 0 0-35-35l-117 116v-396a25 25 0 1 0-50 0v394l-115-114a25 25 0 0 0-35 35l155 155a25 25 0 0 0 20 11l0 0a25 25 0 0 0 19-8l158-158z m-494 418a20 20 0 1 1 0-40 20 20 0 1 1 0 40z m739-20v-436a103 103 0 0 0-104-104h-100a25 25 0 1 0 0 50h100a53 53 0 0 1 54 55v331h-784v-332c0-29 25-54 56-54h118a25 25 0 1 0 0-50h-118c-58 0-106 47-106 104v436c0 57 48 104 106 104h674a103 103 0 0 0 104-104z m-50 0c0 30-24 54-54 54h-674c-31 0-56-25-56-54v-54h784v54z m-530 20a20 20 0 1 1 0-40 20 20 0 0 1 0 40z m-79 0a20 20 0 1 1 0-40 20 20 0 1 1 0 40z" horiz-adv-x="1000" />

<glyph glyph-name="video" unicode="&#xe805;" d="M588 313a21 21 0 0 0 32 17l109-71v182l-109-71a21 21 0 0 0-32 17v109h-275v-292h275v109z m42-130a21 21 0 0 0-21-20h-317a21 21 0 0 0-21 20v334a21 21 0 0 0 21 21h317a21 21 0 0 0 21-21v-91l109 71a21 21 0 0 0 32-17v-260a21 21 0 0 0-32-17l-109 71v-91z m266-141v616a88 88 0 0 1-88 88h-616c-48 0-88-40-88-88v-616c0-48 40-88 88-88h616a88 88 0 0 1 88 88z m42 0a130 130 0 0 0-130-130h-616a130 130 0 0 0-129 130v616a130 130 0 0 0 129 130h616a130 130 0 0 0 130-130v-616z" horiz-adv-x="1000" />

<glyph glyph-name="twitter" unicode="&#xe806;" d="M958 640c-24-36-55-68-93-98v-24c0-86-20-169-60-249-40-79-102-147-185-202-84-55-180-83-289-83-107 0-203 28-289 84 9-1 24-2 46-2 87 0 165 27 233 80a188 188 0 0 0-110 38 182 182 0 0 0-66 93c7-2 18-4 34-4 17 0 34 2 50 6a184 184 0 0 0-108 66c-28 35-41 74-41 120v2c23-14 51-22 83-24-56 38-83 91-83 157 0 32 8 63 26 94 102-125 231-190 388-196a132 132 0 0 0-6 42c0 52 18 96 55 133 36 36 81 55 134 55 55 0 100-20 136-58a435 435 0 0 1 120 44c-14-44-41-79-82-104a432 432 0 0 1 107 30z" horiz-adv-x="1000" />

<glyph glyph-name="thumbsup" unicode="&#xe807;" d="M722 91c-28 0-28 41 0 41h34a30 30 0 0 1 0 61 21 21 0 0 0 0 42c26 0 50-15 62-36a72 72 0 0 0-28-6h-34a21 21 0 0 0 0 42h34a30 30 0 0 1 0 60c-28 0-28 42 0 42h34a30 30 0 0 1 0 60h-273a21 21 0 0 0-20 27c1 4 3 11 5 20a1535 1535 0 0 1 20 97c6 30 8 56 8 74 0 37-14 56-33 59-16 3-27-5-27-17 0-163-134-294-277-294h-81v-265c106-1 169-13 225-35 9-4 33-14 34-15 32-13 55-18 95-18h222a30 30 0 0 1 30 30 30 30 0 0 1-30 31z m106 72c0-30-18-56-44-67a72 72 0 0 0-62-108h-222c-45 0-74 7-111 22-2 1-25 11-33 14-55 22-117 33-231 33a21 21 0 0 0-21 20v307a21 21 0 0 0 21 21h102c120 0 235 112 235 252 0 40 37 65 76 58 40-7 68-44 68-100 0-21-3-49-8-81-3-15-6-31-9-47-4-16-7-33-11-48h246a72 72 0 0 0 28-138 72 72 0 0 0-34-102c6-11 10-23 10-36z" horiz-adv-x="1000" />

<glyph glyph-name="testimonial" unicode="&#xe808;" d="M917 750h-834a25 25 0 0 1-25-25v-580c0-13 12-25 25-25h229v-120a25 25 0 0 1 43-17l137 137h425a25 25 0 0 1 25 25v580a25 25 0 0 1-25 25z m-25-580h-410a25 25 0 0 1-18-7l-102-102v84a25 25 0 0 1-25 25h-229v530h784v-530z m-652 374a25 25 0 0 0 25 25h326a25 25 0 1 0 0-50h-326a25 25 0 0 0-25 25z m0-109a25 25 0 0 0 25 25h471a25 25 0 0 0 0-50h-471a25 25 0 0 0-25 25z m0-108a25 25 0 0 0 25 25h471a25 25 0 0 0 0-50h-471a25 25 0 0 0-25 25z" horiz-adv-x="1000" />

<glyph glyph-name="tools" unicode="&#xe809;" d="M884 201a165 165 0 0 1-169 40l-111 112 111 111a168 168 0 0 1 169 41c48 48 61 117 35 179a21 21 0 0 1-34 6l-63-65h-47v52l63 64a21 21 0 0 1-7 33 168 168 0 0 1-182-35 165 165 0 0 1-40-168l-112-112-111 112a165 165 0 0 1-41 168c-48 48-116 62-179 35a21 21 0 0 1-6-34l66-63v-52h-53l-63 65a21 21 0 0 1-34-6 164 164 0 0 1 35-181 164 164 0 0 1 169-39l111-111-111-112a168 168 0 0 1-169-40 165 165 0 0 1-35-182 21 21 0 0 1 34-7l63 64h53v-48l-66-63a21 21 0 0 1 6-34 165 165 0 0 1 65-13 163 163 0 0 1 116 48c44 45 59 109 39 169l111 111 112-111a165 165 0 0 1 40-169 165 165 0 0 1 117-48c22 0 44 4 65 13a21 21 0 0 1 13 15 21 21 0 0 1-6 19l-63 63v48h47l63-64a21 21 0 0 1 19-5 21 21 0 0 1 15 12 165 165 0 0 1-35 182z m-584 302a21 21 0 0 1-23 4 124 124 0 0 0-136 26 123 123 0 0 0-36 102l44-46a21 21 0 0 1 15-6h82a21 21 0 0 1 21 21v82a21 21 0 0 1-6 15l-46 44c37 5 73-8 101-35a124 124 0 0 0 26-137 21 21 0 0 1 5-22l121-121-48-48-120 121z m42-371c21-47 11-101-25-136a123 123 0 0 0-102-36l46 45a21 21 0 0 1 6 15v76a21 21 0 0 1-21 21h-82a21 21 0 0 1-15-6l-44-44a124 124 0 0 0 36 104 126 126 0 0 0 136 27 21 21 0 0 1 23 4l348 349a21 21 0 0 1 4 22 124 124 0 0 0 27 137 125 125 0 0 0 104 35l-44-44a21 21 0 0 1-6-15v-82a21 21 0 0 1 21-21h77a21 21 0 0 1 15 6l44 46c4-37-8-73-36-101a126 126 0 0 0-136-26 21 21 0 0 1-23-5l-348-348a21 21 0 0 1-5-23z m547-65l-44 44a21 21 0 0 1-14 6h-77a21 21 0 0 1-21-21v-76c0-6 2-11 6-15l44-45a124 124 0 0 0-104 36 124 124 0 0 0-27 136 21 21 0 0 1-4 23l-121 121 47 47 121-121a21 21 0 0 1 23-4 124 124 0 0 0 136-27c28-28 41-66 35-104z" horiz-adv-x="1000" />

<glyph glyph-name="tada" unicode="&#xe80a;" d="M88 217a37 37 0 1 0 75 0 37 37 0 0 0-75 0z m28 186a37 37 0 1 1-74 0 37 37 0 0 1 74 0z m133 202c-8-13-16-24-22-27-48-30-27-97 22-83 53 15 57 6 21-59l-9-16 32-18 9 16c51 91 27 139-64 113-3-1-5 6 9 15 22 14 52 68 57 96 4 18-10 30-27 26-6-1-13-5-21-10a343 343 0 0 1-30-23c-4 14-5 43-2 85l1 18-37 3-1-18c-4-48-3-81 3-101 10-30 35-36 59-17z m500-68c1 0 3 0 4 0a213 213 0 0 0-10-8l-16-11 22-30 15 11c48 34 45 71-12 75a48 48 0 0 0-10 7 119 119 0 0 0 24-2c4-1 9-2 14-3l13-4c28-6 50 6 59 29 7 20 1 44-17 55-50 29-50 23-9 25l19 1-2 37-18-1c-87-3-87-49-8-94 0-1 1-5 0-10-2-5-6-8-15-5l-13 3a387 387 0 0 1-16 3c-28 5-48 5-63-6-20-14-14-35 2-51 11-11 26-20 37-21z m-111 155a37 37 0 1 1 0 75 37 37 0 0 1 0-75z m-186-46a37 37 0 1 1 0 74 37 37 0 0 1 0-74z m-233-326a37 37 0 1 1 0 74 37 37 0 0 1 0-74z m419-252a37 37 0 1 1 0-75 37 37 0 0 1 0 75z m-280 140a37 37 0 1 1 0-75 37 37 0 0 1 0 75z m559 46a37 37 0 1 1 0-74 37 37 0 0 1 0 74z m-25 75l-23 5c-62 14-128 5-197-28a274 274 0 0 0 24-152l-3-23 0-1c-385-144-583-209-595-195-12 14 87 198 296 552a7 7 0 0 0 0 0l0 0 23-2c44-3 85-15 121-34 13 35 19 63 19 81 0 23-9 25-56 4l-21-10-20 42 22 10c72 34 122 20 122-46 0-26-9-62-26-108 18-14 35-30 50-49 8-10 15-19 21-29 79 39 156 50 231 33l23-5-11-45z m-380-47l-8-16c3-4 6-8 10-11l9 8a701 701 0 0 0 85 61 332 332 0 0 1-16 21 282 282 0 0 1-33 34 1791 1791 0 0 0-47-97z m-103 157c17-52 38-96 63-133 20 38 36 72 48 101-31 18-67 29-106 32l-5 0z m175-300c-51 33-92 68-123 105-31 36-57 80-78 132-79-134-138-239-179-314-13-26-25-48-34-67 20 6 44 14 71 23 82 27 196 67 343 121z m47 144c-26-15-52-34-78-56l-5-4a675 675 0 0 1 101-69l0 5a230 230 0 0 1-18 124z m184-112a37 37 0 1 1-75 0 37 37 0 0 1 75 0z m9-149a37 37 0 1 1 0-75 37 37 0 0 1 0 75z" horiz-adv-x="1000" />

<glyph glyph-name="star" unicode="&#xe80b;" d="M499 678l-101-204-226-33 163-158-38-225 202 106 203-106-39 225 164 158-226 33-102 204z m-129-166l129 260 129-260 289-42-209-202 49-286-258 135-258-135 50 286-209 202 288 42z" horiz-adv-x="1000" />

<glyph glyph-name="smile" unicode="&#xe80c;" d="M500 788c-242 0-437-196-437-438s195-438 437-438 438 196 438 438-196 438-438 438z m0-834a396 396 0 1 0 0 792 396 396 0 0 0 0-792z m209 339c-11 0-21-9-21-21 0-79-83-146-188-146s-188 67-188 146a21 21 0 0 1-42 0c0-105 104-187 230-187 126 0 230 82 230 187a21 21 0 0 1-21 21z m-424 130a52 52 0 0 0 104 0 21 21 0 0 1 41 0 93 93 0 0 1-186 0 21 21 0 0 1 41 0z m378 93a93 93 0 0 1-93-93 21 21 0 0 1 41 0 52 52 0 0 0 104 0 21 21 0 0 1 41 0 93 93 0 0 1-93 93z" horiz-adv-x="1000" />

<glyph glyph-name="shop" unicode="&#xe80d;" d="M518 333h-290a21 21 0 0 1-20-20v-225a21 21 0 0 1 20-21h290a21 21 0 0 1 21 21v225a21 21 0 0 1-21 20z m-21-225h-248v184h248v-184z m439 476c-1 0 0 0-1 0l-72 150a21 21 0 0 1-19 12h-688a21 21 0 0 1-19-12l-72-150c0 0 0 0 0 0a21 21 0 0 1-2-9v-37a133 133 0 0 1 72-120v-443a21 21 0 0 1 21-21h688a21 21 0 0 1 21 21v443a133 133 0 0 1 73 120v37a21 21 0 0 1-2 9z m-105 120l53-108h-132l-26 108h105z m-310 0h162l26-108h-188v108z m0-150h194v-85c-24-36-66-61-106-61-34 0-65 15-88 39v107z m-204 150h162v-108h-188l26 108z m-32-150h194v-107c-23-24-54-39-88-39-40 0-82 25-106 61v85z m-116 150h105l-26-108h-131l52 108z m-6-252a91 91 0 0 0-59 86v16h140v-82c-18-18-34-26-52-26-10 0-19 2-28 5 0 0-1 0-1 1z m588-456h-140v296h140v-296z m72 0h-30v317a21 21 0 0 1-21 20h-181a21 21 0 0 1-21-20v-317h-393v410c5-1 10-2 15-2 26 0 48 10 69 27 33-39 81-64 130-64a162 162 0 0 1 109 42 162 162 0 0 1 109-42c49 0 98 25 130 64 21-18 43-27 69-27 5 0 10 1 15 2v-410z m73 542a91 91 0 0 0-58-86c-1-1-2-1-2-1-9-3-18-5-28-5-18 0-34 8-52 26v82h140v-16z m-197-432c10 0 18 9 18 19a18 18 0 0 1-18 19 19 19 0 0 1-18-19 19 19 0 0 1 18-19z" horiz-adv-x="1000" />

<glyph glyph-name="shuffle" unicode="&#xe80e;" d="M83 512h200c40 0 76-20 106-56a261 261 0 0 0 38-57 21 21 0 1 1 38 16 229 229 0 0 1-11 22 304 304 0 0 1-33 47c-38 43-84 70-138 70h-200a21 21 0 0 1 0-42z m635 0l160 0-51-76a21 21 0 1 1 35-23l72 108c1 1 1 1 1 1a20 20 0 0 1 3 11 20 20 0 0 1-3 10c0 1 0 1-1 1l-72 109a21 21 0 1 1-34-23l50-76-160 0c-86 0-136-52-235-209-91-143-135-190-200-190h-200a21 21 0 0 1 0-41h200c86-1 135 52 235 209 91 142 135 190 200 189z m216-368c0 1 0 1 0 2l-73 109a21 21 0 0 1-34-23l51-77-161 1c-42 0-81 18-117 49a291 291 0 0 0-35 35 193 193 0 0 0-11 15 21 21 0 0 1-35-23c2-4 7-10 14-19 11-13 25-27 39-39 43-37 92-60 145-60l160 0-51-77a21 21 0 0 1 35-23l73 109c0 0 0 1 0 1a21 21 0 0 1 3 10l0 1a21 21 0 0 1-3 9z" horiz-adv-x="1000" />

<glyph glyph-name="share" unicode="&#xe80f;" d="M769 491l-103 0h0a21 21 0 0 1 0-41l82 0 0-470h-503l1 471 83 0h0a21 21 0 0 1 0 41l-104 1h0a21 21 0 0 1-21-21l0-513a21 21 0 0 1 20-21h545a21 21 0 0 1 20 21l1 511a21 21 0 0 1-21 21z m-359 153l66 65v-525a21 21 0 0 1 42 0v528l68-69a21 21 0 0 1 29 30l-102 103a21 21 0 0 1-15 6 16 16 0 0 1-8-2 20 20 0 0 1-9-7l-100-100a21 21 0 0 1 29-29z" horiz-adv-x="1000" />

<glyph glyph-name="search" unicode="&#xe810;" d="M890-10l-290 291a280 280 0 0 1 68 183 282 282 0 1 1-282-282 280 280 0 0 1 184 70l290-292a21 21 0 0 1 30 30z m-744 474a240 240 0 1 0 480 0 240 240 0 0 0-480 0z" horiz-adv-x="1000" />

<glyph glyph-name="reel" unicode="&#xe811;" d="M290 529h376v259h-376v-259z m42 217h292v-176h-292v176z m-42-507h376v259h-376v-259z m42 217h292v-176h-292v176z m-42-507h376v259h-376v-259z m42 217h292v-176h-292v176z m-228-254h42v876h-42v-876z m706 876v-876h42v876h-42z m-631-115h78v78h-78v-78z m26 42h11v11l2 2 2-2v-11h11l3-3-3-2h-11v-11l-2-2-2 2v11h-11l-3 2 3 3z m15-5v5h-4v-5h4z m0-145v5h-4v-5h4z m-41-36h78v77h-78v-77z m26 41h11v11l2 2 2-2v-11h11l3-3-3-2h-11v-11l-2-2-2 2v11h-11l-3 2 3 3z m-26-186h78v77h-78v-77z m26 41h11v11l2 2 2-2v-11h11l3-2-3-3h-11v-11l-2-2-2 2v11h-11l-3 3 3 2z m15-5v5h-4v-5h4z m0-145v5h-4v-5h4z m-41-36h78v78h-78v-78z m26 41h11v11l2 2 2-2v-11h11l3-2-3-3h-11v-11l-2-2-2 2v11h-11l-3 3 3 2z m15-150v5h-4v-5h4z m-41-36h78v78h-78v-78z m26 41h11v11l2 3 2-3v-11h11l3-2-3-3h-11v-11l-2-2-2 2v11h-11l-3 3 3 2z m15-150v5h-4v-5h4z m-41-36h78v78h-78v-78z m26 41h11v11l2 3 2-3v-11h11l3-2-3-3h-11v-11l-2-2-2 2v11h-11l-3 3 3 2z m535 720v5h-4v-5h4z m-41-37h79v78h-79v-78z m26 42h11v11l2 2 2-2v-11h11l3-3-3-2h-11v-11l-2-2-2 2v11h-11l-3 2 3 3z m-26-186h79v77h-79v-77z m26 41h11v11l2 2 2-2v-11h11l3-3-3-2h-11v-11l-2-2-2 2v11h-11l-3 2 3 3z m15-5v5h-4v-5h4z m-41-181h79v77h-79v-77z m26 41h11v11l2 2 2-2v-11h11l3-2-3-3h-11v-11l-2-2-2 2v11h-11l-3 3 3 2z m15-5v5h-4v-5h4z m0-145v5h-4v-5h4z m-41-36h79v78h-79v-78z m26 41h11v11l2 2 2-2v-11h11l3-2-3-3h-11v-11l-2-2-2 2v11h-11l-3 3 3 2z m15-150v5h-4v-5h4z m-41-36h79v78h-79v-78z m26 41h11v11l2 3 2-3v-11h11l3-2-3-3h-11v-11l-2-2-2 2v11h-11l-3 3 3 2z m-26-186h79v78h-79v-78z m26 41h11v11l2 3 2-3v-11h11l3-2-3-3h-11v-11l-2-2-2 2v11h-11l-3 3 3 2z m15-5v5h-4v-5h4z" horiz-adv-x="1000" />

<glyph glyph-name="robot" unicode="&#xe812;" d="M688 163h-375a42 42 0 0 1-42-42v-42a42 42 0 0 1 42-41h375a42 42 0 0 1 41 41v42a42 42 0 0 1-41 42z m-313-84h-62v42h62v-42z m104 0h-62v42h62v-42z m104 0h-62v42h62v-42z m105 0h-63v42h63v-42z m145 479h-312v66a83 83 0 1 1-42 0v-66h-312a42 42 0 0 1-42-41v-584a42 42 0 0 1 42-41h666a42 42 0 0 1 42 41v584a42 42 0 0 1-42 41z m-366 146a33 33 0 1 0 66 0 33 33 0 0 0-66 0z m358-762h-650v566h650v-566z m-179 283a104 104 0 1 1 0 208 104 104 0 0 1 0-208z m0 158a54 54 0 1 0 0-108 54 54 0 0 0 0 108z m-292-158a104 104 0 1 1 0 208 104 104 0 0 1 0-208z m0 158a54 54 0 1 0 0-108 54 54 0 0 0 0 108z" horiz-adv-x="1000" />

<glyph glyph-name="restaurant" unicode="&#xe813;" d="M657 746a21 21 0 0 1-21-21v-750a21 21 0 0 1 42 0v256h114a21 21 0 0 1 21 21c0 259-71 494-156 494z m21-473v416c16-19 34-57 50-108 25-85 41-194 43-308h-93z m-200 473a21 21 0 0 1-21-21v-163c0-36-40-69-93-75v238a21 21 0 0 1-42 0v-239c-53 7-93 40-93 76v163a21 21 0 0 1-41 0v-163c0-62 59-109 134-117v-470a21 21 0 0 1 42 0v470c75 8 134 55 134 117v163a21 21 0 0 1-20 21z" horiz-adv-x="1000" />

<glyph glyph-name="quote" unicode="&#xe814;" d="M485 642a21 21 0 0 0-21-21c-172 0-316-123-351-287 37 43 91 71 152 71 111 0 202-91 202-204s-91-205-202-205c-112 0-202 92-202 205v55c0 224 179 407 401 407a21 21 0 0 0 21-21z m432-21a21 21 0 0 1 0 42c-222 0-402-183-402-407v-55c0-113 91-205 202-205s202 92 202 205-90 204-202 204c-60 0-114-28-151-71 35 164 179 287 351 287z" horiz-adv-x="1000" />

<glyph glyph-name="power" unicode="&#xe815;" d="M621 610a21 21 0 1 1-16-39c100-41 166-138 166-247 0-148-122-268-271-268-150 0-271 121-271 269 0 108 67 205 166 246a21 21 0 0 1-16 39c-115-48-191-160-191-285-1-171 139-310 311-311 173 0 313 138 314 310 0 126-77 238-192 286z m-121-240a21 21 0 0 1 21 21l1 289a21 21 0 0 1-42 0l-1-289a21 21 0 0 1 21-21z" horiz-adv-x="1000" />

<glyph glyph-name="portfolio" unicode="&#xe816;" d="M808 596h-160v54c0 53-42 96-94 96h-108c-52 0-94-43-94-96v-54h-160c-71 0-129-60-129-133v-375c0-74 58-134 129-134h616c71 0 130 60 130 134v375c0 73-59 133-130 133z m-450-42h284v-558h-284v558z m-42-558h-67v558h67v-558z m368 558h67v-558h-67v558z m-290 96c0 30 24 54 52 54h108c29 0 52-24 52-54v-54h-212v54z m-290-562v375c0 50 40 91 88 91h16v-558h-16c-48 0-88 41-88 92z m792 0c0-51-40-92-88-92h-15v558h15c48 0 88-41 88-91v-375z" horiz-adv-x="1000" />

<glyph glyph-name="podcast" unicode="&#xe817;" d="M500 172c-96 0-184-128-184-239a21 21 0 0 1 21-21h326a21 21 0 0 1 21 21c0 111-87 239-184 239z m-141-218c10 85 77 176 141 176s131-91 141-176h-282z m141 248a130 130 0 1 1 0 259 130 130 0 0 1 0-259z m0 218a88 88 0 1 0 0-176 88 88 0 0 0 0 176z m207 137a293 293 0 0 1-414-414 21 21 0 0 1 30 30 251 251 0 0 0 0 354 251 251 0 0 0 354 0 251 251 0 0 0 0-354 21 21 0 0 1 30-30 293 293 0 0 1 0 414z m102 102c-170 171-447 171-618 0-171-170-171-447 0-618a21 21 0 1 1 29 29c-154 155-154 405 0 560s405 155 560 0 155-405 0-560a21 21 0 0 1 29-29c171 171 171 448 0 618z" horiz-adv-x="1000" />

<glyph glyph-name="plus" unicode="&#xe818;" d="M875 371h-354l1 354a21 21 0 0 1-42 0l0-354h-355a21 21 0 0 1 0-42h355l-1-354a21 21 0 0 1 42 0l0 354h354a21 21 0 0 1 0 42z" horiz-adv-x="1000" />

<glyph glyph-name="play" unicode="&#xe819;" d="M718 369l-334 166a21 21 0 0 1-30-18v-334a21 21 0 0 1 30-18l334 166a21 21 0 0 1 0 38z m-322-152v266l266-133-266-133z m376 446h-544c-91 0-165-80-165-177v-272c0-97 74-176 165-176h544c91 0 166 79 166 176v272c0 97-75 177-166 177z m124-449c0-74-56-135-124-135h-544c-68 0-124 61-124 135v272c0 75 56 135 124 135h544c68 0 124-60 124-135v-272z" horiz-adv-x="1000" />

<glyph glyph-name="place" unicode="&#xe81a;" d="M917 31h-52v341l41-25a21 21 0 0 1 22 35l-526 319a21 21 0 0 1-21-35l44-27v-189l-349-137a21 21 0 1 1 15-39l44 18v-261h-52a21 21 0 0 1 0-42h834a21 21 0 0 1 0 42z m-565 0h-103v136h103v-136z m73 0h-31v157a21 21 0 0 1-21 20h-145a21 21 0 0 1-20-20v-157h-31v277l248 97v-374z m199 0h-85v100h85v-100z m127 0h-85v100h85v-100z m72 0h-30v121a21 21 0 0 1-21 21h-254a21 21 0 0 1-21-21v-121h-30v582l356-216v-366z m-250 295c41 0 75 33 75 74 0 41-34 74-75 74s-76-33-76-74c0-41 34-74 76-74z m0 106c18 0 33-14 33-32 0-18-15-32-33-32s-34 14-34 32a33 33 0 0 0 34 32z m-345-194h145a21 21 0 0 1 0 41h-145a21 21 0 0 1 0-41z" horiz-adv-x="1000" />

<glyph glyph-name="photo" unicode="&#xe81b;" d="M63 788v-852h851v852h-851z m809-810h-768v128h768v-128z m-581 170l94 157 87-106a21 21 0 0 1 34 2l148 222 103-275h-466z m581 0h-71l-123 328a21 21 0 0 1-36 4l-156-233-88 107a21 21 0 0 1-34-3l-122-203h-138v598h768v-598z m-554 342a85 85 0 1 1 0 170 85 85 0 0 1 0-170z m0 128a43 43 0 1 0 0-86 43 43 0 0 0 0 86z" horiz-adv-x="1000" />

<glyph glyph-name="photos" unicode="&#xe81c;" d="M779 788h-716v-717h716v717z m-42-675h-633v77h633v-77z m-498 119l85 142 81-97a21 21 0 0 1 35 5l79 174 89-224h-369z m498 0h-84l-114 285a21 21 0 0 1-38 0l-86-188-77 94a21 21 0 0 1-34-3l-113-188h-87v514h633v-514z m103 322a21 21 0 1 1-4-41l58-6-50-551-572 52a21 21 0 0 1-4-41l613-56 58 634-99 9z m-578-46a80 80 0 1 1 0 161 80 80 0 0 1 0-161z m0 119a39 39 0 1 0 0-78 39 39 0 0 0 0 78z" horiz-adv-x="1000" />

<glyph glyph-name="person" unicode="&#xe81d;" d="M804 160l-184 66v90c56 47 93 125 93 213 0 142-96 259-218 259-121 0-218-117-218-259 0-93 41-175 104-221v-82l-184-66a140 140 0 0 1-93-132v-96h792v96a140 140 0 0 1-92 132z m-485 369c0 120 80 217 176 217s177-97 177-217-80-218-177-218-176 97-176 218z m535-555h-708v54c0 42 26 79 65 93l197 71 14 4v89a188 188 0 0 1 73-15 188 188 0 0 1 83 19v-92l211-76a98 98 0 0 0 65-93v-54z" horiz-adv-x="1000" />

<glyph glyph-name="paper-plane" unicode="&#xe81e;" d="M937 726a19 19 0 0 1 0 3 20 20 0 0 1-1 3 21 21 0 0 1-1 3c-1 1-1 2-2 2a23 23 0 0 1-5 5 19 19 0 0 1-6 3c-1 0-2 0-3 1-1 0-2 0-3 0a20 20 0 0 1-8-2l-833-344a21 21 0 0 1 1-39l313-121v-276c0-21 28-29 38-10l118 202 217-119a21 21 0 0 1 30 13l145 671 0 0a22 22 0 0 1 0 5z m-119-64l-314-291-99-93-266 103 679 281z m-388-621v178l79-43-79-135z m327 45l-312 172 216 201 221 206-125-579z" horiz-adv-x="1000" />

<glyph glyph-name="pages" unicode="&#xe81f;" d="M894 594l0 0a21 21 0 0 1-4 6l0 1-188 180 0 1c-1 1-2 1-3 2-1 0-2 1-3 2a21 21 0 0 1-8 2h-338a21 21 0 0 1-21-21v-88h-204a21 21 0 0 1-21-21v-725a21 21 0 0 1 21-21h525a21 21 0 0 1 21 21v88h204a21 21 0 0 1 21 21v544a21 21 0 0 1-2 8z m-186 124l116-112h-116v112z m-79-764h-483v683h296v-160a21 21 0 0 1 21-21h166v-502z m-31 544h-115v111l115-111z m73-435v414a21 21 0 0 1-2 8c0 0 0 1 0 1a21 21 0 0 1-4 6l0 0-188 181 0 0 0 0c-1 1-2 1-3 2-1 1-2 2-4 2a21 21 0 0 1-7 2h-92v67h296v-160a21 21 0 0 1 21-21h166v-502h-183z" horiz-adv-x="1000" />

<glyph glyph-name="page-text" unicode="&#xe820;" d="M811 557c0 1-1 2-2 3-1 1-1 3-2 4l-206 217 0 0a20 20 0 0 1-6 4c0 0 0 1-1 1a21 21 0 0 1-8 2h-378a21 21 0 0 1-20-21v-834a21 21 0 0 1 20-21h584a21 21 0 0 1 21 21v616a21 21 0 0 1-2 8z m-204 157l136-144h-136v144z m164-760h-542v792h336v-197a21 21 0 0 1 21-20h185v-575z m-425 538h154a21 21 0 0 1 0 42h-154a21 21 0 0 1 0-42z m-21-88a21 21 0 0 1 21-20h308a21 21 0 0 1 0 41h-308a21 21 0 0 1-21-21z m329-87h-308a21 21 0 0 1 0-42h308a21 21 0 0 1 0 42z m0-109h-308a21 21 0 0 1 0-42h308a21 21 0 0 1 0 42z m0-109h-308a21 21 0 0 1 0-41h308a21 21 0 0 1 0 41z" horiz-adv-x="1000" />

<glyph glyph-name="nodes" unicode="&#xe821;" d="M900 338c-28 0-53-13-69-34l-96 39a186 186 0 0 1 13 67 187 187 0 0 1-37 111l150 151c12-6 25-10 39-10 49 0 88 40 88 88s-39 88-88 88-88-39-88-88c0-14 4-27 10-39l-151-150a186 186 0 0 1-111 37c-67 0-126-36-159-89l-214 91c0 4 1 7 1 10 0 49-39 88-88 88s-88-39-88-88 40-88 88-88c25 0 48 11 64 27l215-92c-4-15-7-31-7-47 0-42 14-80 38-112l-271-269a87 87 0 0 1-39 9c-48 0-88-40-88-88s40-88 88-88 88 39 88 88c0 14-4 27-9 39l270 270a187 187 0 0 1 83-34v-192a88 88 0 0 1-60-83c0-49 39-88 88-88s88 39 88 88c0 39-25 71-60 83v192a186 186 0 0 1 119 69l105-43c0 0 0-1 0-1 0-48 39-88 88-88s88 40 88 88-39 88-88 88z m-800 240a32 32 0 0 0 0 64c18 0 32-14 32-32s-14-32-32-32z m800 204a32 32 0 0 0 0-64 32 32 0 0 0 0 64z m-800-864a32 32 0 1 0 0 64 32 32 0 0 0 0-64z m460 0a32 32 0 1 0 0 64 32 32 0 0 0 0-64z m0 360c-73 0-132 59-132 132s59 132 132 132c73 0 132-59 132-132s-59-132-132-132z m340-60a32 32 0 1 0 0 64 32 32 0 0 0 0-64z" horiz-adv-x="1000" />

<glyph glyph-name="page" unicode="&#xe822;" d="M811 557c0 1-1 2-2 3-1 1-1 3-2 4l-206 217 0 0a20 20 0 0 1-6 4c0 0 0 1-1 1a21 21 0 0 1-8 2h-378a21 21 0 0 1-20-21v-834a21 21 0 0 1 20-21h584a21 21 0 0 1 21 21v616a21 21 0 0 1-2 8z m-204 157l136-144h-136v144z m-378-760v792h336v-197a21 21 0 0 1 21-20h185v-575h-542z" horiz-adv-x="1000" />

<glyph glyph-name="music" unicode="&#xe823;" d="M405 618v-428h-88a130 130 0 0 1 0-259c70 0 130 61 130 129v403l357 146v-274h-88a130 130 0 0 1 0-259c69 0 129 61 129 129v593l-440-180z m0-558c0-45-41-88-88-88a88 88 0 1 0 0 176h88v-88z m399 145c0-45-42-88-88-88a88 88 0 0 0 0 176h88v-88z m-357 303v82l357 146v-82l-357-146z" horiz-adv-x="1000" />

<glyph glyph-name="megaphone" unicode="&#xe824;" d="M551 660a21 21 0 0 1-22-2l-262-200h-126c-43 0-78-29-78-64v-88c0-35 35-64 78-64h126l262-200a21 21 0 0 1 22-2 21 21 0 0 1 12 18v584a21 21 0 0 1-12 18z m-30-559l-234 178a21 21 0 0 1-13 4h-133c-22 0-37 12-37 23v88c0 11 15 23 37 23h133c5 0 9 1 13 4l234 179v-499z m282 532a21 21 0 0 1-26-32c76-61 119-153 119-251 0-98-43-190-119-250a21 21 0 0 1 26-33c86 69 135 172 135 283 0 111-49 214-135 283z m-91-66a21 21 0 1 1-25-34c61-46 100-118 100-183 0-65-39-137-100-183a21 21 0 1 1 25-33c71 54 117 139 117 216 0 78-46 163-117 217z m-74-83a21 21 0 0 1-23-35c29-19 64-52 64-99 0-47-35-80-64-99a21 21 0 1 1 23-35c53 35 82 83 82 134 0 51-29 99-82 134z" horiz-adv-x="1000" />

<glyph glyph-name="medium" unicode="&#xe825;" d="M877 608v-516a21 21 0 0 1 8-20l72-70v-16h-360v16l74 71c8 8 8 10 8 21v417l-206-523h-28l-240 523v-351c-2-14 3-29 13-40l97-117v-15h-273v15l96 117a47 47 0 0 1 12 40v405a36 36 0 0 1-11 30l-86 104v15h266l205-451 181 451h253v-15l-73-71a22 22 0 0 1-8-20z" horiz-adv-x="1000" />

<glyph glyph-name="login" unicode="&#xe826;" d="M869 746l-488-1a21 21 0 0 1-21-21l0-143a21 21 0 1 1 42 1l0 121 446 1v-707l-445-1 0 122a21 21 0 0 1-42 0l1-143a21 21 0 0 1 21-21l486 1a21 21 0 0 1 20 21v749c0 12-9 21-20 21z m-335-553a21 21 0 0 1 30-29l164 170a21 21 0 0 1 3 23 20 20 0 0 1-7 9l-159 168a21 21 0 0 1-30-29l128-134-537 0a21 21 0 0 1 0-42l539 0-131-136z" horiz-adv-x="1000" />

<glyph glyph-name="magnet" unicode="&#xe827;" d="M968 344l-110 108a25 25 0 0 1-35 0l-290-283c-59-57-155-57-214 0a143 143 0 0 0 0 206l290 283a25 25 0 0 1 0 36l-110 107a25 25 0 0 1-35 0l-318-309a343 343 0 0 1 0-493c140-136 365-136 505 0l317 309a25 25 0 0 1 0 36z m-487 404l75-72-47-46-75 73 47 45z m135-713c-120-117-315-117-435 0a293 293 0 0 0 0 421l218 212 74-73-188-184a193 193 0 0 1 0-278c78-76 205-76 283 0l189 185 75-73-216-210z m252 245l-75 73 47 46 75-73-47-46z" horiz-adv-x="1000" />

<glyph glyph-name="lock" unicode="&#xe828;" d="M479 204v-89a21 21 0 0 1 42 0v88a41 41 0 0 1 22 36 42 42 0 1 1-83 0c0-15 8-27 19-35z m258 257v106c0 122-107 221-237 221-130 0-236-99-236-221v-106h-118v-549h708v549h-117z m-432 106c0 99 87 179 195 179 108 0 195-80 195-179v-106h-390v106z m508-613h-625v466h625v-466z" horiz-adv-x="1000" />

<glyph glyph-name="location" unicode="&#xe829;" d="M500 788c-172 0-312-131-312-293 0-57 36-147 100-264a2751 2751 0 0 1 48-84 3909 3909 0 0 1 147-226 21 21 0 0 1 34 0 4010 4010 0 0 1 147 226c17 29 33 57 48 84 64 117 100 207 100 264 1 162-140 293-312 293z m176-537a2495 2495 0 0 0-48-82 3793 3793 0 0 0-128-199 3837 3837 0 0 0-128 199 2666 2666 0 0 0-48 82c-60 110-95 196-95 244 0 138 121 251 271 251s271-113 271-251c0-48-35-134-95-244z m-176 374c-76 0-137-58-137-130 0-72 61-130 137-130 76 0 138 58 138 130 0 72-62 130-138 130z m0-218c-53 0-96 40-96 88 0 48 43 88 96 88 53 0 96-40 96-88 0-48-43-88-96-88z" horiz-adv-x="1000" />

<glyph glyph-name="link" unicode="&#xe82a;" d="M850 637l-63 63a128 128 0 0 1-181 0l-142-142a92 92 0 0 1 0-130l3-3a21 21 0 0 1 30 29l-3 3a51 51 0 0 0 0 72l141 141a87 87 0 0 0 123 0l62-63a87 87 0 0 0 0-122l-141-141a51 51 0 0 0-72 0l-3 3a21 21 0 0 1-29-30l3-3a92 92 0 0 1 130 0l142 142a128 128 0 0 1 0 181z m-317-361a21 21 0 0 1-30-30l3-3a51 51 0 0 0 0-72l-141-141a87 87 0 0 0-122 0l-63 63a87 87 0 0 0 0 122l141 141a51 51 0 0 0 72 0l3-3a21 21 0 0 1 29 30l-3 3a92 92 0 0 1-130 0l-142-142a128 128 0 0 1 0-181l63-63a128 128 0 0 1 181 0l142 142a92 92 0 0 1 0 130l-3 4z m-187-80a21 21 0 0 1 30 0l278 278a21 21 0 0 1-30 30l-278-278a21 21 0 0 1 0-30z" horiz-adv-x="1000" />

<glyph glyph-name="chat" unicode="&#xe82b;" d="M756 439v143c0 91-74 164-165 164h-363c-91 0-165-73-165-164v-143c0-90 74-163 165-163h34v-122a21 21 0 0 1 35-15l139 137h155c91 0 165 73 165 163z m-328-122a21 21 0 0 1-15-6l-109-108v93a21 21 0 0 1-21 21h-55c-68 0-124 55-124 122v143c0 68 56 122 124 122h363c68 0 124-54 124-122v-143c0-67-56-122-124-122h-163z m398 36a21 21 0 0 1 0-42c39 0 70-30 70-68v-72c0-37-31-68-70-68h-54a21 21 0 0 1-21-21v-57l-73 72a21 21 0 0 1-15 6h-91c-38 0-69 31-69 68a21 21 0 0 1-42 0c0-60 50-110 111-110h83l102-101a21 21 0 0 1 36 15v86h33c62 0 112 50 112 110v72c0 61-50 110-112 110z" horiz-adv-x="1000" />

<glyph glyph-name="hireme" unicode="&#xe82c;" d="M724 240l-148 50v203c0 42-34 76-76 76-42 0-75-34-75-75v-336c-53 67-89 83-127 83-19 0-35-10-44-25-14-25-7-60 7-81l146-219a21 21 0 0 1 18-9h291a21 21 0 0 1 20 17l37 200c11 45-1 100-49 116z m9-108l-35-183h-262l-140 209c-7 11-10 29-5 38 0 1 1 3 7 3 26 0 59-9 130-118a21 21 0 1 1 38 11v402c0 18 15 33 34 33 19 0 34-15 34-34v-218a21 21 0 0 1 14-20l163-55c24-8 28-40 22-68z m-402 184a21 21 0 0 1 0 30 233 233 0 0 0-68 166c0 62 24 121 68 165a235 235 0 0 0 332 0 235 235 0 0 0 0-331 21 21 0 0 1 29-30 276 276 0 0 1 0 391 276 276 0 0 1-390 0 274 274 0 0 1-81-195c0-74 29-144 81-196a21 21 0 0 1 29 0z" horiz-adv-x="1000" />

<glyph glyph-name="lightbulb" unicode="&#xe82d;" d="M500 636c-136 0-246-111-246-248a248 248 0 0 1 169-235v-30a21 21 0 0 1 21-21h112a21 21 0 0 1 21 21v30a248 248 0 0 1 169 235c0 137-110 248-246 248z m51-448a21 21 0 0 1-16-20v-24h-70v24a21 21 0 0 1-16 20c-89 24-153 105-153 200 0 114 91 206 204 206 113 0 204-92 204-206 0-95-63-176-153-200z m-32-196h-38a21 21 0 0 1 0-42h38a21 21 0 0 1 0 42z m37 76h-112a21 21 0 0 1 0-42h112a21 21 0 0 1 0 42z m-56 602a21 21 0 0 1 21 21v76a21 21 0 0 1-42 0v-76a21 21 0 0 1 21-21z m375-261h-75a21 21 0 0 1 0-42h75a21 21 0 0 1 0 42z m-675 0h-75a21 21 0 0 1 0-42h75a21 21 0 0 1 0 42z m73 179a21 21 0 0 1 30 29l-80 80a21 21 0 0 1-29-29l79-80z m454 0l80 80a21 21 0 0 1-30 29l-80-80a21 21 0 1 1 30-29z" horiz-adv-x="1000" />

<glyph glyph-name="handshake" unicode="&#xe82e;" d="M907 383l-36 100c-21 57-67 101-123 117-36 9-88 5-153-10a60 60 0 0 1-3 31 53 53 0 0 1-66 31c1 0-3 0-9-1a2864 2864 0 0 1-138-24 1791 1791 0 0 1-39-8c-18-4-34-8-49-12-55-16-101-60-122-117l-37-100c-34-93 7-195 93-226l108-39 5-2 62-23h0l94-34c17-6 36-4 51 4l270 87c86 31 126 133 92 226z m-560-219l-108 39c-63 23-94 100-68 173l37 100c16 45 52 79 94 90 14 4 30 8 48 12 11 3 24 5 37 8a2747 2747 0 0 0 136 23c6 1 10 2 12 2 10 3 16 0 18-6a21 21 0 0 0-8-24c-1-1-2-3-4-4a1459 1459 0 0 1-118-38l-4-1-3-2a361 361 0 0 1-21-9c-33-15-51-33-50-61 1-40 26-63 70-58 6 2 21 6 48 16 25 8 57 19 95 33 14-6 32-12 52-21a7286 7286 0 0 0 79-32l16-7c12-5 18-19 13-34-6-14-19-21-30-17l-54 19-108 39a21 21 0 1 1-14-39l161-59h0l54-19c11-4 17-19 12-33-5-15-19-22-30-18l-162 59h0l-54 19a21 21 0 0 1-14-39l54-19 108-40c11-4 16-18 11-33-5-14-19-21-30-17l-162 58 0 1-40 14a21 21 0 1 1-14-39l121-44c11-4 17-19 12-33a30 30 0 0 0-12-15l-12-4c-2 0-5 0-7 1l-161 59z m250-33l-15-5c0 3 0 7 0 10l15-5z m204 65l-114-36c1 3 3 6 4 9 4 9 5 19 5 28 33-12 69 8 82 43 13 34-3 73-35 85 6 7 11 15 14 24 13 35-3 74-37 87l-15 6a6148 6148 0 0 1-79 33 1926 1926 0 0 1-59 23 21 21 0 0 1-6 1 21 21 0 0 1-11-1c-41-14-74-26-100-35-27-9-41-14-43-15-16-1-20 3-21 19 0 6 8 13 27 22 5 3 8 4 19 9l3 1 3 1c15 6 34 13 57 20a1221 1221 0 0 0 101 28c62 15 112 19 141 11 43-11 78-45 95-91l36-100c27-72-4-149-67-172z" horiz-adv-x="1000" />

<glyph glyph-name="angle-left" unicode="&#xe82f;" d="M373 402l-33-33 265-265 33 33-231 232 235 236-33 33-236-236z" horiz-adv-x="1000" />

<glyph glyph-name="edit" unicode="&#xe830;" d="M833 329a21 21 0 0 1-20-20v-344h-709v708h437a21 21 0 0 1 0 42h-458a21 21 0 0 1-20-21v-750a21 21 0 0 1 20-21h750a21 21 0 0 1 21 21v365a21 21 0 0 1-21 20z m81 436c-28 26-75 26-103 0l-37-37h0l-382-374 0 0 0 0c0 0-1-1-1-1-1-1-2-2-3-4l-73-143a21 21 0 0 1 28-29l146 72a21 21 0 0 1 6 4l419 410a71 71 0 0 1 0 102z m-534-523l32 63 32-31-64-32z m100 55l-43 43 352 345 44-43-353-345z m405 396l-22-22-44 43 22 21a33 33 0 0 0 44 0 29 29 0 0 0 0-42z" horiz-adv-x="1000" />

<glyph glyph-name="globe" unicode="&#xe831;" d="M500 786c-6 0-12 0-19 0-235-10-418-195-418-428 0-245 195-447 436-447 242 0 439 197 439 439 0 242-195 436-438 436z m-394-457h194a656 656 0 0 1 37-175h-178a408 408 0 0 0-53 175z m192 42h-193a382 382 0 0 0 49 176h173a564 564 0 0 1-29-176z m74 176h257a524 524 0 0 0 31-176h-320c0 60 11 119 32 176z m-30-218h317a619 619 0 0 0-40-175h-238a617 617 0 0 0-39 175z m358 0h195a395 395 0 0 0-51-175h-181c21 58 33 117 37 175z m2 42a564 564 0 0 1-29 176h171a392 392 0 0 0 51-176h-193z m114 217h-158a632 632 0 0 1-90 150 393 393 0 0 0 248-150z m-307 156a615 615 0 0 0 103-156h-224a613 613 0 0 0 104 156c3 0 5 0 8 0 3 0 6 0 9 0z m-77-5a635 635 0 0 1-89-151h-162c59 79 148 134 251 151z m-245-627h167a887 887 0 0 1 85-154c-103 16-192 73-252 154z m306-159a886 886 0 0 0-94 159h203a889 889 0 0 0-94-159c-3 0-6 0-9 0-2 0-4 0-6 0z m69 5a889 889 0 0 1 85 154h169a396 396 0 0 0-254-154z" horiz-adv-x="1000" />

<glyph glyph-name="gmail" unicode="&#xe832;" d="M826 693l-7-6h-629l-7 6h-141v-684l134 0v3h652v-5h130v686h-132z m-57-49l-264-227-266 227h530z m-593-122l234-192-234-174v366z m652-473h-652v61l263 197 66-54 60 50 263-198v-56z m0 102l-234 175 234 194v-369z" horiz-adv-x="1000" />

<glyph glyph-name="food" unicode="&#xe833;" d="M319 640a18 18 0 1 1 0-36 18 18 0 0 1 0 36z m90 36a18 18 0 1 1 0-36 18 18 0 0 1 0 36z m182 0a18 18 0 1 1 0-36 18 18 0 0 1 0 36z m-91-36a18 18 0 1 1 0-36 18 18 0 0 1 0 36z m181 0a18 18 0 1 1 0-36 18 18 0 0 1 0 36z m257-381c0 27-12 51-30 68 18 13 30 32 30 59 0 28-19 48-49 61a178 178 0 0 1-25 10c-8 190-165 331-364 331s-356-141-364-331a178 178 0 0 1-25-10c-29-13-48-33-48-61 0-27 11-46 29-59a93 93 0 0 1-29-68c0-29 13-55 35-72a93 93 0 0 1-35-72c0-45 31-82 72-91v-18a93 93 0 0 1 93-94h544a93 93 0 0 1 93 94v18a93 93 0 0 1 73 91c0 29-14 55-36 72a93 93 0 0 1 36 72z m-438 487c175 0 312-120 323-285h-646c11 165 148 285 323 285z m-344-683a52 52 0 0 0 0 103h339l207-103h-546z m432 103h188l-63-62-125 62z m235-160c0-29-23-52-51-52h-544a52 52 0 0 0-51 52v15h646v-15z m21 57h-113c0 0 1 0 1 1l103 102h9a52 52 0 0 0 0-103z m0 145h-688a52 52 0 0 0 0 103 115 115 0 0 1 48 10c23-29 57-46 97-46 40 0 71 12 92 37 25-24 64-37 107-37 43 0 82 13 107 37 22-25 52-37 92-37 40 0 74 17 97 46 14-6 31-10 48-10a52 52 0 1 0 0-103z m0 145c-16 0-32 5-40 12a21 21 0 0 1-32-5c-16-28-41-44-73-44-37 0-58 13-71 42a21 21 0 0 1-38 0c-12-26-47-42-90-42-43 0-78 16-89 42a21 21 0 0 1-39 0c-13-29-33-42-71-42-32 0-57 16-73 44a21 21 0 0 1-32 5c-8-7-24-12-40-12-35 0-52 10-52 33 0 7 8 16 25 24 11 5 22 8 29 10h684c7-2 19-5 30-10 16-8 24-17 24-24 0-22-17-33-52-33z" horiz-adv-x="1000" />

<glyph glyph-name="flag" unicode="&#xe834;" d="M185 770v-840c0-12-10-22-22-22s-23 10-23 22v840c0 12 10 22 23 22s22-10 22-22z m717-98v-440a22 22 0 0 0-17-21 1191 1191 0 0 0-71-16c-32-6-64-10-93-13-113-9-185 9-185 77 0 26-47 34-134 19-23-4-49-9-75-16a1271 1271 0 0 1-81-24c-15-5-30 6-30 21v438c0 9 6 18 15 21a1283 1283 0 0 0 84 25 1007 1007 0 0 0 79 17c114 19 187 7 187-63 0-28 48-40 136-32a951 951 0 0 1 87 13 1330 1330 0 0 1 69 15c15 4 29-7 29-21z m-46-28c-13-3-28-6-43-9-32-6-63-11-92-13-113-11-185 7-185 75 0 26-47 34-134 20-23-4-49-10-75-17-20-5-40-11-58-16l-8-3v-392c17 5 35 10 54 15a987 987 0 0 0 79 17c114 20 187 7 187-62 0-28 48-41 136-33 28 3 58 7 88 12 18 4 34 7 49 11l2 0v395z" horiz-adv-x="1000" />

<glyph glyph-name="exchange" unicode="&#xe835;" d="M961 136a21 21 0 0 1-6 15l-163 160a21 21 0 0 1-29-29l127-125h-699a21 21 0 0 1 0-42h699l-127-125a21 21 0 0 1 29-30l163 161 0 0a20 20 0 0 1 5 7 20 20 0 0 1 1 8v0z m-700 253a21 21 0 0 1 0 29l-127 126h699a21 21 0 0 1 0 41h-699l127 125a21 21 0 1 1-29 30l-163-161 0 0a21 21 0 0 1 0-29l163-161a21 21 0 0 1 29 0z" horiz-adv-x="1000" />

<glyph glyph-name="ellipsis" unicode="&#xe836;" d="M167 433a83 83 0 1 1 0-166 83 83 0 0 1 0 166z m0-125a42 42 0 1 0 0 84 42 42 0 0 0 0-84z m666 125a83 83 0 1 1 0-166 83 83 0 0 1 0 166z m0-125a42 42 0 1 0 0 84 42 42 0 0 0 0-84z m-333 125a83 83 0 1 1 0-166 83 83 0 0 1 0 166z m0-125a42 42 0 1 0 0 84 42 42 0 0 0 0-84z" horiz-adv-x="1000" />

<glyph glyph-name="email" unicode="&#xe837;" d="M857 663h-714c-45 0-80-38-80-84v-458c0-46 35-83 80-83h714c45 0 81 37 81 83v458c0 46-36 84-81 84z m0-42c2 0 4-1 6-1l-363-305-363 305c2 0 4 1 6 1h714z m39-500c0-23-18-42-39-42h-714c-21 0-39 19-39 42v458c0 4 1 8 2 12l381-319a21 21 0 0 1 26 0l381 319c1-4 2-8 2-12v-458z" horiz-adv-x="1000" />

<glyph glyph-name="education" unicode="&#xe838;" d="M928 446l-416 218a25 25 0 0 1-24 0l-416-218a25 25 0 0 1 0-44l131-68v-146a79 79 0 0 1-54-75 79 79 0 1 1 159 0c0 35-23 65-55 75v119l235-122a25 25 0 0 1 24 0l235 122v-46c0-72-109-156-247-156-40 0-79 6-120 17a25 25 0 0 1-13-48c45-12 88-19 133-19 164 0 297 103 297 206v73l131 68a25 25 0 0 1 0 44z m-670-333a29 29 0 1 0-59 0 29 29 0 0 0 59 0z m242 122l-204 107 211 58a25 25 0 1 1-14 48l-262-73-94 49 363 190 363-190-363-189z" horiz-adv-x="1000" />

<glyph glyph-name="angle-right" unicode="&#xe839;" d="M674 402l33-33-265-265-33 33 232 232-236 236 33 33 236-236z" horiz-adv-x="1000" />

<glyph glyph-name="doc" unicode="&#xe83b;" d="M591 679h-399a21 21 0 0 1 0-42h399a21 21 0 0 1 0 42z m-399-368h181a21 21 0 0 1 21 21v217a21 21 0 0 1-21 21h-181a21 21 0 0 1-21-21v-217a21 21 0 0 1 21-21z m21 218h139v-176h-139v176z m378-31h-109a21 21 0 0 1 0-42h109a21 21 0 0 1 0 42z m0-73h-145a21 21 0 0 1 0-41h145a21 21 0 0 1 0 41z m0-72h-145a21 21 0 0 1 0-42h145a21 21 0 0 1 0 42z m0-73h-399a21 21 0 0 1 0-41h399a21 21 0 0 1 0 41z m0-72h-399a21 21 0 0 1 0-42h399a21 21 0 0 1 0 42z m0-73h-399a21 21 0 0 1 0-41h399a21 21 0 0 1 0 41z m326 544h-124v33a21 21 0 0 1-21 21h-52v34a21 21 0 0 1-21 21h-616a21 21 0 0 1-20-21v-725a130 130 0 0 1 129-130h616a130 130 0 0 1 130 130v616a21 21 0 0 1-21 21z m-725-725a88 88 0 0 0-88 88v704h575v-704c0-34 13-65 34-88h-521z m601 611h30v-523a15 15 0 1 0-30 0v523z m103-523a88 88 0 0 0-176 0v650h31v-650a57 57 0 0 1 114 0v544a21 21 0 0 1-21 20h-51v31h103v-595z" horiz-adv-x="1000" />

<glyph glyph-name="download-arrow" unicode="&#xe83c;" d="M875 159a21 21 0 0 1-21-21v-65c0-43-34-77-77-77h-554a77 77 0 0 0-77 77v65a21 21 0 0 1-42 0v-65a119 119 0 0 1 119-119h554a119 119 0 0 1 119 119v65a21 21 0 0 1-21 21z m-390-32a21 21 0 0 1 30 0l238 239a21 21 0 0 1 0 29 21 21 0 0 1-29 0l-203-203v533a21 21 0 0 1-42 0v-533l-203 203a21 21 0 0 1-29-29l238-239z" horiz-adv-x="1000" />

<glyph glyph-name="date" unicode="&#xe83d;" d="M500 788c-242 0-437-196-437-438s195-438 437-438 438 196 438 438-196 438-438 438z m0-834a396 396 0 1 0 0 792 396 396 0 0 0 0-792z m230 381h-460a21 21 0 0 1-21-21 251 251 0 1 1 502 0 21 21 0 0 1-21 21z m-230-230a209 209 0 0 0-208 188h416a209 209 0 0 0-208-188z m-235 297a21 21 0 0 1 20 21 52 52 0 0 0 104 0 21 21 0 0 1 41 0 93 93 0 0 1-186 0 21 21 0 0 1 21-21z m398 114a93 93 0 0 1-93-93 21 21 0 0 1 41 0 52 52 0 0 0 104 0 21 21 0 0 1 41 0 93 93 0 0 1-93 93z" horiz-adv-x="1000" />

<glyph glyph-name="design" unicode="&#xe83e;" d="M917 788h-834a21 21 0 0 1-20-21v-834a21 21 0 0 1 20-21h834a21 21 0 0 1 21 21v834a21 21 0 0 1-21 21z m-21-42v-186h-792v186h792z m-792-227h224v-565h-224v565z m265-565v565h527v-565h-527z" horiz-adv-x="1000" />

<glyph glyph-name="credit-card" unicode="&#xe83f;" d="M844 663h-688c-52 0-93-48-93-107v-412c0-59 41-106 93-106h688c52 0 94 47 94 106v412c0 59-42 107-94 107z m-740-107c0 32 23 58 52 58h688c29 0 52-26 52-58v-39h-792v39z m792-412c0-32-23-58-52-58h-688c-29 0-52 26-52 58v248h792v-248z m-217 123a21 21 0 0 0 20 21h109a21 21 0 0 0 0-42h-109a21 21 0 0 0-20 21z m-508-72a21 21 0 0 0 21 21h109a21 21 0 1 0 0-42h-109a21 21 0 0 0-21 21z m0 72a21 21 0 0 0 21 21h290a21 21 0 0 0 0-42h-290a21 21 0 0 0-21 21z" horiz-adv-x="1000" />

<glyph glyph-name="confirmation" unicode="&#xe840;" d="M500-46a396 396 0 1 0 0 792 396 396 0 0 0 0-792z m-53 314l-95 80a29 29 0 1 1-38-44l115-97c1 0 1 0 2-1a29 29 0 0 1 42 2l231 275a29 29 0 0 1-45 37l-212-252z" horiz-adv-x="1000" />

<glyph glyph-name="commercial-building" unicode="&#xe841;" d="M833 788h-666a21 21 0 0 1-21-21v-834a21 21 0 0 1 21-21h666a21 21 0 0 1 21 21v834a21 21 0 0 1-21 21z m-295-834h-76v117h76v-117z m275 0h-233v138a21 21 0 0 1-21 21h-118a21 21 0 0 1-21-21v-138h-232v792h625v-792z m-372 197h118a21 21 0 0 1 21 21v119a21 21 0 0 1-21 20h-118a21 21 0 0 1-21-20v-119a21 21 0 0 1 21-21z m21 119h76v-78h-76v78z m175-119h118a21 21 0 0 1 21 21v119a21 21 0 0 1-21 20h-118a21 21 0 0 1-21-20v-119a21 21 0 0 1 21-21z m21 119h76v-78h-76v78z m-413-119h118a21 21 0 0 1 21 21v119a21 21 0 0 1-21 20h-118a21 21 0 0 1-21-20v-119a21 21 0 0 1 21-21z m21 119h76v-78h-76v78z m175 79h118a21 21 0 0 1 21 21v119a21 21 0 0 1-21 21h-118a21 21 0 0 1-21-21v-119a21 21 0 0 1 21-21z m21 119h76v-77h-76v77z m175-119h118a21 21 0 0 1 21 21v119a21 21 0 0 1-21 21h-118a21 21 0 0 1-21-21v-119a21 21 0 0 1 21-21z m21 119h76v-77h-76v77z m-413-119h118a21 21 0 0 1 21 21v119a21 21 0 0 1-21 21h-118a21 21 0 0 1-21-21v-119a21 21 0 0 1 21-21z m21 119h76v-77h-76v77z m175 79h118a21 21 0 0 1 21 21v119a21 21 0 0 1-21 21h-118a21 21 0 0 1-21-21v-119a21 21 0 0 1 21-21z m21 120h76v-78h-76v78z m175-120h118a21 21 0 0 1 21 21v119a21 21 0 0 1-21 21h-118a21 21 0 0 1-21-21v-119a21 21 0 0 1 21-21z m21 120h76v-78h-76v78z m-413-120h118a21 21 0 0 1 21 21v119a21 21 0 0 1-21 21h-118a21 21 0 0 1-21-21v-119a21 21 0 0 1 21-21z m21 120h76v-78h-76v78z" horiz-adv-x="1000" />

<glyph glyph-name="cog" unicode="&#xe842;" d="M958 431h-113c-10 39-19 69-30 92l80 80a21 21 0 0 1 0 30l-112 112a21 21 0 0 1-30 0l-80-80c-23 11-53 21-92 30v113a21 21 0 0 1-21 21h-120a21 21 0 0 1-21-21v-113c-39-10-69-19-91-30l-81 80a21 21 0 0 1-29 0l-113-112a21 21 0 0 1 0-30l80-80c-11-23-20-53-30-92h-113a21 21 0 0 1-21-21v-120a21 21 0 0 1 21-21h113c10-39 19-69 30-91l-80-81a21 21 0 0 1 0-29l113-113a21 21 0 0 1 29 0l81 80c22-11 52-20 91-30v-113a21 21 0 0 1 21-21h120a21 21 0 0 1 21 21v113c39 10 69 19 92 30l80-80a21 21 0 0 1 30 0l112 113a21 21 0 0 1 0 29l-80 81c11 22 20 52 30 91h113a21 21 0 0 1 21 21v120a21 21 0 0 1-21 21z m-20-120h-109a21 21 0 0 1-20-16c-13-52-24-88-38-110a21 21 0 0 1 3-26l77-77-83-83-77 77a21 21 0 0 1-26 3c-21-13-58-25-110-38a21 21 0 0 1-16-20v-109h-78v109a21 21 0 0 1-16 20c-52 13-88 25-110 38a21 21 0 0 1-26-3l-77-77-83 83 77 77a21 21 0 0 1 3 26c-13 21-25 58-38 110a21 21 0 0 1-20 16h-108v78h108c10 0 18 7 20 16 13 52 25 89 38 110a21 21 0 0 1-3 26l-77 77 83 83 77-77a21 21 0 0 1 26-3c22 14 58 25 110 38a21 21 0 0 1 16 20v109h78v-109a21 21 0 0 1 16-20c52-13 89-24 110-38a21 21 0 0 1 26 3l77 77 83-83-77-77a21 21 0 0 1-3-26c14-21 25-58 38-110a21 21 0 0 1 20-16h109v-78z m-438 239a200 200 0 1 1 0-400 200 200 0 0 1 0 400z m0-358c-88 0-158 70-158 158s70 159 158 159 159-71 159-159-71-158-159-158z" horiz-adv-x="1000" />

<glyph glyph-name="close" unicode="&#xe843;" d="M534 349l234-234-33-33-234 234-234-234-33 33 234 234-234 234 33 33 234-233 234 233 33-33-234-234z" horiz-adv-x="1000" />

<glyph glyph-name="code" unicode="&#xe844;" d="M966 402l-236 236-33-33 235-236-231-232 33-33 265 265-33 33z m-690 236l-236-236-33-33 265-265 33 33-232 232 236 236-33 33z m118-604l40-11 184 685-41 10-183-684z" horiz-adv-x="1000" />

<glyph glyph-name="clock" unicode="&#xe845;" d="M500 788c-242 0-437-196-437-438s195-438 437-438c242 0 438 196 438 438s-196 438-438 438z m0-834c-219 0-396 177-396 396s177 396 396 396c219 0 396-177 396-396s-177-396-396-396z m3 405v190a21 21 0 0 1-42 0v-199c0-6 3-11 7-15l217-200a21 21 0 1 1 28 31l-210 193z" horiz-adv-x="1000" />

<glyph glyph-name="checkbox" unicode="&#xe846;" d="M888 741a21 21 0 0 1-29-3l-432-535-162 162a21 21 0 0 1-30-30l179-178a21 21 0 0 1 31 1l446 554a21 21 0 0 1-3 29z m-120-334a21 21 0 0 1-21-21v-372h-601v601h443a21 21 0 0 1 0 42h-464a21 21 0 0 1-21-21v-643a21 21 0 0 1 21-21h643a21 21 0 0 1 21 21v393a21 21 0 0 1-21 21z" horiz-adv-x="1000" />

<glyph glyph-name="check" unicode="&#xe847;" d="M859 696a21 21 0 1 0 32-26l-535-666a21 21 0 0 0-31-2l-215 215a21 21 0 0 0 30 29l198-198 521 648z" horiz-adv-x="1000" />

<glyph glyph-name="chart-bar" unicode="&#xe848;" d="M917 116h-16v526a21 21 0 0 1-20 21h-109a21 21 0 0 1-21-21v-526h-67v271a21 21 0 0 1-21 20h-109a21 21 0 0 1-20-20v-271h-67v343a21 21 0 0 1-21 21h-109a21 21 0 0 1-21-21v-343h-67v161a21 21 0 0 1-21 21h-108a21 21 0 0 1-21-21v-161h-16a21 21 0 0 1 0-42h834a21 21 0 0 1 0 42z m-777 0v140h68v-140h-68z m218 0v323h67v-323h-67z m217 0v250h67v-250h-67z m218 0v505h67v-505h-67z" horiz-adv-x="1000" />

<glyph glyph-name="angle-down" unicode="&#xe849;" d="M534 221l-33-34-266 265 34 34 232-232 235 236 34-34-236-235z" horiz-adv-x="1000" />

<glyph glyph-name="charity" unicode="&#xe84a;" d="M368 375c38-4 71 14 96 55 16-29 31-59 42-88 9-22 17-43 22-62 3-11 5-18 6-22 4-20 33-23 40-3 2 6 7 18 15 32 10 21 22 41 36 61 42-60 108-53 161 3 47 50 67 177 35 246a21 21 0 0 1-32 8c-26-20-46-27-93-40-39-10-58-17-81-32-58-39-69-101-15-148l0 0c-16-21-29-43-41-64a834 834 0 0 1-64 140c86 49 85 122 22 196-28 33-58 48-123 67-32 10-38 12-52 17-30 11-54 24-75 42a21 21 0 0 1-32-7c-47-90-31-263 29-333 32-38 68-63 104-68z m270 124c18 11 34 17 69 26 38 10 61 18 83 31 13-58-4-144-35-177-39-41-77-43-102 5 22 25 47 46 74 59a21 21 0 0 1-19 37c-30-15-57-37-82-64-31 28-24 58 12 83z m-375 235c19-13 40-23 64-32 16-6 22-8 55-18 57-17 82-29 103-54 47-56 49-99-12-133a742 742 0 0 1-132 156 21 21 0 1 1-27-31 706 706 0 0 0 126-150c-20-43-42-58-67-55-23 2-51 22-77 53-44 51-61 184-33 264z m668-605c-42 43-80 56-129 42l-131-44c-5 24-26 45-62 45h-100c-45 42-101 72-172 72h-88v15a21 21 0 0 1-21 21h-145a21 21 0 0 1-20-21v-290a21 21 0 0 1 20-20h145a21 21 0 0 1 21 20v26c58-20 160-56 182-63 54-16 88-21 125-15 34 6 67 20 131 53 15 8 83 45 99 53a5900 5900 0 0 0 140 73 21 21 0 0 1 5 33z m-723-139h-104v249h104v-249z m558 70c-16-9-83-45-99-53-60-32-90-44-118-49-29-5-57-1-105 14-23 7-140 48-195 67v163h88c61 0 110-28 148-66a21 21 0 0 1 15-6h109c30 0 30-31 0-31h-200a21 21 0 0 1 0-41h200c24 0 41 9 52 22l154 51c24 7 43 4 65-12-39-19-75-38-114-59z" horiz-adv-x="1000" />

<glyph glyph-name="camera" unicode="&#xe84b;" d="M842 552h-57l-31 62c-19 30-44 49-73 49h-181c-29 0-53-19-72-47l-47-64h-96v17c0 31-27 57-59 57h-34c-30 0-56-26-56-57l0-18c-49-6-73-35-73-83v-382c0-55 32-90 95-90h684c63 0 96 35 96 90v382c0 54-32 84-96 84z m-664 17c0 8 7 16 14 16h34c9 0 18-9 18-16v-17h-67l1 17z m718-483c0-33-15-48-54-48h-684c-39 0-54 15-54 48v382c0 30 13 43 52 43h246l60 82c13 18 26 28 38 28h181c12 0 26-10 37-27l35-72 6-11h83c41 0 54-12 54-43v-382z m-305 432a220 220 0 1 1 0-441 220 220 0 0 1 0 441z m0-399a179 179 0 1 0 0 357 179 179 0 0 0 0-357z m0 308a130 130 0 1 1 0-259 130 130 0 0 1 0 259z m0-217a88 88 0 1 0 0 175 88 88 0 0 0 0-175z m-381 271a75 75 0 1 1 0-150 75 75 0 0 1 0 150z m0-108a34 34 0 1 0 0 67 34 34 0 0 0 0-67z" horiz-adv-x="1000" />

<glyph glyph-name="calendar" unicode="&#xe84c;" d="M917 715h-124v52a21 21 0 0 1-21 21h-109a21 21 0 0 1-21-21v-52h-284v52a21 21 0 0 1-21 21h-109a21 21 0 0 1-20-21v-52h-125a21 21 0 0 1-20-21v-761a21 21 0 0 1 20-21h834a21 21 0 0 1 21 21v761a21 21 0 0 1-21 21z m-233 31h67v-103h-67v103z m-435 0h67v-103h-67v103z m647-792h-792v538h792v-538z m0 580h-792v139h104v-51a21 21 0 0 1 20-21h109a21 21 0 0 1 21 21v51h284v-51a21 21 0 0 1 21-21h109a21 21 0 0 1 21 21v51h103v-139z m-740-435a21 21 0 0 1 0-41h124v-52a21 21 0 0 1 42 0v52h157v-52a21 21 0 0 1 42 0v52h158v-52a21 21 0 1 1 41 0v52h124a21 21 0 0 1 0 41h-124v103h124a21 21 0 0 1 0 42h-124v103h124a21 21 0 0 1 0 42h-124v52a21 21 0 0 1-41 0v-52h-158v52a21 21 0 0 1-42 0v-52h-157v52a21 21 0 0 1-42 0v-52h-124a21 21 0 0 1 0-42h124v-103h-124a21 21 0 0 1 0-42h124v-103h-124z m365 248h158v-103h-158v103z m0-145h158v-103h-158v103z m-199 145h157v-103h-157v103z m0-145h157v-103h-157v103z" horiz-adv-x="1000" />

<glyph glyph-name="brush" unicode="&#xe84d;" d="M890 721c-16 18-43 25-89 25a21 21 0 0 1-16-8l-334-416 0-1 0 0-43-53c-55 19-119 2-155-46-10-14-16-28-25-55l-6-17c-18-56-39-75-96-73a21 21 0 0 1-16-35c88-90 214-94 310-29 71 49 100 121 71 182l42 44c0 0 1 0 1 1 0 0 0 0 1 1l364 388a21 21 0 0 1 6 15v10c0 39-2 52-15 67z m-494-673c-67-46-150-51-218-8 42 12 66 44 84 97 1 4 3 9 5 17 8 23 12 34 19 43 31 41 92 50 134 19 63-47 49-118-24-168z m50 201l22 27 22-22-23-24a161 161 0 0 1-21 19z m417 403l-345-368-24 24 317 396c28-1 42-5 47-10 4-5 5-13 5-40v-2z" horiz-adv-x="1000" />

<glyph glyph-name="book" unicode="&#xe84e;" d="M750 615c-1 0-57-6-219-24l-217-25c-23 1-43 21-43 45 0 27 5 31 62 41-1 0 230 31 354 53a21 21 0 0 1-7 41c-123-21-354-53-354-53-75-12-97-30-97-82 0-48 40-86 88-86 56 6 56 6 219 24l193 22v-529l-381-46c0 0-4 0-10 1a103 103 0 0 0-29 9c-24 12-38 32-38 67v407a21 21 0 0 1-42 0v-407c0-51 24-86 62-105a139 139 0 0 1 59-14l403 49a21 21 0 0 1 18 21v571a21 21 0 0 1-21 20z m-437-7a21 21 0 0 1 23-18l383 49a21 21 0 0 1-5 41l-383-48a21 21 0 0 1-18-24z" horiz-adv-x="1000" />

<glyph glyph-name="book-open" unicode="&#xe84f;" d="M917 746c-192 0-360-41-417-105-57 64-225 105-417 105a21 21 0 0 1-20-21v-625a21 21 0 0 1 20-21c213 0 396-57 396-112 0-27 42-27 42 0 0 55 183 112 396 112a21 21 0 0 1 21 21v625a21 21 0 0 1-21 21z m-813-625v583c204-4 375-59 375-111v-559c-68 51-211 84-375 87z m792 0c-164-3-307-36-375-87v558c0 53 171 108 375 112v-583z" horiz-adv-x="1000" />

<glyph glyph-name="block" unicode="&#xe850;" d="M500 808c-253 0-458-205-458-458s205-458 458-458 458 205 458 458-205 458-458 458z m-408-458a408 408 0 0 0 408 408 407 407 0 0 0 264-96l-576-576a407 407 0 0 0-96 264z m408-408a407 407 0 0 0-277 108l577 577a407 407 0 0 0 108-277c0-225-182-408-408-408z" horiz-adv-x="1000" />

<glyph glyph-name="attention" unicode="&#xe851;" d="M894-16l-375 750a21 21 0 0 1-38 0l-375-750a21 21 0 0 1 19-30h750a21 21 0 0 1 19 30z m-429 482c0 11 16 33 37 33s38-22 38-33v-210c0-11-17-32-38-32s-37 21-37 32v210z m37-412a54 54 0 1 0 0 109 54 54 0 0 0 0-109z" horiz-adv-x="1000" />

<glyph glyph-name="angle-up" unicode="&#xe852;" d="M534 480l-33 33-266-265 34-34 232 232 235-235 34 33-236 236z" horiz-adv-x="1000" />

<glyph glyph-name="address" unicode="&#xe853;" d="M917 704h-834a21 21 0 0 1-20-21v-666a21 21 0 0 1 20-21h145a21 21 0 0 1 21 21v31c0 29 20 52 43 52 22 0 42-23 42-52v-31a21 21 0 0 1 21-21h290a21 21 0 0 1 21 21v31c0 29 20 52 42 52 23 0 43-23 43-52v-31a21 21 0 0 1 21-21h145a21 21 0 0 1 21 21v666a21 21 0 0 1-21 21z m-21-666h-103v10c0 51-38 94-85 94-47 0-84-43-84-94v-10h-248v10c0 51-37 94-84 94-47 0-84-43-84-94v-10h-104v625h792v-625z m-429 239c0 55-29 98-80 118a94 94 0 0 1-68 158 94 94 0 0 1-68-158c-51-20-80-63-80-118v-21h296v21z m-148 235c28 0 52-24 52-53s-24-52-52-52-52 24-52 52 23 53 52 53z m-104-214c9 41 44 68 104 68s95-27 104-68h-208z m611 0h-290v-42h290v42z m0 73h-290v-42h290v42z m0 73h-290v-42h290v42z m-145 73h-145v-42h145v42z" horiz-adv-x="1000" />

<glyph glyph-name="article" unicode="&#xe854;" d="M875 30h-750a21 21 0 0 1 0-42h750a21 21 0 0 1 0 42z m-750 674h625a21 21 0 0 1 0 42h-625a21 21 0 0 1 0-42z m0-102h500a21 21 0 0 1 0 42h-500a21 21 0 0 1 0-42z m0-102h583a21 21 0 0 1 0 41h-583a21 21 0 0 1 0-41z m0-103h750a21 21 0 0 1 0 42h-750a21 21 0 0 1 0-42z m0-102h583a21 21 0 0 1 0 42h-583a21 21 0 0 1 0-42z m0-102h500a21 21 0 0 1 0 42h-500a21 21 0 0 1 0-42z m0-102h625a21 21 0 0 1 0 41h-625a21 21 0 0 1 0-41z" horiz-adv-x="1000" />

<glyph glyph-name="addon" unicode="&#xe855;" d="M273 329l206 0v-206a21 21 0 0 1 42 0v206l210 0a21 21 0 0 1 0 41l-210 1v206a21 21 0 0 1-42 0v-206l-206 0a21 21 0 0 1 0-42z m644 459h-834a21 21 0 0 1-20-21v-834a21 21 0 0 1 20-21h834a21 21 0 0 1 21 21v834a21 21 0 0 1-21 21z m-21-834h-792v792h792v-792z" horiz-adv-x="1000" />

<glyph glyph-name="download-cloud" unicode="&#xe856;" d="M721 564c-46 85-135 140-234 140-134 0-245-98-264-228-85 5-160-63-160-152 0-67 31-111 82-135 29-13 58-18 79-17h70c11 0 20 9 20 20s-9 21-20 21h-71c-4 0-11 1-19 2-15 2-29 6-42 12-37 17-58 47-58 97 0 70 65 123 134 108l23-5 2 24c7 119 105 212 224 212 87 0 166-51 203-129l5-12 14 0c88 3 160-67 160-154 0-60-25-101-69-128-15-10-32-17-49-22-10-3-18-4-21-5l-51 0c-12 0-21-9-21-21s9-20 21-20h53c9 1 19 2 31 6 20 6 40 15 59 26 55 35 89 88 89 164 0 106-84 192-190 196z m-139-441l-74-75v317c0 11-10 20-21 20-12 0-21-9-21-20v-317l-75 75c-8 8-21 8-29 0s-8-22 0-30l110-110c0 0 0 0 1 0 1-2 3-3 6-4 2-2 5-2 8-2 0 0 0 0 0 0 3 0 5 1 8 1 2 2 5 3 6 5l110 110c9 8 9 21 0 30s-21 8-29 0z" horiz-adv-x="1000" />
</font>
</defs>
</svg>
