<?xml version="1.0" encoding="utf-8"?>
<!-- Generator: Adobe Illustrator 15.1.0, SVG Export Plug-In . SVG Version: 6.00 Build 0)  -->
<!DOCTYPE svg PUBLIC "-//W3C//DTD SVG 1.1//EN" "http://www.w3.org/Graphics/SVG/1.1/DTD/svg11.dtd">
<svg version="1.1" id="Layer_1" xmlns="http://www.w3.org/2000/svg" xmlns:xlink="http://www.w3.org/1999/xlink" x="0px" y="0px"
	 width="20px" height="20px" viewBox="0 0 20 20" enable-background="new 0 0 20 20" xml:space="preserve">
<g>
	<path fill="#FFFFFF" d="M13.082,10.139c-0.138,0.121-0.31,0.183-0.504,0.183h-1.432c-0.197,0-0.363-0.062-0.5-0.183
		c-0.137-0.121-0.209-0.278-0.209-0.47V9.552c0-0.182,0.072-0.337,0.217-0.461c0.146-0.13,0.308-0.193,0.492-0.193h0.911v0.433
		h-0.911c-0.063,0-0.116,0.021-0.17,0.063c-0.056,0.046-0.08,0.096-0.08,0.158v0.117c0,0.146,0.083,0.216,0.25,0.216h1.432
		c0.171,0,0.254-0.07,0.254-0.216V8.554c0-0.059-0.024-0.109-0.08-0.154c-0.054-0.046-0.111-0.067-0.174-0.067h-2.099V7.9h2.099
		c0.188,0,0.35,0.063,0.49,0.19c0.147,0.13,0.217,0.285,0.217,0.463v1.115C13.285,9.861,13.219,10.019,13.082,10.139z"/>
	<path fill="#FFFFFF" d="M15.959,9.669c-0.111,0.437-0.346,0.653-0.707,0.653h-0.616c-0.362,0-0.595-0.216-0.707-0.653L13.475,7.9
		h0.486l0.438,1.685c0.05,0.2,0.154,0.3,0.306,0.3h0.48c0.154,0,0.263-0.1,0.312-0.3L15.932,7.9h0.485L15.959,9.669z"/>
	<path fill="#FFFFFF" d="M19.217,9.133c-0.146,0.129-0.308,0.19-0.491,0.19h-0.915V8.886h0.915c0.057,0,0.112-0.021,0.166-0.062
		c0.055-0.045,0.083-0.095,0.083-0.153V8.554c0-0.146-0.083-0.222-0.249-0.222h-1.437c-0.166,0-0.25,0.076-0.25,0.222v1.11
		c0,0.062,0.024,0.112,0.08,0.154c0.054,0.045,0.108,0.066,0.17,0.066h2.103v0.433h-2.103c-0.184,0-0.345-0.063-0.491-0.187
		c-0.146-0.129-0.216-0.284-0.216-0.467v-1.11c0-0.196,0.07-0.351,0.207-0.471c0.138-0.12,0.305-0.183,0.5-0.183h1.437
		c0.196,0,0.362,0.063,0.499,0.179c0.137,0.121,0.209,0.278,0.209,0.475V8.67C19.434,8.849,19.361,9.002,19.217,9.133z"/>
	<circle fill="#FFFFFF" cx="4.286" cy="9.108" r="0.289"/>
	<circle fill="#FFFFFF" cx="4.286" cy="8.185" r="0.289"/>
	<circle fill="#FFFFFF" cx="5.246" cy="10.03" r="0.289"/>
	<circle fill="#5D87A1" cx="5.246" cy="9.108" r="0.289"/>
	<g>
		<path fill="#FFFFFF" d="M7.966,9.665L7.956,9.706c-0.116,0.405-0.344,0.606-0.692,0.606H6.946c-0.361,0-0.592-0.216-0.704-0.65
			L5.79,7.9h0.485L6.71,9.579c0.049,0.2,0.153,0.299,0.302,0.299h0.185c0.153,0,0.262-0.1,0.312-0.298c0,0,0.113-0.348,0.458-0.353
			c0,0,0.339-0.032,0.455,0.339l0.004,0.013"/>
		<path fill="#FFFFFF" d="M8.426,9.579c0.045,0.193,0.163,0.299,0.312,0.299h0.184c0.154,0,0.262-0.1,0.311-0.299L9.664,7.9h0.485
			L9.693,9.662c-0.112,0.434-0.344,0.65-0.705,0.65H8.671c-0.361,0-0.595-0.217-0.707-0.653L8.426,9.579z"/>
	</g>
	<path fill="#FFFFFF" d="M3.295,10.143c-0.137,0.121-0.306,0.185-0.499,0.185h-2.23V7.898h2.23c0.182,0,0.341,0.062,0.486,0.191
		c0.144,0.129,0.214,0.285,0.214,0.463v1.118C3.497,9.863,3.431,10.022,3.295,10.143z M3.044,8.553c0-0.058-0.025-0.109-0.079-0.154
		C2.912,8.354,2.858,8.333,2.796,8.333H1.016V9.89h1.781c0.165,0,0.248-0.072,0.248-0.218V8.553z"/>
	<g>
		<path fill="#FFFFFF" d="M0.589,10.972h0.707v0.109H1.001v0.736H0.879v-0.736h-0.29V10.972z"/>
		<path fill="#FFFFFF" d="M1.391,10.972H1.5v0.36c0.046-0.056,0.104-0.085,0.172-0.085c0.037,0,0.07,0.011,0.1,0.029
			c0.029,0.019,0.051,0.044,0.065,0.076C1.853,11.386,1.86,11.436,1.86,11.5v0.317H1.75v-0.345c0-0.041-0.01-0.073-0.029-0.099
			c-0.021-0.025-0.047-0.037-0.08-0.037c-0.024,0-0.047,0.006-0.069,0.019C1.55,11.368,1.527,11.389,1.5,11.417v0.4H1.391V10.972z"
			/>
		<path fill="#FFFFFF" d="M2.482,11.548H2.091c0.003,0.055,0.02,0.097,0.054,0.128c0.033,0.032,0.075,0.048,0.127,0.048
			c0.074,0,0.14-0.023,0.202-0.069v0.108c-0.034,0.022-0.067,0.038-0.101,0.049c-0.033,0.011-0.072,0.015-0.118,0.015
			c-0.061,0-0.11-0.014-0.149-0.039c-0.038-0.024-0.068-0.06-0.091-0.103c-0.023-0.043-0.034-0.093-0.034-0.149
			c0-0.085,0.023-0.154,0.072-0.208c0.048-0.054,0.111-0.08,0.187-0.08c0.074,0,0.133,0.026,0.177,0.079
			c0.043,0.052,0.065,0.121,0.065,0.208V11.548z M2.094,11.481h0.28c-0.003-0.044-0.015-0.077-0.039-0.102
			c-0.024-0.023-0.055-0.036-0.095-0.036s-0.072,0.013-0.097,0.036C2.118,11.404,2.102,11.438,2.094,11.481z"/>
		<path fill="#FFFFFF" d="M3.813,11.871L3.692,11.99c-0.037-0.001-0.077-0.009-0.118-0.021c-0.042-0.011-0.083-0.027-0.125-0.048
			c-0.043-0.021-0.1-0.055-0.171-0.104c-0.103-0.018-0.187-0.066-0.253-0.146c-0.067-0.079-0.1-0.17-0.1-0.272
			c0-0.127,0.043-0.231,0.128-0.315c0.086-0.082,0.194-0.123,0.326-0.123c0.13,0,0.239,0.041,0.326,0.122
			c0.086,0.084,0.129,0.186,0.129,0.312c0,0.104-0.032,0.196-0.098,0.275s-0.15,0.129-0.253,0.148l0.031,0.013
			c0.1,0.038,0.171,0.058,0.215,0.058C3.754,11.888,3.781,11.882,3.813,11.871z M3.379,11.074c-0.095,0-0.174,0.03-0.236,0.093
			c-0.062,0.061-0.093,0.139-0.093,0.232c0,0.091,0.031,0.166,0.094,0.227c0.062,0.059,0.141,0.09,0.235,0.09
			c0.092,0,0.17-0.031,0.234-0.093s0.095-0.138,0.095-0.229c0-0.092-0.03-0.168-0.093-0.229C3.552,11.104,3.474,11.074,3.379,11.074
			z"/>
		<path fill="#FFFFFF" d="M4.329,11.817v-0.069c-0.024,0.024-0.05,0.044-0.081,0.058c-0.03,0.015-0.061,0.021-0.091,0.021
			c-0.035,0-0.068-0.008-0.097-0.025c-0.031-0.018-0.054-0.042-0.068-0.071C3.976,11.7,3.97,11.648,3.97,11.579V11.26h0.109v0.319
			c0,0.059,0.009,0.099,0.026,0.122c0.017,0.023,0.047,0.035,0.088,0.035c0.054,0,0.098-0.026,0.135-0.078V11.26h0.11v0.558H4.329z"
			/>
		<path fill="#FFFFFF" d="M4.952,11.481v0.237c0,0.019,0.006,0.029,0.019,0.029c0.015,0,0.036-0.011,0.063-0.03v0.067
			c-0.025,0.016-0.045,0.026-0.061,0.032s-0.03,0.009-0.046,0.009c-0.047,0-0.075-0.02-0.083-0.056
			c-0.047,0.036-0.098,0.056-0.15,0.056c-0.04,0-0.071-0.014-0.098-0.039c-0.025-0.025-0.039-0.058-0.039-0.098
			c0-0.035,0.013-0.064,0.039-0.094c0.024-0.027,0.061-0.049,0.107-0.065l0.141-0.049v-0.028c0-0.069-0.034-0.103-0.1-0.103
			c-0.06,0-0.119,0.03-0.176,0.092v-0.118c0.043-0.052,0.105-0.077,0.185-0.077c0.061,0,0.108,0.017,0.145,0.048
			c0.013,0.011,0.023,0.024,0.034,0.04c0.009,0.018,0.015,0.034,0.018,0.051S4.952,11.435,4.952,11.481z M4.844,11.707v-0.166
			L4.77,11.568c-0.038,0.016-0.064,0.032-0.08,0.047s-0.023,0.033-0.023,0.056c0,0.024,0.007,0.043,0.022,0.057
			c0.014,0.016,0.033,0.022,0.057,0.022C4.782,11.75,4.814,11.736,4.844,11.707z"/>
		<path fill="#FFFFFF" d="M5.238,11.26v0.068c0.05-0.053,0.106-0.081,0.168-0.081c0.034,0,0.067,0.011,0.097,0.028
			c0.029,0.019,0.052,0.043,0.068,0.074c0.016,0.031,0.024,0.081,0.024,0.149v0.318h-0.11v-0.318c0-0.057-0.009-0.099-0.026-0.123
			c-0.017-0.023-0.046-0.037-0.087-0.037c-0.052,0-0.096,0.026-0.133,0.078v0.4H5.126V11.26H5.238z"/>
		<path fill="#FFFFFF" d="M5.667,11.349l0.208-0.205v0.116h0.176v0.1H5.876v0.273c0,0.063,0.025,0.095,0.079,0.095
			c0.04,0,0.081-0.012,0.125-0.038v0.103c-0.042,0.024-0.088,0.034-0.138,0.034s-0.092-0.014-0.125-0.043
			c-0.011-0.009-0.02-0.02-0.027-0.03c-0.006-0.01-0.012-0.026-0.017-0.043c-0.005-0.019-0.007-0.052-0.007-0.104v-0.246H5.667
			V11.349z"/>
		<path fill="#FFFFFF" d="M6.518,11.817v-0.069c-0.022,0.024-0.05,0.044-0.08,0.058c-0.03,0.015-0.061,0.021-0.09,0.021
			c-0.037,0-0.069-0.008-0.098-0.025c-0.03-0.018-0.052-0.042-0.068-0.071c-0.015-0.029-0.022-0.081-0.022-0.15V11.26h0.11v0.319
			c0,0.059,0.007,0.099,0.025,0.122c0.017,0.023,0.046,0.035,0.089,0.035c0.052,0,0.098-0.026,0.134-0.078V11.26h0.11v0.558H6.518z"
			/>
		<path fill="#FFFFFF" d="M7.236,11.413v0.404H7.125v-0.312c0-0.062-0.009-0.105-0.025-0.13c-0.017-0.023-0.045-0.037-0.087-0.037
			c-0.022,0-0.043,0.006-0.062,0.018c-0.019,0.011-0.041,0.029-0.065,0.057v0.404h-0.11V11.26h0.11v0.074
			c0.056-0.058,0.111-0.087,0.164-0.087c0.071,0,0.126,0.035,0.165,0.104c0.058-0.068,0.12-0.104,0.184-0.104
			c0.054,0,0.098,0.021,0.133,0.061c0.035,0.039,0.052,0.1,0.052,0.181v0.329h-0.11v-0.331c0-0.047-0.01-0.081-0.028-0.106
			c-0.019-0.024-0.046-0.037-0.082-0.037C7.318,11.343,7.276,11.367,7.236,11.413z"/>
		<path fill="#FFFFFF" d="M8.827,11.621v0.134c-0.089,0.049-0.192,0.071-0.309,0.071c-0.094,0-0.174-0.019-0.24-0.057
			c-0.066-0.037-0.118-0.089-0.157-0.155c-0.038-0.067-0.057-0.14-0.057-0.218c0-0.123,0.043-0.228,0.131-0.311
			c0.088-0.084,0.196-0.125,0.326-0.125c0.088,0,0.188,0.022,0.296,0.069v0.131c-0.099-0.057-0.196-0.086-0.291-0.086
			c-0.097,0-0.176,0.03-0.242,0.093c-0.063,0.061-0.095,0.139-0.095,0.229c0,0.094,0.032,0.17,0.094,0.23
			c0.063,0.06,0.144,0.089,0.242,0.089C8.628,11.716,8.729,11.685,8.827,11.621z"/>
		<path fill="#FFFFFF" d="M9.219,11.259c0.083,0,0.154,0.027,0.21,0.082c0.056,0.055,0.084,0.123,0.084,0.207
			c0,0.079-0.028,0.147-0.084,0.2c-0.058,0.053-0.128,0.078-0.214,0.078c-0.083,0-0.153-0.025-0.209-0.08
			c-0.055-0.053-0.083-0.12-0.083-0.202c0-0.081,0.028-0.149,0.084-0.203C9.062,11.286,9.133,11.259,9.219,11.259z M9.213,11.357
			c-0.053,0-0.096,0.018-0.13,0.054c-0.034,0.033-0.051,0.079-0.051,0.131c0,0.054,0.018,0.098,0.052,0.131s0.079,0.051,0.133,0.051
			c0.053,0,0.098-0.018,0.132-0.052c0.034-0.033,0.052-0.076,0.052-0.13s-0.018-0.098-0.055-0.131
			C9.312,11.375,9.267,11.357,9.213,11.357z"/>
		<path fill="#FFFFFF" d="M10.091,11.413v0.404H9.98v-0.312c0-0.062-0.009-0.105-0.025-0.13c-0.016-0.023-0.045-0.037-0.086-0.037
			c-0.023,0-0.044,0.006-0.062,0.018c-0.019,0.011-0.042,0.029-0.066,0.057v0.404h-0.11V11.26h0.11v0.074
			c0.057-0.058,0.111-0.087,0.165-0.087c0.07,0,0.125,0.035,0.165,0.104c0.058-0.068,0.12-0.104,0.183-0.104
			c0.054,0,0.099,0.021,0.134,0.061c0.034,0.039,0.051,0.1,0.051,0.181v0.329H10.33v-0.331c0-0.047-0.01-0.081-0.029-0.106
			c-0.019-0.024-0.046-0.037-0.082-0.037C10.173,11.343,10.131,11.367,10.091,11.413z"/>
		<path fill="#FFFFFF" d="M10.59,12.103V11.26h0.193c0.099,0,0.175,0.025,0.23,0.074c0.056,0.05,0.083,0.119,0.083,0.207
			c0,0.084-0.026,0.152-0.077,0.207c-0.051,0.053-0.119,0.078-0.198,0.078c-0.037,0-0.074-0.007-0.118-0.022v0.299H10.59z
			 M10.78,11.364h-0.078v0.342c0.034,0.019,0.068,0.026,0.107,0.026c0.051,0,0.093-0.018,0.125-0.054
			c0.033-0.035,0.049-0.082,0.049-0.138c0-0.036-0.007-0.068-0.022-0.098c-0.015-0.028-0.036-0.048-0.062-0.06
			C10.872,11.37,10.832,11.364,10.78,11.364z"/>
		<path fill="#FFFFFF" d="M11.57,11.817v-0.069c-0.022,0.024-0.052,0.044-0.082,0.058c-0.028,0.015-0.059,0.021-0.089,0.021
			c-0.036,0-0.068-0.008-0.098-0.025c-0.03-0.018-0.054-0.042-0.068-0.071c-0.016-0.029-0.022-0.081-0.022-0.15V11.26h0.11v0.319
			c0,0.059,0.007,0.099,0.024,0.122s0.048,0.035,0.09,0.035c0.053,0,0.098-0.026,0.135-0.078V11.26h0.11v0.558H11.57z"/>
		<path fill="#FFFFFF" d="M11.759,11.349l0.207-0.205v0.116h0.178v0.1h-0.178v0.273c0,0.063,0.026,0.095,0.08,0.095
			c0.038,0,0.08-0.012,0.124-0.038v0.103c-0.041,0.024-0.088,0.034-0.137,0.034c-0.052,0-0.094-0.014-0.125-0.043
			c-0.012-0.009-0.021-0.02-0.027-0.03c-0.008-0.01-0.014-0.026-0.018-0.043c-0.005-0.019-0.008-0.052-0.008-0.104v-0.246h-0.097
			V11.349z"/>
		<path fill="#FFFFFF" d="M12.314,11.026c0.018,0,0.032,0.006,0.046,0.019c0.013,0.013,0.019,0.028,0.019,0.047
			c0,0.016-0.006,0.032-0.019,0.045c-0.014,0.014-0.028,0.02-0.046,0.02c-0.017,0-0.032-0.007-0.046-0.02s-0.019-0.029-0.019-0.045
			c0-0.018,0.005-0.033,0.019-0.047C12.282,11.033,12.298,11.026,12.314,11.026z M12.26,11.26h0.11v0.558h-0.11V11.26z"/>
		<path fill="#FFFFFF" d="M12.636,11.26v0.068c0.05-0.053,0.104-0.081,0.169-0.081c0.035,0,0.068,0.011,0.096,0.028
			c0.03,0.019,0.054,0.043,0.068,0.074c0.016,0.031,0.023,0.081,0.023,0.149v0.318h-0.109v-0.318c0-0.057-0.009-0.099-0.026-0.123
			c-0.017-0.023-0.048-0.037-0.087-0.037c-0.051,0-0.098,0.026-0.134,0.078v0.4h-0.111V11.26H12.636z"/>
		<path fill="#FFFFFF" d="M13.112,11.453c0-0.059,0.021-0.106,0.064-0.141s0.103-0.053,0.177-0.053h0.231v0.087h-0.113
			c0.021,0.022,0.036,0.042,0.046,0.061c0.008,0.019,0.012,0.04,0.012,0.062c0,0.03-0.008,0.059-0.024,0.086
			c-0.016,0.028-0.039,0.05-0.063,0.065c-0.026,0.015-0.07,0.026-0.13,0.035c-0.042,0.007-0.062,0.021-0.062,0.044
			c0,0.012,0.008,0.023,0.023,0.031c0.015,0.008,0.044,0.017,0.086,0.025c0.068,0.016,0.111,0.026,0.131,0.035
			c0.019,0.009,0.037,0.021,0.054,0.036c0.026,0.026,0.039,0.06,0.039,0.102c0,0.052-0.023,0.096-0.07,0.126
			c-0.048,0.032-0.11,0.047-0.188,0.047c-0.08,0-0.143-0.015-0.19-0.047c-0.048-0.033-0.069-0.074-0.069-0.128
			c0-0.074,0.045-0.124,0.138-0.146c-0.038-0.023-0.055-0.048-0.055-0.069c0-0.019,0.008-0.035,0.022-0.049
			c0.018-0.016,0.038-0.025,0.065-0.033C13.152,11.595,13.112,11.535,13.112,11.453z M13.291,11.845
			c-0.036,0-0.066,0.009-0.09,0.023c-0.024,0.017-0.036,0.037-0.036,0.062c0,0.057,0.052,0.086,0.155,0.086
			c0.048,0,0.087-0.008,0.113-0.023c0.026-0.013,0.041-0.033,0.041-0.06s-0.018-0.047-0.053-0.063
			C13.39,11.854,13.347,11.845,13.291,11.845z M13.317,11.357c-0.027,0-0.055,0.01-0.075,0.029
			c-0.021,0.021-0.031,0.045-0.031,0.073s0.01,0.052,0.031,0.071c0.021,0.019,0.045,0.028,0.078,0.028
			c0.032,0,0.057-0.011,0.077-0.029c0.021-0.02,0.033-0.043,0.033-0.072c0-0.028-0.012-0.053-0.033-0.072
			C13.377,11.367,13.35,11.357,13.317,11.357z"/>
		<path fill="#FFFFFF" d="M14.759,11.621v0.134c-0.09,0.049-0.19,0.071-0.308,0.071c-0.095,0-0.175-0.019-0.24-0.057
			c-0.065-0.037-0.119-0.089-0.156-0.155c-0.038-0.067-0.058-0.14-0.058-0.218c0-0.123,0.044-0.228,0.131-0.311
			c0.089-0.084,0.196-0.125,0.326-0.125c0.087,0,0.187,0.022,0.295,0.069v0.131c-0.099-0.057-0.196-0.086-0.289-0.086
			c-0.098,0-0.178,0.03-0.241,0.093c-0.065,0.061-0.096,0.139-0.096,0.229c0,0.094,0.03,0.17,0.094,0.23
			c0.062,0.06,0.144,0.089,0.241,0.089C14.562,11.716,14.661,11.685,14.759,11.621z"/>
		<path fill="#FFFFFF" d="M15.151,11.259c0.086,0,0.154,0.027,0.211,0.082c0.055,0.055,0.084,0.123,0.084,0.207
			c0,0.079-0.029,0.147-0.086,0.2c-0.058,0.053-0.128,0.078-0.214,0.078c-0.084,0-0.153-0.025-0.209-0.08
			c-0.055-0.053-0.084-0.12-0.084-0.202c0-0.081,0.029-0.149,0.086-0.203C14.994,11.286,15.065,11.259,15.151,11.259z
			 M15.146,11.357c-0.052,0-0.096,0.018-0.13,0.054c-0.034,0.033-0.049,0.079-0.049,0.131c0,0.054,0.016,0.098,0.051,0.131
			s0.078,0.051,0.134,0.051c0.053,0,0.096-0.018,0.131-0.052c0.034-0.033,0.051-0.076,0.051-0.13s-0.017-0.098-0.053-0.131
			C15.244,11.375,15.2,11.357,15.146,11.357z"/>
		<path fill="#FFFFFF" d="M16.024,11.413v0.404h-0.112v-0.312c0-0.062-0.008-0.105-0.024-0.13c-0.016-0.023-0.045-0.037-0.086-0.037
			c-0.022,0-0.043,0.006-0.063,0.018c-0.019,0.011-0.041,0.029-0.065,0.057v0.404h-0.11V11.26h0.11v0.074
			c0.057-0.058,0.112-0.087,0.166-0.087c0.069,0,0.125,0.035,0.162,0.104c0.06-0.068,0.121-0.104,0.185-0.104
			c0.054,0,0.1,0.021,0.134,0.061c0.035,0.039,0.051,0.1,0.051,0.181v0.329h-0.107v-0.331c0-0.047-0.01-0.081-0.029-0.106
			c-0.019-0.024-0.048-0.037-0.081-0.037C16.106,11.343,16.065,11.367,16.024,11.413z"/>
		<path fill="#FFFFFF" d="M16.521,12.103V11.26h0.193c0.099,0,0.176,0.025,0.231,0.074c0.055,0.05,0.081,0.119,0.081,0.207
			c0,0.084-0.024,0.152-0.076,0.207c-0.052,0.053-0.117,0.078-0.197,0.078c-0.036,0-0.074-0.007-0.119-0.022v0.299H16.521z
			 M16.714,11.364h-0.079v0.342c0.035,0.019,0.068,0.026,0.107,0.026c0.051,0,0.093-0.018,0.125-0.054
			c0.032-0.035,0.05-0.082,0.05-0.138c0-0.036-0.008-0.068-0.022-0.098c-0.016-0.028-0.036-0.048-0.064-0.06
			C16.804,11.37,16.766,11.364,16.714,11.364z"/>
		<path fill="#FFFFFF" d="M17.505,11.481v0.237c0,0.019,0.006,0.029,0.02,0.029c0.013,0,0.034-0.011,0.062-0.03v0.067
			c-0.024,0.016-0.045,0.026-0.059,0.032c-0.016,0.006-0.033,0.009-0.048,0.009c-0.048,0-0.075-0.02-0.084-0.056
			c-0.047,0.036-0.098,0.056-0.149,0.056c-0.038,0-0.071-0.014-0.098-0.039s-0.039-0.058-0.039-0.098
			c0-0.035,0.013-0.064,0.037-0.094c0.025-0.027,0.062-0.049,0.108-0.065l0.141-0.049v-0.028c0-0.069-0.033-0.103-0.101-0.103
			c-0.06,0-0.117,0.03-0.176,0.092v-0.118c0.045-0.052,0.104-0.077,0.185-0.077c0.062,0,0.109,0.017,0.146,0.048
			c0.012,0.011,0.023,0.024,0.032,0.04c0.01,0.018,0.016,0.034,0.019,0.051S17.505,11.435,17.505,11.481z M17.396,11.707v-0.166
			l-0.074,0.027c-0.036,0.016-0.062,0.032-0.08,0.047c-0.015,0.015-0.021,0.033-0.021,0.056c0,0.024,0.007,0.043,0.021,0.057
			c0.014,0.016,0.035,0.022,0.057,0.022C17.334,11.75,17.366,11.736,17.396,11.707z"/>
		<path fill="#FFFFFF" d="M17.793,11.26v0.068c0.05-0.053,0.104-0.081,0.167-0.081c0.035,0,0.067,0.011,0.098,0.028
			c0.027,0.019,0.051,0.043,0.068,0.074c0.016,0.031,0.023,0.081,0.023,0.149v0.318h-0.111v-0.318c0-0.057-0.01-0.099-0.027-0.123
			c-0.016-0.023-0.045-0.037-0.087-0.037c-0.051,0-0.095,0.026-0.131,0.078v0.4h-0.114V11.26H17.793z"/>
		<path fill="#FFFFFF" d="M18.618,11.26h0.125l-0.395,0.843h-0.121l0.186-0.402L18.2,11.26h0.126l0.148,0.314L18.618,11.26z"/>
		<path fill="#FFFFFF" d="M18.984,11.592h-0.054V11.32h-0.103v-0.044h0.26v0.044h-0.104V11.592z M19.171,11.592h-0.047v-0.315h0.077
			l0.08,0.252l0.076-0.252h0.076v0.315h-0.048v-0.266l-0.081,0.266h-0.048l-0.086-0.27V11.592z"/>
	</g>
</g>
</svg>
