<?xml version="1.0" encoding="utf-8"?>
<svg xmlns="http://www.w3.org/2000/svg" xmlns:xlink="http://www.w3.org/1999/xlink" width="300" height="300" viewBox="0 0 300 300">
    <defs>
        <path id="a" d="M0 300V0h300v300z"/>
    </defs>
    <g fill="none" fill-rule="evenodd">
        <mask id="b" fill="#fff">
            <use xlink:href="#a"/>
        </mask>
        <path stroke="#ededed" stroke-linecap="round" stroke-width="8.279" d="M30.441 75.527c18.48 0 33.461-14.981 33.461-33.461m-8.759 133.707c-3.245-13.524-16.839-21.856-30.363-18.612m196.338-89.173a33.324 33.324 0 0 0-7.642-21.286m-72.143 100.434c-4.426 17.942 6.529 36.075 24.471 40.502M64.918 93.279c-11.528 14.444-9.164 35.498 5.28 47.026M-3.697 80.626c13.067-13.067 13.067-34.253 0-47.32m-1.669 154.886c-4.427 17.942 6.529 36.076 24.471 40.502m-38.21-122.73c2.684 18.285 19.683 30.931 37.966 28.246m277.442-53.584c13.067-13.067 13.067-34.253 0-47.32m-1.669 154.886c-4.427 17.942 6.529 36.076 24.47 40.502m-38.209-122.73c2.684 18.285 19.683 30.931 37.966 28.246M186.39 78.595c-12.296-13.796-33.447-15.012-47.244-2.717m-51.35 135.407c13.067-13.067 13.067-34.253 0-47.321m45.404-49.011c-9.835-9.835-25.779-9.835-35.614 0m13.612-62.627c-.238-13.906-11.704-24.985-25.61-24.747m86.667 117.902c18.48 0 33.461-14.981 33.461-33.46m52.831 18.034c6.053-17.461-3.194-36.523-20.655-42.576m-24.637 69.837c9.008 16.136 29.391 21.914 45.527 12.906M122.757 307.578c-3.245-13.523-16.839-21.856-30.363-18.611m157.611 52.831a45.868 45.868 0 0 0 29.301-10.52m-70.358-52.338c-4.427 17.943 6.529 36.077 24.471 40.503m-100.886-94.359c-11.528 14.444-9.164 35.499 5.28 47.026m116.191-61.71c-12.296-13.796-33.447-15.012-47.243-2.717m-51.35 135.408c13.067-13.068 13.067-34.254 0-47.321m45.403-49.012c-9.834-9.835-25.778-9.835-35.613 0m74.668 30.529c18.481 0 33.462-14.981 33.462-33.461" mask="url(#b)"/>
        <path stroke="#ededed" stroke-linecap="round" stroke-width="6.739" d="M96.664 242.301c-1.751 14.782-15.407 25.316-30.502 23.529" mask="url(#b)"/>
        <path stroke="#ededed" stroke-linecap="round" stroke-width="8.279" d="M40.581 246.394c4.279-13.234 18.476-20.492 31.709-16.213m-20.703 63.344a48.186 48.186 0 0 1-30.893 10.724M122.757 7.579c-3.245-13.524-16.839-21.857-30.363-18.613m156.611 53.832a45.868 45.868 0 0 0 29.301-10.52m-69.358-53.337c-4.427 17.942 6.529 36.076 24.471 40.502M155.411 43.09c13.067-13.067 13.067-34.253 0-47.32M51.587-6.475A48.18 48.18 0 0 1 20.694 4.249" mask="url(#b)"/>
    </g>
</svg>
