<svg width="485" height="604" xmlns="http://www.w3.org/2000/svg"><g fill="#E8E8E8" fill-rule="evenodd"><g transform="translate(1 596)"><rect x="63" width="60" height="7" rx="3"/><rect width="45" height="7" rx="3"/><rect x="135" width="120" height="7" rx="3"/></g><g transform="translate(1 573)"><rect x="63" width="80" height="7" rx="3"/><rect width="45" height="7" rx="3"/><rect x="155" width="200" height="7" rx="3"/></g><g transform="translate(1 550)"><rect x="63" width="70" height="7" rx="3"/><rect width="45" height="7" rx="3"/><rect x="145" width="100" height="7" rx="3"/></g><g transform="translate(1 527)"><rect x="63" width="60" height="7" rx="3"/><rect width="45" height="7" rx="3"/><rect x="135" width="280" height="7" rx="3"/></g><g transform="translate(1 504)"><rect x="63" width="80" height="7" rx="3"/><rect width="45" height="7" rx="3"/><rect x="155" width="180" height="7" rx="3"/></g><g transform="translate(1 481)"><rect x="63" width="70" height="7" rx="3"/><rect width="45" height="7" rx="3"/><rect x="145" width="200" height="7" rx="3"/></g><g transform="translate(1 458)"><rect x="63" width="60" height="7" rx="3"/><rect width="45" height="7" rx="3"/><rect x="135" width="160" height="7" rx="3"/></g><g transform="translate(1 435)"><rect x="63" width="80" height="7" rx="3"/><rect width="45" height="7" rx="3"/><rect x="155" width="100" height="7" rx="3"/></g><g transform="translate(1 412)"><rect x="63" width="70" height="7" rx="3"/><rect width="45" height="7" rx="3"/><rect x="145" width="240" height="7" rx="3"/></g><g transform="translate(1 389)"><rect x="63" width="60" height="7" rx="3"/><rect width="45" height="7" rx="3"/><rect x="135" width="60" height="7" rx="3"/></g><g transform="translate(1 366)"><rect x="63" width="80" height="7" rx="3"/><rect width="45" height="7" rx="3"/><rect x="155" width="200" height="7" rx="3"/></g><g transform="translate(1 343)"><rect x="63" width="70" height="7" rx="3"/><rect width="45" height="7" rx="3"/><rect x="145" width="120" height="7" rx="3"/></g><g transform="translate(1 320)"><rect x="63" width="60" height="7" rx="3"/><rect width="45" height="7" rx="3"/><rect x="135" width="330" height="7" rx="3"/></g><g transform="translate(1 297)"><rect x="63" width="80" height="7" rx="3"/><rect width="45" height="7" rx="3"/><rect x="155" width="160" height="7" rx="3"/></g><g transform="translate(1 63)"><rect x="63" width="70" height="7" rx="3"/><rect width="45" height="7" rx="3"/><rect x="71" y="18" width="270" height="200" rx="3"/></g><g transform="translate(1 40)"><rect x="63" width="60" height="7" rx="3"/><rect width="45" height="7" rx="3"/><rect x="135" width="180" height="7" rx="3"/></g><g transform="translate(1 17)"><rect x="63" width="80" height="7" rx="3"/><rect width="35" height="7" rx="3"/><rect width="45" height="7" rx="3"/><rect x="155" width="220" height="7" rx="3"/></g></g></svg>