<svg xmlns="http://www.w3.org/2000/svg" xmlns:xlink="http://www.w3.org/1999/xlink" viewBox="0 0 34 34"><defs><clipPath id="a" transform="translate(5 5)"><path d="M16.2,18.9A11.14,11.14,0,0,0,5.1,7.8V5.1A13.74,13.74,0,0,1,18.8,18.9H16.2Zm-4.6,0a6.78,6.78,0,0,0-1.9-4.6,6.36,6.36,0,0,0-4.5-1.9V9.8a9,9,0,0,1,9,9.1H11.6ZM7,18.9a1.79,1.79,0,0,1-1.8-1.8A1.88,1.88,0,0,1,7,15.2,1.79,1.79,0,0,1,8.8,17,1.88,1.88,0,0,1,7,18.9ZM0,12A12,12,0,1,0,12,0,12,12,0,0,0,0,12Z" fill="none"/></clipPath><clipPath id="b" transform="translate(5 5)"><rect x="-2" y="-2" width="28" height="28" fill="none"/></clipPath></defs><title>rss-icon</title><g clip-path="url(#a)"><g clip-path="url(#b)"><rect width="34" height="34" fill="#e6782b"/></g></g></svg>