<svg height="50" viewBox="0 0 125 50" width="125" xmlns="http://www.w3.org/2000/svg"><g fill="#fff" fill-rule="nonzero"><path d="m105.375 14.875v17.25h8.5c2.375 0 3.75-.375 4.75-1.25 1.25-1.125 1.875-3.125 1.875-7.375s-.625-6.25-1.875-7.375c-1-.875-2.375-1.25-4.75-1.25zm11.625 8.625c0 3.75-.25 4.625-1 5.125-.5.375-1.125.5-2.375.5h-4.75v-11.375h4.75c1.25 0 1.875 0 2.375.5.75.625 1 1.5 1 5.25zm7.875 12.4375h-24.9375v-24.9375h24.9375z"/><path d="m79.5625 17.75v-2.875h14.75v5.5h-3.125v-2.625h-6v4.125h4.75v2.75h-4.75v4.625h6.125v-3h3.125v5.875h-14.875v-2.875h2.375v-11.5z"/><path d="m66.1875 27.625c0 1.875.125 3.25.375 4.375h3.375c-.125-.875-.25-2.5-.25-4.625-.125-2.5-.875-2.875-2.625-3.25 2-.375 2.875-1.25 2.875-4.375 0-2.5-.375-3.5-1.125-4.125-.5-.5-1.375-.75-2.75-.75h-10.5v17.25h3.5v-6.75h4.875c1 0 1.375.125 1.75.375s.5.625.5 1.875zm-7.125-5v-4.75h5.625c.75 0 1 .125 1.125.25.25.25.5.625.5 2.125s-.25 2-.5 2.25c-.125.125-.375.25-1.125.25zm15.875 13.3125h-25v-24.9375h24.9375v24.9375z"/><path d="m43.4375 29.25v2.875h-11.875v-2.875h4.25v-11.5h-4.25v-2.875h11.875v2.875h-4.25v11.5z"/><path d="m23.375 14.875h-3.25l-2.375 13.625-2.75-12.625c-.125-.875-.5-1-1.25-1h-1.75c-.75 0-1.125.25-1.25 1l-2.75 12.625-2.375-13.625h-3.5l3.375 16.375c.125.75.375.875 1.25.875h2.375c.75 0 1-.125 1.25-.875l2.625-11.875 2.625 11.875c.125.75.375.875 1.25.875h2.25c.75 0 1.125-.125 1.25-.875zm1.75 21.0625h-25v-24.9375h24.9375v24.9375z"/></g></svg>