<?xml version="1.0" encoding="UTF-8"?>
<svg width="683px" height="683px" viewBox="0 0 683 683" version="1.1" xmlns="http://www.w3.org/2000/svg" xmlns:xlink="http://www.w3.org/1999/xlink">
    <!-- Generator: Sketch 55.2 (78181) - https://sketchapp.com -->
    <title>FUTURE_ safari-pinned-tab</title>
    <desc>Created with Sketch.</desc>
    <g id="FUTURE_-safari-pinned-tab" stroke="none" stroke-width="1" fill="none" fill-rule="evenodd">
        <rect id="Rectangle" fill="#000000" x="0" y="0" width="683" height="683"></rect>
        <g id="BBC_Worklife_Tile_White" transform="translate(64.000000, 197.000000)" fill="#FFFFFF" fill-rule="nonzero">
            <g id="Group" transform="translate(77.000000, 0.000000)">
                <path d="M277.838835,0 L277.838835,113.606897 L345.302913,113.606897 L398.254369,113.606897 L398.254369,0 L277.838835,0 Z M374.720388,91.5931034 L373.935922,91.9862069 C365.699029,96.3103448 356.285437,99.062069 342.949515,99.062069 L342.949515,99.062069 C326.867961,99.062069 315.100971,93.1655172 307.648544,85.3034483 C300.196117,77.0482759 296.273786,67.2206897 296.273786,58.5724138 C296.273786,45.9931034 301.372816,35.3793103 309.609709,27.5172414 C318.238835,19.6551724 330.005825,15.3310345 343.733981,15.3310345 C352.75534,15.3310345 361.384466,17.2965517 373.151456,22.0137931 L373.935922,22.4068966 L373.935922,37.737931 L371.974757,36.5586207 C361.776699,31.0551724 353.147573,28.3034483 343.733981,28.3034483 C324.906796,28.3034483 311.570874,40.8827586 311.570874,57.3931034 C311.570874,74.2965517 324.514563,86.0896552 344.518447,86.0896552 C353.932039,86.0896552 363.737864,82.9448276 373.151456,77.4413793 L375.112621,76.262069 L375.112621,91.5931034 L374.720388,91.5931034 Z" id="Shape"></path>
                <path d="M138.98835,113.606897 L259.796117,113.606897 L259.796117,0 L138.98835,0 L138.98835,113.606897 Z M170.759223,16.1172414 L196.254369,16.1172414 C205.667961,16.1172414 212.335922,18.8689655 217.042718,22.8 C221.749515,26.7310345 223.71068,32.2344828 223.71068,37.737931 C223.71068,42.062069 222.533981,45.6 220.180583,48.7448276 C218.61165,51.1034483 216.258252,52.6758621 213.120388,54.2482759 C224.102913,57.3931034 230.770874,65.2551724 230.770874,75.4758621 C230.770874,80.5862069 228.809709,86.4827586 223.71068,90.8068966 C219.003883,95.1310345 211.159223,97.8827586 200.568932,97.8827586 L200.568932,97.8827586 L170.36699,97.8827586 L170.36699,16.1172414 L170.759223,16.1172414 Z" id="Shape"></path>
                <path d="M215.866019,73.9034483 C215.866019,70.7586207 214.68932,68.0068966 211.943689,66.0413793 C209.198058,64.0758621 204.883495,62.8965517 198.607767,62.8965517 L185.271845,62.8965517 L185.271845,85.3034483 L199,85.3034483 C206.060194,85.3034483 209.982524,83.7310345 212.335922,81.3724138 C215.081553,79.0137931 215.866019,76.262069 215.866019,73.9034483 Z" id="Path"></path>
                <path d="M204.883495,47.1724138 C207.629126,45.2068966 208.805825,42.8482759 208.805825,38.5241379 C208.805825,35.7724138 208.021359,33.4137931 206.060194,31.8413793 C204.099029,30.2689655 200.961165,28.6965517 195.469903,28.6965517 L185.271845,28.6965517 L185.271845,49.9241379 L191.939806,49.9241379 C197.823301,49.9241379 202.137864,48.7448276 204.883495,47.1724138 Z" id="Path"></path>
                <path d="M0.137864078,113.606897 L120.553398,113.606897 L120.553398,0 L0.137864078,0 L0.137864078,113.606897 Z M31.9087379,16.1172414 L57.7961165,16.1172414 C67.2097087,16.1172414 73.8776699,18.8689655 78.584466,22.8 C83.2912621,26.7310345 85.2524272,32.2344828 85.2524272,37.737931 C85.2524272,42.062069 84.0757282,45.6 81.7223301,48.7448276 C80.1533981,51.1034483 77.8,52.6758621 74.6621359,54.2482759 C85.6446602,57.3931034 92.3126214,65.2551724 92.3126214,75.4758621 C92.3126214,80.5862069 90.3514563,86.4827586 85.2524272,90.8068966 C80.5456311,95.1310345 72.7009709,97.8827586 62.1106796,97.8827586 L62.1106796,97.8827586 L31.9087379,97.8827586 C31.9087379,97.8827586 31.9087379,16.1172414 31.9087379,16.1172414 Z" id="Shape"></path>
                <path d="M66.0330097,47.1724138 C68.7786408,45.2068966 69.9553398,42.8482759 69.9553398,38.5241379 C69.9553398,35.7724138 69.1708738,33.4137931 67.2097087,31.8413793 C65.2485437,30.2689655 62.1106796,28.6965517 56.6194175,28.6965517 L46.8135922,28.6965517 L46.8135922,49.9241379 L53.4815534,49.9241379 C58.9728155,49.9241379 63.2873786,48.7448276 66.0330097,47.1724138 Z" id="Path"></path>
                <path d="M77.015534,73.9034483 C77.015534,70.7586207 75.838835,68.0068966 73.0932039,66.0413793 C70.3475728,64.0758621 66.0330097,62.8965517 59.7572816,62.8965517 L46.4213592,62.8965517 L46.4213592,85.3034483 L60.1495146,85.3034483 C67.2097087,85.3034483 71.1320388,83.7310345 73.4854369,81.7655172 C76.231068,79.0137931 77.015534,76.262069 77.015534,73.9034483 Z" id="Path"></path>
            </g>
            <g id="Group" transform="translate(0.000000, 170.000000)">
                <path d="M65.8893617,79.4380952 C63.1439716,70.0666667 60.7907801,61.0857143 58.0453901,51.7142857 C55.3,42.3428571 52.9468085,33.3619048 50.593617,23.9904762 C48.2404255,33.3619048 45.4950355,42.3428571 43.141844,51.7142857 C40.3964539,61.0857143 38.0432624,70.0666667 35.2978723,79.4380952 L20.7865248,79.4380952 C16.864539,66.9428571 13.3347518,54.0571429 9.80496454,41.1714286 C6.2751773,28.2857143 3.13758865,15.4 0,2.51428571 L14.9035461,2.51428571 C16.864539,13.0571429 19.2177305,23.6 21.570922,34.1428571 C23.9241135,44.6857143 26.277305,54.8380952 29.022695,64.9904762 C31.7680851,55.2285714 34.5134752,45.0761905 36.8666667,35.3142857 C39.6120567,25.552381 41.9652482,15.7904762 44.3184397,6.02857143 L57.6531915,6.02857143 C60.006383,15.7904762 62.3595745,25.552381 65.1049645,35.3142857 C67.458156,45.0761905 70.2035461,54.8380952 72.9489362,64.2095238 C75.6943262,54.0571429 78.0475177,43.9047619 80.4007092,33.752381 C82.7539007,23.6 84.7148936,13.0571429 87.0680851,2.9047619 L101.579433,2.9047619 C98.441844,15.7904762 94.9120567,29.0666667 91.7744681,41.5619048 C88.2446809,54.447619 84.7148936,66.9428571 80.7929078,79.8285714 L65.8893617,79.8285714 L65.8893617,79.4380952 Z" id="Path"></path>
                <path d="M143.936879,0.561904762 C149.819858,0.561904762 154.91844,1.34285714 159.624823,3.2952381 C164.331206,5.24761905 168.253191,7.98095238 171.39078,11.4952381 C174.920567,15.0095238 177.273759,19.3047619 179.234752,24.3809524 C180.803546,29.4571429 181.980142,34.9238095 181.980142,40.7809524 C181.980142,47.0285714 181.195745,52.4952381 179.234752,57.1809524 C177.273759,62.2571429 174.920567,66.1619048 171.782979,69.6761905 C168.64539,73.1904762 164.331206,75.9238095 160.017021,77.8761905 C155.310638,79.8285714 150.212057,80.6095238 144.329078,80.6095238 C138.446099,80.6095238 133.347518,79.8285714 128.641135,77.8761905 C123.934752,75.9238095 120.012766,73.1904762 116.875177,69.6761905 C113.34539,66.1619048 110.992199,61.8666667 109.031206,56.7904762 C107.070213,51.7142857 106.285816,46.247619 106.285816,40.3904762 C106.285816,34.5333333 107.070213,28.6761905 109.031206,23.9904762 C110.992199,18.9142857 113.34539,15.0095238 116.482979,11.4952381 C119.620567,7.98095238 123.934752,5.24761905 128.248936,3.2952381 C132.955319,1.73333333 138.053901,0.561904762 143.936879,0.561904762 Z M143.936879,68.8952381 C148.643262,68.8952381 152.957447,67.7238095 156.487234,65.3809524 C160.017021,63.0380952 162.762411,59.9142857 164.723404,55.6190476 C166.684397,51.3238095 167.468794,46.247619 167.468794,40.3904762 C167.468794,34.5333333 166.684397,29.4571429 164.723404,25.1619048 C162.762411,20.8666667 160.017021,17.7428571 156.487234,15.4 C152.957447,13.0571429 148.643262,11.8857143 143.936879,11.8857143 C139.230496,11.8857143 134.916312,13.0571429 131.386525,15.4 C127.856738,17.7428571 125.111348,20.8666667 123.150355,25.1619048 C121.189362,29.4571429 120.404965,34.5333333 120.404965,40.3904762 C120.404965,46.247619 121.189362,51.3238095 123.150355,55.6190476 C125.111348,59.9142857 127.856738,63.0380952 131.386525,65.3809524 C134.916312,67.7238095 139.230496,68.8952381 143.936879,68.8952381 Z" id="Shape"></path>
                <path d="M209.041844,49.7619048 L209.041844,79.047619 L195.707092,79.047619 L195.707092,2.51428571 L222.376596,2.51428571 C232.573759,2.51428571 240.025532,4.46666667 245.516312,8.76190476 C251.007092,13.0571429 253.360284,18.9142857 253.360284,26.3333333 C253.360284,31.4095238 252.183688,35.7047619 249.438298,39.2190476 C246.692908,42.7333333 243.163121,45.4666667 238.456738,47.4190476 C241.986525,52.4952381 245.124113,57.9619048 248.653901,63.0380952 C251.791489,68.5047619 255.321277,73.5809524 258.458865,79.4380952 L242.770922,79.4380952 C240.025532,74.3619048 237.280142,69.2857143 234.142553,64.6 C231.397163,59.9142857 228.259574,54.8380952 225.121986,49.7619048 C224.337589,49.7619048 223.160993,49.7619048 222.376596,49.7619048 L209.041844,49.7619048 L209.041844,49.7619048 Z M209.041844,13.0571429 L209.041844,38.8285714 L221.2,38.8285714 C227.082979,38.8285714 231.789362,37.6571429 234.534752,35.7047619 C237.67234,33.752381 239.241135,30.2380952 239.241135,25.9428571 C239.241135,21.647619 237.67234,18.1333333 234.534752,16.1809524 C231.397163,14.2285714 227.082979,13.0571429 221.2,13.0571429 L209.041844,13.0571429 L209.041844,13.0571429 Z" id="Shape"></path>
                <path d="M285.128369,44.6857143 L281.206383,44.6857143 L281.206383,79.047619 L267.479433,79.047619 L267.479433,2.51428571 L281.206383,2.51428571 L281.206383,33.752381 L285.520567,33.752381 C290.619149,28.2857143 295.71773,23.2095238 300.424113,18.1333333 C305.130496,13.0571429 309.836879,7.98095238 314.543262,2.51428571 L331.015603,2.51428571 C325.524823,8.76190476 319.641844,14.6190476 314.151064,20.8666667 C308.268085,26.7238095 302.777305,32.9714286 296.894326,39.2190476 C303.169504,45.8571429 309.444681,52.4952381 315.719858,59.1333333 C321.995035,65.7714286 328.270213,72.8 334.54539,79.8285714 L316.896454,79.8285714 C311.797872,73.9714286 306.699291,68.1142857 301.600709,62.647619 C296.109929,56.4 290.619149,50.5428571 285.128369,44.6857143 Z" id="Path"></path>
                <polygon id="Path" points="343.565957 2.51428571 357.292908 2.51428571 357.292908 67.7238095 395.33617 67.7238095 395.33617 79.4380952 343.565957 79.4380952"></polygon>
                <polygon id="Path" points="405.141135 2.51428571 418.868085 2.51428571 418.868085 79.4380952 405.141135 79.4380952"></polygon>
                <polygon id="Path" points="436.124823 2.51428571 486.326241 2.51428571 486.326241 13.8380952 449.851773 13.8380952 449.851773 35.7047619 482.012057 35.7047619 482.012057 47.0285714 449.851773 47.0285714 449.851773 79.047619 436.124823 79.047619"></polygon>
                <path d="M496.523404,2.51428571 L548.293617,2.51428571 L548.293617,13.8380952 L510.250355,13.8380952 L510.250355,33.752381 L543.979433,33.752381 L543.979433,45.0761905 L510.250355,45.0761905 L510.250355,67.7238095 L550.25461,67.7238095 L550.25461,79.047619 L496.523404,79.047619 C496.523404,79.047619 496.523404,2.51428571 496.523404,2.51428571 Z" id="Path"></path>
            </g>
        </g>
        <g id="BBC_Future_Tile_RGB" fill-rule="nonzero">
            <rect id="Rectangle" fill="#000000" x="0" y="0" width="683" height="683"></rect>
            <g id="Group" transform="translate(142.000000, 194.000000)" fill="#FFFFFF">
                <path d="M276.528219,0.00285714286 L276.528219,115.396429 L343.707391,115.396429 L396.435229,115.396429 L396.435229,0.00285714286 L276.528219,0.00285714286 Z M372.610058,93.0364286 L371.828904,93.4357143 C363.626796,97.8278571 354.252958,100.622857 340.973355,100.622857 L340.973355,100.622857 C324.959715,100.622857 313.242417,94.6335714 305.821462,86.6478571 C298.400507,78.2628571 294.494742,68.2807143 294.494742,59.4964286 C294.494742,46.7192857 299.572237,35.9385714 307.774345,27.9528571 C316.36703,19.9671429 328.084327,15.575 341.754508,15.575 C350.737769,15.575 359.330454,17.5714286 371.047751,22.3628571 L371.828904,22.7621429 L371.828904,37.5357143 L369.876022,36.3378571 C359.72103,30.7478571 351.128346,27.9528571 341.754508,27.9528571 C323.006832,27.9528571 309.727228,40.73 309.727228,57.5 C309.727228,74.6692857 322.616255,86.6478571 342.535661,86.6478571 C351.909499,86.6478571 361.673913,83.4535714 371.047751,77.8635714 L373.000634,76.6657143 L373.000634,93.0364286 L372.610058,93.0364286 Z" id="Shape"></path>
                <path d="M138.264109,115.396429 L258.17112,115.396429 L258.17112,0.00285714286 L138.264109,0.00285714286 L138.264109,115.396429 Z M169.510236,16.3735714 L195.28829,16.3735714 C204.662128,16.3735714 211.30193,19.1685714 215.988849,23.1614286 C220.675768,27.1542857 222.628651,32.7442857 222.628651,38.3342857 C222.628651,42.7264286 221.456921,46.32 219.113462,49.5142857 C217.551155,51.91 215.207696,53.5071429 212.083083,55.1042857 C223.019227,58.2985714 229.659029,66.2842857 229.659029,76.6657143 C229.659029,81.8564286 227.706146,87.8457143 222.628651,92.2378571 C217.941732,96.63 210.1302,99.425 199.584633,99.425 L199.584633,99.425 L169.510236,99.425 L169.510236,16.3735714 L169.510236,16.3735714 Z" id="Shape"></path>
                <path d="M214.817119,75.0685714 C214.817119,71.8742857 213.645389,69.0792857 210.911353,67.0828571 C208.177317,65.0864286 203.880975,63.8885714 197.63175,63.8885714 L184.352146,63.8885714 L184.352146,86.6478571 L198.022326,86.6478571 C205.052705,86.6478571 208.95847,85.0507143 211.30193,82.655 C214.035966,80.2592857 214.817119,77.8635714 214.817119,75.0685714 Z" id="Path"></path>
                <path d="M203.490398,47.9171429 C206.224434,45.9207143 207.396164,43.525 207.396164,39.1328571 C207.396164,36.3378571 206.615011,33.9421429 204.662128,32.345 C202.709245,30.7478571 199.584633,29.1507143 194.11656,29.1507143 L184.352146,29.1507143 L184.352146,50.7121429 L190.991948,50.7121429 C196.850596,50.7121429 200.756362,49.5142857 203.490398,47.9171429 Z" id="Path"></path>
                <path d="M0,115.396429 L119.90701,115.396429 L119.90701,0.00285714286 L0,0.00285714286 L0,115.396429 Z M31.2461264,16.3735714 L57.0241807,16.3735714 C66.3980186,16.3735714 73.0378205,19.1685714 77.7247395,23.1614286 C82.4116584,27.1542857 84.3645413,32.7442857 84.3645413,38.3342857 C84.3645413,42.7264286 83.1928116,46.32 80.8493521,49.5142857 C79.2870458,51.91 76.9435863,53.5071429 73.8189737,55.1042857 C84.7551179,58.2985714 91.3949198,66.2842857 91.3949198,76.6657143 C91.3949198,81.8564286 89.4420369,87.8457143 84.3645413,92.2378571 C79.6776224,96.63 71.8660908,99.425 61.3205231,99.425 L61.3205231,99.425 L31.2461264,99.425 L31.2461264,16.3735714 Z" id="Shape"></path>
                <path d="M65.2262889,47.9171429 C67.960325,45.9207143 69.1320547,43.525 69.1320547,39.1328571 C69.1320547,36.3378571 68.3509015,33.9421429 66.3980186,32.345 C64.4451357,30.7478571 61.3205231,29.1507143 55.852451,29.1507143 L46.0880365,29.1507143 L46.0880365,50.7121429 L52.7278383,50.7121429 C58.586487,50.7121429 62.4922528,49.5142857 65.2262889,47.9171429 Z" id="Path"></path>
                <path d="M76.5530097,75.0685714 C76.5530097,71.8742857 75.38128,69.0792857 72.6472439,67.0828571 C69.9132079,65.0864286 65.6168655,63.8885714 59.3676402,63.8885714 L46.0880365,63.8885714 L46.0880365,86.6478571 L59.7582168,86.6478571 C66.7885952,86.6478571 70.694361,85.0507143 73.0378205,83.0542857 C75.38128,80.2592857 76.5530097,77.8635714 76.5530097,75.0685714 Z" id="Path"></path>
            </g>
            <g id="Group" transform="translate(78.000000, 341.000000)" fill="#FFFFFF">
                <polygon id="Path" points="0.335325077 0.401507277 63.0056966 0.401507277 63.0056966 15.2572765 17.4626316 15.2572765 17.4626316 43.7642931 57.945356 43.7642931 57.945356 58.6200624 17.4626316 58.6200624 17.4626316 100.376819 0.335325077 100.376819"></polygon>
                <path d="M118.280186,102.384356 C109.716533,102.384356 102.709907,100.778326 96.4817957,97.1647609 C90.6429412,93.9527027 85.9718576,89.1346154 82.8578019,82.710499 C79.7437461,76.2863825 78.1867183,69.0592516 78.1867183,60.2260915 L78.1867183,0.401507277 L95.3140248,0.401507277 L95.3140248,62.2336279 C95.3140248,70.2637734 97.2603096,76.2863825 101.152879,80.7029626 C105.045449,85.1195426 110.884303,87.127079 118.280186,87.127079 C125.676068,87.127079 131.514923,85.1195426 135.407492,80.7029626 C139.300062,76.2863825 141.635604,70.2637734 141.635604,62.2336279 L141.635604,0.401507277 L158.76291,0.401507277 L158.76291,60.2260915 C158.76291,69.0592516 157.205882,76.6878898 153.70257,82.710499 C150.588514,89.1346154 145.91743,93.9527027 139.689319,97.1647609 C134.239721,100.376819 126.843839,102.384356 118.280186,102.384356 Z" id="Path"></path>
                <polygon id="Path" points="171.997647 0.401507277 252.184582 0.401507277 252.184582 15.6587838 220.654768 15.6587838 220.654768 100.376819 203.527461 100.376819 203.527461 15.6587838 171.997647 15.6587838 171.997647 0.401507277"></polygon>
                <path d="M305.902043,102.384356 C297.33839,102.384356 290.331765,100.778326 284.103653,97.1647609 C278.264799,93.9527027 273.593715,89.1346154 270.479659,82.710499 C267.365604,76.2863825 265.808576,69.0592516 265.808576,60.2260915 L265.808576,0.401507277 L282.935882,0.401507277 L282.935882,62.2336279 C282.935882,70.2637734 284.882167,76.2863825 288.774737,80.7029626 C292.667307,85.1195426 298.506161,87.127079 305.902043,87.127079 C313.297926,87.127079 319.13678,85.1195426 323.02935,80.7029626 C326.92192,76.2863825 329.257461,70.2637734 329.257461,62.2336279 L329.257461,0.401507277 L346.384768,0.401507277 L346.384768,60.2260915 C346.384768,69.0592516 344.82774,76.6878898 341.324427,82.710499 C338.210372,89.1346154 333.539288,93.9527027 327.311176,97.1647609 C321.472322,100.376819 314.465697,102.384356 305.902043,102.384356 Z" id="Path"></path>
                <path d="M385.310464,61.8321206 L385.310464,99.9753119 L368.183158,99.9753119 L368.183158,0.401507277 L401.659257,0.401507277 C414.11548,0.401507277 423.846904,3.21205821 430.464272,8.43165281 C437.081641,13.6512474 440.584954,21.2798857 440.584954,31.3175676 C440.584954,37.741684 439.027926,43.7642931 435.524613,48.1808732 C432.410557,52.9989605 427.739474,56.2110187 421.511362,58.6200624 C425.793189,65.4456861 430.075015,72.2713098 433.967585,79.0969335 C438.249412,85.9225572 442.141981,93.1496881 446.423808,100.376819 L426.571703,100.376819 C423.06839,93.9527027 419.565077,87.5285863 415.672508,81.1044699 C412.169195,74.6803534 408.276625,68.256237 404.384056,61.8321206 C403.216285,61.8321206 402.048514,61.8321206 400.880743,61.8321206 L385.310464,61.8321206 L385.310464,61.8321206 Z M385.310464,14.454262 L385.310464,47.7793659 L400.491486,47.7793659 C407.887368,47.7793659 413.726223,46.5748441 417.618793,43.7642931 C421.511362,40.9537422 423.457647,36.9386694 423.457647,30.9160603 C423.457647,25.2949584 421.511362,20.8783784 417.618793,18.0678274 C413.726223,15.2572765 408.276625,14.0527547 400.880743,14.0527547 L385.310464,14.0527547 L385.310464,14.454262 Z" id="Shape"></path>
                <polygon id="Path" points="459.658545 0.401507277 524.275201 0.401507277 524.275201 15.2572765 476.785851 15.2572765 476.785851 40.9537422 519.214861 40.9537422 519.214861 55.8095114 476.785851 55.8095114 476.785851 85.1195426 527 85.1195426 527 99.9753119 459.658545 99.9753119"></polygon>
            </g>
        </g>
    </g>
</svg>